<mxfile host="65bd71144e" pages="4">
    <diagram id="2hGVeUaQI9Hq1oH2WfT8" name="闭包">
        <mxGraphModel dx="609" dy="610" grid="1" gridSize="10" guides="1" tooltips="1" connect="1" arrows="1" fold="1" page="1" pageScale="1" pageWidth="827" pageHeight="1169" math="0" shadow="0">
            <root>
                <mxCell id="0"/>
                <mxCell id="1" parent="0"/>
                <mxCell id="QDu8D2trziJ9GFAOmtbb-39" value="" style="rounded=0;whiteSpace=wrap;html=1;" parent="1" vertex="1">
                    <mxGeometry x="20" y="180" width="740" height="370" as="geometry"/>
                </mxCell>
                <mxCell id="QDu8D2trziJ9GFAOmtbb-27" value="" style="rounded=0;whiteSpace=wrap;html=1;" parent="1" vertex="1">
                    <mxGeometry x="250" y="220" width="310" height="270" as="geometry"/>
                </mxCell>
                <mxCell id="QDu8D2trziJ9GFAOmtbb-32" value="&lt;h1&gt;对闭包的理解&lt;/h1&gt;&lt;span style=&quot;text-align: center&quot;&gt;&lt;font style=&quot;font-size: 15px&quot;&gt;* 内部函数funInner 引用外部函数funOuter的变量a&amp;nbsp; &lt;br&gt;* 内部函数&lt;/font&gt;&lt;/span&gt;&lt;span style=&quot;font-size: 15px ; text-align: center&quot;&gt;funInner&lt;/span&gt;&lt;span style=&quot;text-align: center&quot;&gt;&lt;font style=&quot;font-size: 15px&quot;&gt;被引用为全局作用域scope1中 &lt;br&gt;* spoce1调用完外部函数funOuter,变量a不会被销毁会一直存在内存中不会被销毁&lt;br&gt;* 通过访问funInnter可以访问和操作变量a&lt;br&gt;&lt;/font&gt;&lt;/span&gt;" style="text;html=1;strokeColor=none;fillColor=none;spacing=5;spacingTop=-20;whiteSpace=wrap;overflow=hidden;rounded=0;" parent="1" vertex="1">
                    <mxGeometry x="10" y="20" width="750" height="140" as="geometry"/>
                </mxCell>
                <mxCell id="QDu8D2trziJ9GFAOmtbb-55" style="edgeStyle=orthogonalEdgeStyle;rounded=0;orthogonalLoop=1;jettySize=auto;html=1;" parent="1" source="QDu8D2trziJ9GFAOmtbb-34" target="QDu8D2trziJ9GFAOmtbb-54" edge="1">
                    <mxGeometry relative="1" as="geometry"/>
                </mxCell>
                <mxCell id="QDu8D2trziJ9GFAOmtbb-34" value="var a=1" style="ellipse;whiteSpace=wrap;html=1;" parent="1" vertex="1">
                    <mxGeometry x="385" y="240" width="110" height="60" as="geometry"/>
                </mxCell>
                <mxCell id="QDu8D2trziJ9GFAOmtbb-35" value="自由变量" style="text;html=1;strokeColor=none;fillColor=none;align=center;verticalAlign=middle;whiteSpace=wrap;rounded=0;" parent="1" vertex="1">
                    <mxGeometry x="410" y="240" width="60" height="20" as="geometry"/>
                </mxCell>
                <mxCell id="QDu8D2trziJ9GFAOmtbb-42" value="引用a" style="edgeStyle=orthogonalEdgeStyle;rounded=0;orthogonalLoop=1;jettySize=auto;html=1;" parent="1" source="QDu8D2trziJ9GFAOmtbb-37" target="QDu8D2trziJ9GFAOmtbb-34" edge="1">
                    <mxGeometry relative="1" as="geometry"/>
                </mxCell>
                <mxCell id="QDu8D2trziJ9GFAOmtbb-37" value="funInnter" style="rounded=0;whiteSpace=wrap;html=1;" parent="1" vertex="1">
                    <mxGeometry x="380" y="360" width="120" height="60" as="geometry"/>
                </mxCell>
                <mxCell id="QDu8D2trziJ9GFAOmtbb-45" style="edgeStyle=orthogonalEdgeStyle;rounded=0;orthogonalLoop=1;jettySize=auto;html=1;" parent="1" source="QDu8D2trziJ9GFAOmtbb-40" target="QDu8D2trziJ9GFAOmtbb-27" edge="1">
                    <mxGeometry relative="1" as="geometry"/>
                </mxCell>
                <mxCell id="QDu8D2trziJ9GFAOmtbb-52" style="edgeStyle=orthogonalEdgeStyle;rounded=0;orthogonalLoop=1;jettySize=auto;html=1;entryX=0.036;entryY=0.65;entryDx=0;entryDy=0;entryPerimeter=0;" parent="1" source="QDu8D2trziJ9GFAOmtbb-40" target="QDu8D2trziJ9GFAOmtbb-34" edge="1">
                    <mxGeometry relative="1" as="geometry">
                        <Array as="points">
                            <mxPoint x="68" y="279"/>
                        </Array>
                    </mxGeometry>
                </mxCell>
                <mxCell id="QDu8D2trziJ9GFAOmtbb-40" value="全局作用域scope1" style="text;html=1;strokeColor=none;fillColor=none;align=center;verticalAlign=middle;whiteSpace=wrap;rounded=0;" parent="1" vertex="1">
                    <mxGeometry x="30" y="345" width="75" height="20" as="geometry"/>
                </mxCell>
                <mxCell id="QDu8D2trziJ9GFAOmtbb-43" style="edgeStyle=orthogonalEdgeStyle;rounded=0;orthogonalLoop=1;jettySize=auto;html=1;exitX=0.5;exitY=1;exitDx=0;exitDy=0;" parent="1" source="QDu8D2trziJ9GFAOmtbb-35" target="QDu8D2trziJ9GFAOmtbb-35" edge="1">
                    <mxGeometry relative="1" as="geometry"/>
                </mxCell>
                <mxCell id="QDu8D2trziJ9GFAOmtbb-44" value="funOuter" style="text;html=1;strokeColor=none;fillColor=none;align=center;verticalAlign=middle;whiteSpace=wrap;rounded=0;" parent="1" vertex="1">
                    <mxGeometry x="270" y="240" width="70" height="20" as="geometry"/>
                </mxCell>
                <mxCell id="QDu8D2trziJ9GFAOmtbb-49" value="&lt;h1&gt;&lt;span style=&quot;font-size: 12px ; font-weight: normal&quot;&gt;通过调用funOuter，&lt;/span&gt;&lt;br&gt;&lt;/h1&gt;&lt;p&gt;获取funInnter的引用&lt;/p&gt;" style="text;html=1;strokeColor=none;fillColor=none;spacing=5;spacingTop=-20;whiteSpace=wrap;overflow=hidden;rounded=0;" parent="1" vertex="1">
                    <mxGeometry x="105" y="315" width="135" height="80" as="geometry"/>
                </mxCell>
                <mxCell id="QDu8D2trziJ9GFAOmtbb-53" value="通过调用funInnter的引用可以访问，操作到a" style="text;html=1;strokeColor=none;fillColor=none;align=center;verticalAlign=middle;whiteSpace=wrap;rounded=0;" parent="1" vertex="1">
                    <mxGeometry x="100" y="250" width="130" height="20" as="geometry"/>
                </mxCell>
                <mxCell id="QDu8D2trziJ9GFAOmtbb-54" value="存在内存中，可被垃圾回收机制清除" style="shape=document;whiteSpace=wrap;html=1;boundedLbl=1;" parent="1" vertex="1">
                    <mxGeometry x="610" y="230" width="120" height="80" as="geometry"/>
                </mxCell>
            </root>
        </mxGraphModel>
    </diagram>
    <diagram id="6wVn_BU8PTFxnqBxz8LB" name="执行上下文">
        <mxGraphModel dx="926" dy="626" grid="1" gridSize="10" guides="1" tooltips="1" connect="1" arrows="1" fold="1" page="1" pageScale="1" pageWidth="827" pageHeight="1169" math="0" shadow="0">
            <root>
                <mxCell id="2aYxUQPdytxcpD5znUE7-0"/>
                <mxCell id="2aYxUQPdytxcpD5znUE7-1" parent="2aYxUQPdytxcpD5znUE7-0"/>
                <mxCell id="KNpJdGpLoPDFVLC304nA-4" value="" style="rounded=0;whiteSpace=wrap;html=1;" parent="2aYxUQPdytxcpD5znUE7-1" vertex="1">
                    <mxGeometry x="110" y="80" width="620" height="760" as="geometry"/>
                </mxCell>
                <mxCell id="JbvQ3W2j8zAWgqQdA6A0-0" value="&lt;h1&gt;&lt;font style=&quot;font-size: 15px&quot;&gt;全局执行上下文（GEC）&lt;/font&gt;&lt;/h1&gt;&lt;h1&gt;&lt;font style=&quot;font-weight: normal ; font-size: 13px&quot;&gt;* 当JavaScript代码第一次加载时，会创建全局执行上下文，无论是否有实际的代码;&lt;/font&gt;&lt;/h1&gt;" style="text;html=1;strokeColor=none;fillColor=none;spacing=5;spacingTop=-20;whiteSpace=wrap;overflow=hidden;rounded=0;" parent="2aYxUQPdytxcpD5znUE7-1" vertex="1">
                    <mxGeometry x="128" y="90" width="570" height="80" as="geometry"/>
                </mxCell>
                <mxCell id="JbvQ3W2j8zAWgqQdA6A0-1" value="&lt;h1&gt;&lt;font style=&quot;font-size: 15px&quot;&gt;全局执行上下文的用处&lt;/font&gt;&lt;/h1&gt;&lt;div style=&quot;font-size: 13px&quot;&gt;&lt;font style=&quot;font-size: 13px&quot;&gt;&lt;font style=&quot;font-size: 13px&quot;&gt;* &lt;/font&gt;&lt;font style=&quot;font-size: 13px&quot;&gt;创建一个全局变量this；&lt;/font&gt;&lt;/font&gt;&lt;/div&gt;&lt;div style=&quot;font-size: 13px&quot;&gt;&lt;font style=&quot;font-size: 13px&quot;&gt;&lt;font style=&quot;font-size: 13px&quot;&gt;*&lt;/font&gt;&amp;nbsp;在浏览器中会创建全局对象window;在服务器端（NodeJs）中没有window对象&lt;/font&gt;&lt;/div&gt;" style="text;html=1;strokeColor=none;fillColor=none;spacing=5;spacingTop=-20;whiteSpace=wrap;overflow=hidden;rounded=0;" parent="2aYxUQPdytxcpD5znUE7-1" vertex="1">
                    <mxGeometry x="133" y="190" width="565" height="100" as="geometry"/>
                </mxCell>
                <mxCell id="JbvQ3W2j8zAWgqQdA6A0-2" value="&lt;h1&gt;&lt;font style=&quot;font-size: 15px&quot;&gt;全局执行上下文阶段&lt;/font&gt;&lt;/h1&gt;&lt;div style=&quot;font-size: 13px&quot;&gt;&lt;font style=&quot;font-size: 13px&quot;&gt;&lt;font style=&quot;font-size: 13px&quot;&gt;* 创建阶段&lt;/font&gt;&lt;/font&gt;&lt;/div&gt;&lt;div style=&quot;font-size: 13px&quot;&gt;&lt;font style=&quot;font-size: 13px&quot;&gt;&lt;font style=&quot;font-size: 13px&quot;&gt;&amp;nbsp; -&amp;nbsp; window对象&lt;/font&gt;&lt;/font&gt;&lt;/div&gt;&lt;div style=&quot;font-size: 13px&quot;&gt;&lt;font style=&quot;font-size: 13px&quot;&gt;&lt;font style=&quot;font-size: 13px&quot;&gt;&amp;nbsp; -&amp;nbsp; this变量&lt;/font&gt;&lt;/font&gt;&lt;/div&gt;&lt;div style=&quot;font-size: 13px&quot;&gt;&lt;font style=&quot;font-size: 13px&quot;&gt;&lt;font style=&quot;font-size: 13px&quot;&gt;&amp;nbsp; -&amp;nbsp; 内存被分配给变量名和函数&lt;/font&gt;&lt;/font&gt;&lt;/div&gt;&lt;div style=&quot;font-size: 13px&quot;&gt;&lt;font style=&quot;font-size: 13px&quot;&gt;&lt;font style=&quot;font-size: 13px&quot;&gt;&amp;nbsp; -&amp;nbsp; 变量名被undefined这个特殊值初始化&lt;/font&gt;&lt;/font&gt;&lt;/div&gt;&lt;div style=&quot;font-size: 13px&quot;&gt;&lt;font style=&quot;font-size: 13px&quot;&gt;&lt;font style=&quot;font-size: 13px&quot;&gt;&amp;nbsp; -&amp;nbsp; 函数被直接放到内存中&lt;/font&gt;&lt;/font&gt;&lt;/div&gt;&lt;div style=&quot;font-size: 13px&quot;&gt;&lt;font style=&quot;font-size: 13px&quot;&gt;&lt;font style=&quot;font-size: 13px&quot;&gt;*&lt;/font&gt;&amp;nbsp;执行阶段&lt;/font&gt;&lt;/div&gt;&lt;div style=&quot;font-size: 13px&quot;&gt;&lt;font style=&quot;font-size: 13px&quot;&gt;&amp;nbsp; -&amp;nbsp; 变量名被赋值&lt;/font&gt;&lt;/div&gt;&lt;div style=&quot;font-size: 13px&quot;&gt;&lt;font style=&quot;font-size: 13px&quot;&gt;&amp;nbsp; -&amp;nbsp; 执行函数&lt;/font&gt;&lt;/div&gt;&lt;div style=&quot;font-size: 13px&quot;&gt;&lt;font style=&quot;font-size: 13px&quot;&gt;&lt;br&gt;&lt;/font&gt;&lt;/div&gt;&lt;div style=&quot;font-size: 13px&quot;&gt;&lt;font style=&quot;font-size: 13px&quot;&gt;&lt;br&gt;&lt;/font&gt;&lt;/div&gt;" style="text;html=1;strokeColor=none;fillColor=none;spacing=5;spacingTop=-20;whiteSpace=wrap;overflow=hidden;rounded=0;" parent="2aYxUQPdytxcpD5znUE7-1" vertex="1">
                    <mxGeometry x="137.5" y="300" width="565" height="190" as="geometry"/>
                </mxCell>
                <mxCell id="JbvQ3W2j8zAWgqQdA6A0-3" value="&lt;h1&gt;&lt;font style=&quot;font-size: 15px&quot;&gt;函数执行上下文（FEC）&lt;/font&gt;&lt;/h1&gt;&lt;div style=&quot;font-size: 13px&quot;&gt;&lt;font style=&quot;font-size: 13px&quot;&gt;&lt;font style=&quot;font-size: 13px&quot;&gt;* 函数执行上下文被函数被调用时被创建&lt;/font&gt;&lt;/font&gt;&lt;/div&gt;&lt;div style=&quot;font-size: 13px&quot;&gt;&lt;font style=&quot;font-size: 13px&quot;&gt;&lt;br&gt;&lt;/font&gt;&lt;/div&gt;" style="text;html=1;strokeColor=none;fillColor=none;spacing=5;spacingTop=-20;whiteSpace=wrap;overflow=hidden;rounded=0;" parent="2aYxUQPdytxcpD5znUE7-1" vertex="1">
                    <mxGeometry x="137.5" y="500" width="565" height="80" as="geometry"/>
                </mxCell>
                <mxCell id="Yngg0Obg9eo7OFID3I0d-0" value="&lt;h1&gt;&lt;font style=&quot;font-size: 15px&quot;&gt;函数执行上下文阶段&lt;/font&gt;&lt;/h1&gt;&lt;div style=&quot;font-size: 13px&quot;&gt;&lt;font style=&quot;font-size: 13px&quot;&gt;&lt;font style=&quot;font-size: 13px&quot;&gt;* 函数执行上下文经历相同的阶段，创建和执行&lt;/font&gt;&lt;/font&gt;&lt;/div&gt;&lt;div style=&quot;font-size: 13px&quot;&gt;&lt;font style=&quot;font-size: 13px&quot;&gt;* 多出名为参数的特殊变量&lt;/font&gt;&lt;/div&gt;" style="text;html=1;strokeColor=none;fillColor=none;spacing=5;spacingTop=-20;whiteSpace=wrap;overflow=hidden;rounded=0;" parent="2aYxUQPdytxcpD5znUE7-1" vertex="1">
                    <mxGeometry x="137.5" y="590" width="565" height="110" as="geometry"/>
                </mxCell>
                <mxCell id="Yngg0Obg9eo7OFID3I0d-3" value="&lt;h1&gt;&lt;font style=&quot;font-size: 15px&quot;&gt;JavaScript内部提升机制&lt;/font&gt;&lt;/h1&gt;&lt;span style=&quot;font-size: 13px&quot;&gt;* 为执行上下文中的函数和变量声明分配内存的机制称为提升&lt;/span&gt;&lt;br&gt;&lt;span style=&quot;font-size: 13px&quot;&gt;* 深刻理解执行上下文在创建阶段做的事情&lt;/span&gt;&lt;br&gt;&lt;span style=&quot;font-size: 13px&quot;&gt;* 深刻理解执行上下文创建阶段和执行阶段的顺序&lt;/span&gt;&lt;br&gt;&lt;span style=&quot;font-size: 13px&quot;&gt;* let 和 const 声明也被提升，但它们不会像 var 一样初始化为 undefined&lt;/span&gt;" style="text;html=1;strokeColor=none;fillColor=none;spacing=5;spacingTop=-20;whiteSpace=wrap;overflow=hidden;rounded=0;" parent="2aYxUQPdytxcpD5znUE7-1" vertex="1">
                    <mxGeometry x="140" y="690" width="565" height="120" as="geometry"/>
                </mxCell>
            </root>
        </mxGraphModel>
    </diagram>
    <diagram id="VXVagfLiGqWqg9LS8rSW" name="JavaScript语言编辑">
        <mxGraphModel dx="926" dy="626" grid="1" gridSize="10" guides="1" tooltips="1" connect="1" arrows="1" fold="1" page="1" pageScale="1" pageWidth="827" pageHeight="1169" math="0" shadow="0">
            <root>
                <mxCell id="g6PYxoMewmJSJhbW3inZ-0"/>
                <mxCell id="g6PYxoMewmJSJhbW3inZ-1" parent="g6PYxoMewmJSJhbW3inZ-0"/>
                <mxCell id="g6PYxoMewmJSJhbW3inZ-12" value="" style="rounded=0;whiteSpace=wrap;html=1;" parent="g6PYxoMewmJSJhbW3inZ-1" vertex="1">
                    <mxGeometry x="40" y="30" width="590" height="770" as="geometry"/>
                </mxCell>
                <mxCell id="g6PYxoMewmJSJhbW3inZ-5" value="&lt;h1&gt;&lt;font style=&quot;font-size: 15px&quot;&gt;解释器&lt;/font&gt;&lt;/h1&gt;&lt;h1&gt;&lt;font style=&quot;font-weight: normal ; font-size: 13px&quot;&gt;解释器是一种计算机程序，它直接执行用编程或脚本语言编写的指令，而不要求它们以前被编译成机器语言程序。它一次翻译一个语句。&lt;/font&gt;&lt;br&gt;&lt;/h1&gt;" style="text;html=1;strokeColor=none;fillColor=none;spacing=5;spacingTop=-20;whiteSpace=wrap;overflow=hidden;rounded=0;" parent="g6PYxoMewmJSJhbW3inZ-1" vertex="1">
                    <mxGeometry x="50" y="30" width="570" height="120" as="geometry"/>
                </mxCell>
                <mxCell id="g6PYxoMewmJSJhbW3inZ-7" value="&lt;h1&gt;&lt;span style=&quot;font-size: 15px&quot;&gt;编译器&lt;/span&gt;&lt;/h1&gt;&lt;h1&gt;&lt;span style=&quot;font-weight: normal&quot;&gt;&lt;font style=&quot;font-size: 13px&quot;&gt;编译器是将用一种编程语言（源语言，如JavaScript等）编写的计算机代码转换成另一种编程语言（目标语言，如机器代码）的计算机软件。&lt;/font&gt;&lt;/span&gt;&lt;br&gt;&lt;/h1&gt;" style="text;html=1;strokeColor=none;fillColor=none;spacing=5;spacingTop=-20;whiteSpace=wrap;overflow=hidden;rounded=0;" parent="g6PYxoMewmJSJhbW3inZ-1" vertex="1">
                    <mxGeometry x="50" y="150" width="570" height="110" as="geometry"/>
                </mxCell>
                <mxCell id="g6PYxoMewmJSJhbW3inZ-8" value="" style="shape=image;verticalLabelPosition=bottom;verticalAlign=top;imageAspect=0;aspect=fixed;image=data:image/png,iVBORw0KGgoAAAANSUhEUgAAAggAAAEgCAYAAADR64ulAAAgAElEQVR4XuxdBZwcRfb+unt0XbKWjbuTkGAJCQQnBCccGuAODfwPdwiWO1wOO4IcDgcE5/AQJAnE3UNss5Z137Hu/+9Vdc/0zM767th2c7ndnemuqn4l76v3vnpPUBRFgXEZEjAkYEjAkIAhAUMChgR0EhAMgGCMB0MChgQMCRgSMCRgSCBQAgZAMMaEIQFDAoYEDAkYEjAk0EQCBkAwBoUhAUMChgQMCRgSMCRgAARjDBgSMCRgSMCQgCEBQwKtS8CwILQuI+MOQwKGBAwJGBIwJNDjJGAAhB7X5cYLGxIwJGBIwJCAIYHWJWAAhNZlZNxhSMCQgCEBQwKGBHqcBAyA0OO63HhhQwKGBAwJGBIwJNC6BAyA0LqMjDsMCRgSMCRgSMCQQI+TgAEQelyXGy9sSMCQgCEBQwKGBFqXgAEQWpeRcYchAUMChgQMCRgS6HES6BBAqKysRGpqao8TlvHChgQMCRgSMCRgSCAaJXDbbbfh0UcfbVfTDYDQLnEZNxsSMCRgSMCQgCGB6JNAVAAEgclVgCIo9APQckkqIiDIoI/5HcbVnRJQVOGTnAXqD/aPhM87wEjx2Z3SN8o2JGBIwJBAaCUQNQCBFBJEBZIgwSQpsFoFxNksMJtMkESRaScDIHT34FHgkWW4XG7UNjrhcArwyIAsK1AUGXJ3V2+Ub0jAkIAhAUMCIZNAxAIEBgiYxldgkgSkp1rQL8uEQX3S0D/bBY9HRn1DPDxuK9yyBbLAd7DGLrarxw4hLy5VQVFgEZ2wmRoRZ3fC7Zawr0jE7vwK7DvgRlm1A7JHYECBWxl8lgWjX7q6X7qjPA1iiwA8EATNTiTAJAIWkwkmSYQkiAYY7w7xt1KmR5HhlhU4XC64ZVrrFMiK/7ZIP+cCi+NzEgaQD0PfRWuVEQoQBIiQYLYoyM4w4dCRNgwdlA7R48CyzW6s3ngAtbUiG+h8fsgQFW7sZp+xDw17QtcMSh/s0qRK6oPEm5lqwqFjemHMcAsa3GZs+bMSazbV4ECVArebHBBubxMM8NY1vdG9pdC8ozllhVl0Id4iIjc5Hv1SbEi2iTDZrTCZ4yCJFnafMcO6tzf0pbO1zUOgvBFORyPKGtwoqHJiX2k9GtweuBhgkMFXRR0IUF2y+hXRsPSFrt+ivaaIBAiiIKB/lgWHH5SCzHQzNv1Zje17nCgocUCQCSOLDD3z/1SAoFoP+ODXpkPgvrW5Ja2j92l1BQ6DYPvlYHV39X3c4uJ/daZerTzOPtBK0mogJSEKgMkkIDvDhjFD4jCyfxy25TVg2dpqlFQ6fXQRw7oT8WsF9Wec2YTBmQkYkp2AzEQLympllFTWobLejTqnC06PApei7lMNhBCyPiUjnllQYJEE2C0mJMeZkJOWjDS7gNJaN7YVVmJXaR3qnG5/RlAQgGCA9ZB1W9RXFDkAgcyZAmCVBIwdFIfpk5KQd8CB73+vQHmd7FU0olf/+diK/gM+UI2pfeT9ONC6EDBdvMW2cJ9fFW0oj+nZ9tynBx5B2uctLxCg6PYGzb6v3/4iQOsHb6PvU3If+AMQHxQTQFSQ9EQRp0zLQlqyDd/+VowdeXWqOdRw/0TyamGVRAxIicMhA9ORkmTFlsJqrN51AHVOBR6FHA4m5nbw7k0NcBDa7lTArTsqTKdNFG2TEiwCJgzMxIjcZAbiVuwoQl6VAw63tn1ipgXvtinYFiK0L2LUFk0SiBiAIIgC4swijjk0BcP6JuDH5aXYuqeeDXTfRVOEK0Fm5lavpkZwrgSDQQX+GU0t7erq+zi3P3AiNq3Xd5/+Xn4fV7taKc2Xp78v+Dtr5WkLC19ifG+vl65/G7lU/SGDChB0gtX6QSuHcFC8VcSYQfGYMj4Fa7dVYsn6OjhpwVKaZyL44F40TZ/obyvJPdlixtShmeifnoDV+8uwpbgK1fUu1b/NrXTER+DdZ7BJwt3r+jlJmyq6EmxmjMhJxsF9k7G/ogFLdpShstGFoNRhowvD3YVRU3/YAYKmGBJsEo49LA0Dcmz4ZOEB5Jc6mULxH8utAQQfbCBVpukxbV/tm1iap44rVe0pvW+Of6Yd5evYffq9P6+bAxNN8WswRX9f03q5QtfkpDfva0DC9378nZvWy2vn93EHjQ8e8d+aysZXr280C5C1M6WqrmgiO0Hi8hRlDO8fh5nTM7BqQy1+W10Bl5t2oMEvvjsy1E8oVw6SeU6iHSePGwBHYyO+35qPkkYnI/wKbm288p0oAQTW5S2AvFC2vSfXFQgQaFbRtCTqaHqcCceMykay3Yav1+dhf7XD64j1yswACD15+LTr3cMKEGigixBhMYs4/rBEZGZZ8NWvFSguI3AQ8B7NDGpj59mu/m73zT4Xgk55q0IPBqzIT8QxhAJJNCE704QzjkrFlh11+HVdDVxkr9YQifqr3gphrF3t7qIOPUDckdyUOJw4qg/2lFZh+e5y1Dppx6miRa9LzIBtHRJwNz4UdE6y7Qf/Z7MJmNg3GUOzkrFwczH2VDSyY8gG/O7GTonRosMOEMyiCZNGJuLIQxLx/ndF2H/ABUVW1YShLSJi2DUHwvwAgnaTarYRFFqqJMYrGT3Qgr+clIH3vi3Fpt21fJ3SFdrETRERbx27jSDR90my4bTxfbCloApL95TrfNb+NipdVLLYFUiUvZk/QFCPgyv8BAqbWEQcFmUcOiAd4/qm4cu1+7G/sqGpJSHK3ttobuglEF6AIADZ6RZcOCML3y2twObddSCgy4hwOnDAT2MbaCH0w6MDNWp+HWZE4OflrRIwbkQCDh6dgHe/KkRNQ0BfGl3bAUF37BFSIkkWE047eAAKyqvx+65SNLoVyIxjEOwAnGGj65ikQ/0Utx6w+DFsBaX4MSKOGpSK3unx+HhtAWqdbsOPF+puifL6wgoQLGYBM6amQ/Yo+GZxOTM/045Tz4XiQ54DBAMkRNhoC6Y79ACBexqY4dNiUnDRjCzsK2nEohU1cMuephZPAyh0awdT11gkCceOyEZaog0fr8pDo4vIBiorxuAXdKv8u7TwgLnHrQr0H2fzqMwRxJsEzJzQDzWNTvy0tRANPMKScRkSaJMEwgIQmA4RBAzOseAvp/TCK5+UoKzSDVndwbB1SlUsen3Dj9j5Rjf/LnqtC35zPIhibbkHI2Bn11ITAt6H/hzUx46LT8nCax8VYj/xTPSERxVMtGnUGjd1SAJENBzUKxFnTeiPd5dsR2GdSyUgqqZpIrAqCswaNV5HjtV8Qi525DGw47XOplDoYAci6RM6gOQLldWhJhsPNScBXRdoLgcOEdQYMQKdGuLgPCPegouO6I+v1uRjZ3k9ZKV5srAhcEMCegmEHCDwCGwCzCYJZ0xPg9uj4LOfS1k8f75MEVNeW7BUCKDmWWBnGEQFskh+CAESnXJQJHZeQfEFSAh5Dws60yzpPNZ+1RSiHSnkk1iXMEIWIQga5FHxvx+y18468BAKWkRVmv6ibGJnEYhq3pxdhcTB4JTuWWjcjpBLiFdIIbNnn5KDguJG/LC8nJ2vN67QScAmiTjjoP7YW16L5XtLdPLn3muLoODyKf1x6eG5SJBkuOkog5vGqABRllArS3hpaR7eWZEPjxawVxuYAtA3xYYzRmfjhMFm5KQl4J3V5Xju173wGJaJbu9kvoLwftQfbaTP6NOJA1IwODMZn63ZB2fAaSKahmFeGrpdPkYFHZPA7bfdhkdCme6ZD2EJqUki/j4rA8+8W4wqp0cNb6B60AR9lAN+hifeouDQsYnIzUlGba0LW7ceQFmNjPIaie1oIgEgMDhDitkLcHwfmEQBvTOAKeNzYDNbsWF9ATbmN8AjCiy+ehOznzdxJYcYrExFAQVIMUvAmD4WjBjRC1u2VmLtnnq/x9lioQMI2tAI9xE1SRDQO9WC049JxWtfFKPBaSCEjk3b9j9F46ZfSjxmTRyI+b9tQbWDdpE+QiLNvOGZCXj93P7on2pCnUNGutkFh0S5ToAah4JsuwWbKhow6/WNKK5X+QrqaQdFEDAuNwn/OHkgDs0W4XF78PLKSsz7YQ/cBkBof4d14AmCAl5XLHEVFZ97NtFuwmWTh+DLdXnYW1brK10FeB7D79ABicf+I3fcdhseDiVAIOUlCiLGD03G2CF2vP1tITtbrYVI5hCBWw5oFyyICsYMkvD49Qk4YqwDcElo9JhgMskorrHh2odqsHB9AxSZjtcpqiKl3TVPLsRVtI/FwK2j/Hv2DSlddankd6khlpiZlWtZr1ePfUbppSUogocrYVGAIFM5ajpqmnBe0zkd9QMG9jLh5llxOHsmYDOxh0As/7VbZCzfZcFDr5Sjgoh7LDmO6ptXd/4CcxmqZQoC+vYy4bV7MjBlZB1E0YPvlthwztxSHv5IawN7NdXsq6GWCDjDTuKzSwIuOaMvflpWim159bE/wyLgDWn8miURM8YPgOBw4auNeXAFHHqjkTeoVzzuOH4IHG439hRU4LajMiBIIkrcFjz8XT7OmtAbxbUNeOaH7chJtSMrwcxIxfuq3dhyoBYNLgVzjx+IKw9Jgsct49VV5fhuWxX6JVuYWXtPtRt/7K2EWRIwJC0OIzLjYDKJKK91YFNhPapcbuQm2jAoIw5Wk4R9ZQ0YkGaDTVKw9UA9NhyoQ7xZwqS+CchKsMDtBhweGSv3V6GwRgsxHAECD2MTvIRutnz51lJJUHDiqGzE2y34cm0enGQZ8rqSmiOohvFFjKojQgIhBwjMlGkScdIRKaiocWPpumpVsdF41nnT2E5cRq9EM979RzyOHlsDyG78tiYJT7/uwO1XxGPiqEY890ESHnytiCl20SRAMnFF6XQpcHl4+GZakCQTBxsOhweSKLCFifI6NLo9kMjWLQmwSRLcgsJ29GZJQqPLA4XKEGXYTCJkiwCPywPZKbCjmGS1EEwCrGYRggdoUDyQXaTZVaBCpzTSJLx2SxqmT6iDbBfx4+oE1JQ7cMwUJ1LsDWisicNVj9nx6S9lgGSB1eyCSQCIO0bscrL9KYIJIrXBAtitIh78mxVXzKxnIOOLZXH4yz018AhkIhZgMUlQZBkOlwluhTzAvuDI4bYgMJwjCLhoRjr2Fzrwy5oayMwfY1gSunc1EJBsM+HGE0di/jebcMDpYUGTAy+KjZBqMaPeo+DsUel4cmYfWEUBxW4LzntnO/JLqzAgxYabThqGiTkibILM3Hy1kPDJulI893Mhrp6aiysPSYbgFvDBxjKM6JOCCb1MqFOAH4uAOW+swoxxmbjn2H6QBBn7qzwYlWLBqoJGbCptwMxRqUi1y5BlD+oaRWTEibDAhT21Jpzz+gacOJKezUa8yYMKN+2ZTfh4fQnu/2Y3GpghsgenImoylfTsBBHpVgXXHTcULyzaidJ6AlTqRom5Q4OQhrt3UBqlR4EEwgIQUuLNOH9GH/y4rBi78uqZQqdjVkybqxft7OnPoblx+PQRC4b0rmCktr0FCXjzK6C8UkDfAWZ885sTG3c0YsoEC46fQimhrUypb95ZiwWLnEhKsOLco03IyjDDYrHi2feqcMJkEwb1liAqcXj7hxpU1zbi2EkyhvVNRmWtiJq6Bkao++a3Ovywog4nHmHB9PF22JLsKCltwMLlLny1uA4j+0g4/VgrBvZNZSbVbftq8PHPLmzfS4FJAFEUccEJVrxwgwCLxYGiijSc9Pca7C1qxMxjEvDU3y2QHSJueRlYv7kaM6facMgIOwubWlBai++Xu/DdHw2w2AScOtmKYw9JgMVmQ05SFQ4bVc0AwpfL4nHRfbUYP8yGvxxtQ05WKhyuRqzZVoOPfq3H/gNuCB7NMhJmRayuVxSCeVRuMt77YT8aGimqJe1njau7JMCsAxmJOHpEFt5ZvBOUQottLpvoUp5Flex5l0zsjcdOzmGgs9QtYdbbO7CvpArzThmMs0bbUe0U8ePWakwbGIesBAXVMOOeL/ZjXG87/nZwKsyiBbtqHUi3eRAvmTF/eRWe/m0PREnCmxeOxGG9JKwpdmLpnhpcPDENimLD19srcHC/OAxJFuDxKFiytw4je8ejV5wAyWPBOe9sxOnj++Ki8QlodAM/bDoAsz0Jaw404OXfdqPO6fFF+gzzUO+uvmyxXD+AoK2lXBAEpSjZ00VHDMLyXSXYVFzD1ii2KfMSp3owuApLh0V+pSEHCDRsc1LMuGpWP7ywYD8OVDiCb2VUUl+veBPefSgZR42tZilo3bTNUSTUN1qxfKsN9zxfh/H9zbjvWhFpKfUor7AgLdkNQfTgj80JeGkBMPevbgzJdUCGHbNuc+Hma9MweXAJHA0i3v4mGSYTMHtmKQSJDPwCzB4P2+n+vi0R1RUmTJtQC5MIHKi2IDOtHtXOZDz+soDZp7kxILMR734fj+QUB2Ye6cS3v8Xj6serUFVPeEfEg1en4tazKpifIq80DVOvLEdRlRtmUcJxB6dCipOwdXc5Xrw1AUcMr0NNHYUqtiA1sRHFNXF46GUZCSnAXRd5kBDnxJpd8XA1ijh8dAUxNvHlcjueeNuFBf9IhNXswDtfWnHwQTUYM1jCy1/bce9L5XA6wn2MTdvJkBtFwZA+8bjg+Cw899E+VNaQc8R/P+tdpvzXuMifTRHaQkEwYWr/JFjMEn7aWQpZdb35h7fWHGwSC8p96SE5eOzkTIiCGVUOYNbbu1FW24D/nD8CB2UKKGoU8MSi/Th5YDyOGZ4ENwT86/dKpFk9uGRCGiTFpCprFggYW2oEXPTGOthEE766fCzSLDIqHG7sqBLY3KprEPHF1lKcfVAyDsk2ocYB3PbZLpx9aCamD0qAySPiyo92ISczETdPzkCi3Q7Z7cTWkkbc990+rNhXCfLS+XKOaJ1hKD2SBE0l4gBNGZIOUZbx664KTh7VCNUGSzFCZ294mxUWgNC3lxk3zc7CPS/ko1ZVXn5iUDmKkgJkpZhxyWnpmHFYI4ZmeZCSWg9J4grF7bHg2yVJyM1wYPzIBlTXmDH3VQV/O8WEccMaUF9nxQ1PCbjgWBemHeqGItpw3BVOnH9qIq48sw4NDQpe+SQJ366owidPWmAyN6KszIZ9+yTEx4nIK1EwcYQHGSmN2LwrEfe96sS86+KQaJOxYYcbRx/mgOBy48dV8TDHm3BQfyd2FNox+4FK7C8UIEoC7pqdjHsvqAGkRtQ22nHJgzL+t4xbGOwWERlpEqYfKuDp6zjX4b/fmVFWKeDv57kgSQp+WxuPjCw3RvVugCxLuPKfIlKTRTw6pxGiLOB/K+Owuwj4v9PqUOMy4aeVSeif5UCfDBGLt1hw/VNVKCh1MnmFz8WgntLgrUCvRAF3XJmNh18rRlklPzSnv/wAQk/cCXbxmmASRJw0KgsF5XVYU0Q7R8674b2hOXg0ipvEAlvdeFRv3DElHrJgQYXLjis+3INNxZX417kjcHyuB07FhE+3VCHVFodjBltR6VLwzx+KcFi/OMwanQpJEVDaAFitEuIlF5wS8MXaKry5rBjPnDMKgxLd2FbVgCcWFkIWRAzNSMTm4lrcfGwWxqWbUOsQcMeXezHr0Gwc3dcKt2DCvO/zcfjQDCQILqTYzRidaYYME77a2oDbvtqE8kai2jU7mrpYqtFTnAbPaW81IjMRQzPj8NWmErhk2QAI0dONYWlpyE8x0GDtn2XBbZdl4YbH8uAMBvA1gCAAJxxkw6sP2vHB9zJWbDTjrGn1OGWaE5LohiKL2LEvCSkpDmSmNaK+wYybnhEw43C6rxFOt4g7/iXh5MnA0Uc4oIgWnHClG+fOsOOqM+vR2Chi/sdJ+Hp5Fb580g47GrHxTzsuf7gR2/NlHDPRjBdvlZCRWo/dpQm4/IFGpCUlITPNjKyEEtxzpQyXW8S3S3rhi+Ui7HYJlTVufLqoCBS0jCbkOVPj8PKtVsTFVcGjyFi8PRHzXm1EdY2EyaOBS09Pw5qthbj0RAGKW8Q3v9vw6W8iHrleQXpcPTbtikNmLzcyUxvg8pgw+w4FfXMtePRaSsIi4rtVcaitBmZNr0aN244Fv6Vi8RoFyTYrdhfW49sVxYzPwLPxhVPbalHeFMSZgUdv7Y2HXipGcblH5V77xn84WxmWWdjNldolEWdOGoAVO4qxs4Jcev5qVDtgTBx4Co995LBMPHBCH4zoxYm/LsWM7/5swE0fr8OpYzNw9/TeSLJKcMgyrIodVU4XPtlQgV92VmLuSQMxPE2A7PFgR4kb+2rcOGpwAmySGy6PDT/vbcCBqnqcNjaBEXgdMEFRRGwpcmBlfhUuODgFaRKdrpSwYF0ppg5LRv94coqYsaFIAmQH+meIKG8Q0DvRBIfHhHdXV+OxRdtQTcf3mnBajNGkQSaagf1T7Zg6NAMLVuejnuSloQfDgtDNszA6iw95HAQSU78sC+68PBvX/WNfULKUtr0hE/2EAVZ8OM8Ki9WDr36TUV8nYc6FDgiKG9X1Vrz2qQ1DcoGTp9UzH9uSNRakJykYMciFNX/G4+Yn6nDlOeSfr4PZLODtL+2YOE7E6P7VcDSaseCnJKz6sx6PXOeCRfFgb7Edf3/GhR9XyuibZcLzNyZi2sFVLGbBxt025JcAcbY0vPV1GeZd40ZGghvb9sfj66XAwBwBO4ok/PPNcjhcfJeWnSzhgb+m4PTpjUhM4Dv5okoRDY025CQq2FZgweufVOKhqy1Ij3djf7kV63eJOHJiAxz1Vjz7gQn9smRcfJIbZpsDi5ZbYLWJmDrKCZcoY/WuBHz1k4BbL/TAbnVg7W4rFv4hYEQfCb+ul/D8p/rz7pExSM2igBfv7oe5LxSgsJyyaXpP1UdGA2OsFXFmE/5yxHAsXL8XeVV1voikAbqTFAgRZMf3TcXRA5ORnGBjkqB9eUF5Ld5bXcj0ybT+SRjXNxU2ixXVtR5sKK7Aiv2VSLPZcPa4XMTFUY96cKCiHou2VOCUCb2RbqfYHQJKa534dnMhRucmYlhWAiySiOKKWvy+qwrxcVYcPTQddrMZLg+wpagM2SlxyE6wUnJQFNY6sb+0GpP6p8AtWRjQ2X+gEj9uq8De2kZvemqD9NrcABaRm2THSWP748MV21FDuzOvi8EInhRj075LXicsAKF/lg13X5mDOQ/tDoi0psJZWg2Y/dOEBLOIa8624rzpFgzIcSAu3ow6h4KthRI+/dmFt7+oQ06aiLuvjMP08QoS6FhWlQdLtpjwwoJGrNzSiJmHJ2LelRJys50oKDShvhEYNtiDqhoRm3bTkSonJoxwsfgCTqcF3y01Yc4TxCNwY8ooC2661I4pYxphM4soKAX+u9CKJ94vxexT4nDFKRYM7i2j1mXC1m0Snv6oAV8sq4NHfQVREZAer+CqM9Nw2nQBQ3MdsMgy8ist+GWNjPe+d2P9TgeunZWMC4+TkZ3jgqvRjV2FZnzwnYS3vq1FVqqA+y9Nw1GTXPCYgeJiBUNyJdS6a7C7KAX3PNeAkybZMes4J3r1cqCqyoK1m8144r/1+HVjPTuKxo9vRsZuyiyKeOneAbj72TwUVRgAoUtmcguFxFnMuGjKaHy9egfyqylmhjoOmgAECRaBwo6ZIIAH4dLz4F3sGK4CiYJeqdYoN0S4BTq2y11FLJIfBQAT1KO/igmijoRKVfKjzGZI4ICZaqRTONyCwc/38mBpPLKj1ga3wPkRLP25mt6YppmLTh6p8UfI7UbPNTVMsjBr3S3qCC6fS5HSe586cRg++H0jqigWhh8HoSfLJ4K7LoxNCwtAGJBtx91XZOOah3YzC4Jm4tTiHwhaHAFFYmFb7RYZ/TPNSE8GRDNY5rmSamBvIZktue8+p5eEvhkibJKAeoeMPQdklFTxOAYJZmBYfxPi4xRUVYEdgczMEOBoBMqrRZhMHvRKMUGUZMgeAWWVCnbky3B7PLCIQE6GhNwMgUUCrK5TsC3fzUCK3SxgSK4ZaYkCnG6F7Yb3l6htUuMQKGrQJ7tFQN8sCZnJFIpWRkW9gL0FHlQ18vdPsgODsiUkJipwe2SUVwnYVyyj3kWxFARG7OyfJVCMKdTUKEhLFuDwuFBZa8KuAjdsooihfQQkxstocArIL1FQWOGBR43RwJdbX5R2r6s2DJiBLAjz7x2Au57dj6IKcjH4L0zGMtW1K0K8xYzzVYBQqAIE7xRTqyLFPGlgNq4+PAfJVjryxkcL3cdViwIPKX32l8hjlJAiFgCPGjWURTb1mv94HBIKY+ZhI16d3QQEaOMqSFBEl1oeAQKCB1SyupPV5g+PEMYAhxYs1SMSIKGaCAiI2F6p4PmfdyKfmMFhdaN1bb91fWkisgggTBqOj5Zu0AEEfpzauAwJBEog5ACBpvuALBUgzOMWhKYAgasz2qlkp9swfliiFqiYMaNlgZYFvlQFborZwidwVyTLb8YGvhrEyLsYUhAmbWdCoZpVg4U3TBLj/DLFRUsefc/+sTL5gsX9etqTqpdPrZwWMrIc8Es9YqjxKmg3z3ZptJaJ8IhqQCiVgU2hpL3hnXSRmbUaNcY/W74Zr4BnTCRSGD+DQQs5+Y5FVNQDG3dWo7ZWJSl646x5wzSGZUYwgDC3P+76FwEE6ksDIHRnRySoAOGr1TtQVM2VKB/F2rjn/JAJ/TJxySF9kWAl5ctnpp7yp41MUuZEIGaBycgFoR6n90U751YADiUIIFBgMTW6p6CwscrsBSKdfdDCq/N5SGOYWRKYzqLRrIYpExRmtaAWuUQCKCw0GLMnUACmV3/dhQJC28Gdlt0p3igqW2AAYeakEVjAAIKaKYMvRlH0HkZTQyWBMAEEG+4hC8K8PU0iurHlQl2VCCCceFgCHrshHnZJVaoMIGjKnRPv/IY2wwMUxIh+cIDg3S2pmSL1ix43mvovlxx30CKk1qkpeaqXmVn5bkg7LubtLB76Ud1daVkY1EVYrZRMoCwKI6tEYqBDWxCpVAI/bDHVCqWFkulPnhsRsrAAACAASURBVJSKuBDaxT/msda5aVUGWV8IIHgEMzbvTcA9z5Vg265qnfWAWxHCeQUDCPoWhbd14ZRM99SdaDHjvCmjoQEENo6aRPcW2DHIZKuZ2wD0k4Q1ywfjNTuCFqmUuwM0AKDOD6bcCeTz8cjyOah5SpilgVnWVHeBmn9FszKw+tVBwGcgL5xbKGhsi2B+M7VdTkVBTYMLPMWAYX9qaRQRQDhl0kgGEGocPP4Iy38T5jWhe0a+UWpnJRAmgGDF3VdmYc5D+4IABM64p4v2xuQ6OGQU+Su9S4X3nVmIZrbQ+VSKZkHgmQJFiDIlN1JzPIi+5YM9QYqYmTt1YlR9mXzHQ2ZNnaLX1ir1Jws0on+UbaF8AMJrRNDdQ+ZVAi/s/WTafdHCqYEYvs3i76O2WcupoLkIVN8uW+DZvTy0DUvOxNpFk51flfUS1m5zoqqWLwSRsnQGAwiR0rbOTqhIfD4YQFB1a+vNDQAKfNzxMUsXt2SpxaiTgQNobn9jbgCm0LkrkIMADh0o1yO3JfAymIWOWSaIa8CZBNxWyC1eBNgJIMiCxCP/GUqt9f4LuEMPEGp1AMHIxdBuUfaIB8IEECwqQGgaE56pOA0gMD1JpCeJZS705TigtUFzH2hGfB9M8NkDfCuXV5EHLGZ8q6R9q/vS7z79PZpP1t8OoXpkg2y9/PfDtN+nZY8vjGRQVdvNTQp80HkXSvUPv/Pqqg/FOzx5gle+jPJ2EuGLZEWhpKlIXoM/cYsblQlMhF41GwAhtGtLlwEEXQIxzhhoI0BQeQn+AIH+4pY0Og5Mo5CDcu4eCwQIHApzC4LP4mfYmto7kpoDCJortb3lGffHtgQiEiDocznyBYEvJv4XYxh4Ted6E6hP1QaYBvQFNIcF1HtaeNLnN9Upaf+2BS5c3PwfaLfl7o1ABc1r5rswvtfyldb8gujfXo4weDY3DR5EzkA2OAih7YsmAKGZOAi8VS0r3WbgtD/O1r2e5khoWq7vVIG3TPUXnrZYG/k+WMEBAnf/RY49LLR92dnaggEEsghpfBLNstqGodDZphjPR4EEwgQQrLj7iizMmUcuBn9fPclM252orvdm16zA9Kb+axtXsb4rQBHrAIIGSPSUw0CAoF82tZL9S9Q+5UsYv5qDGU3MGAFLqgYQ+L4/1vZJBkAI7coQCBA0kqIGB/SHGVWbQAga6G+Va0uFvifa/2xbyu8J9wQDCHp019qa2xNkZLyjTwJhBAjZmDNvrwoQtAmv4xJoaraVtcA/vWmwrm1GGbekowPUe9sVdHONDfZ5Sy/ma1wsLoUGQAjtEtSVFoTQttyorasl0JKLgeoyAEJXSzy6ywsTQLCxOAhz2CkGzYKgU8Nt1Yptva8l3NBa/wVDB20AF60V25O/NzgIoe39ZjkImgkhtM0xagujBJpzMYQ3DHsYBWJU3aIEwgQQeByEOfN2q6cYAjS97s/g5nzdFt+POd0Oz6Te+t+SiNoAEPyz4nXhiAuQQ6ys5wZA6MIx0oaiOkVSbEP5xi3RIwHjFEP09FUktDRCAIImiuBb884YCiJByEYb/CVgxEEI7YhoycXgJaUFnlUMbRON2kIkgaAcBF0iN994CFGDjGoiWgJhAgjkYsjRWRD0AKEpHyGiJWg0rt0SMDgI7RZZpx5ojqSoGcf4z26zg3Wq7cbDXSuB5gCCFknR4CB0rbyjvbQwAQQ6xUAAITCSYrCTANEuYqP9gRIwAEJox0TbSIoGQAhtr4SntpZOMXjPXxkm2/B0TgTWGkaAoB1zbO3kdQRKzWhSpyRgcBA6Jb52P2xwENotsph9wCApxmzXdsuLhQkgtBxJsVve1Cg0YiRgAITQdkVPAwidC6PUuadD27Ptr80gKbZfZj35CQMg9OTeD9O7GyTF0Aq+rcmaoteW5x83pDkLeevxTGLfxdmci8GXQza0Y9OoLbIlECaAoE/W1DSSYvQuVJHd2ZHSus5wELQ8Hfp3EUURsiyzzJ76i2XeVPN60PedubSyWPbQNqTGpTbR1db7O9O21p5tnaTYXMTP1kqOlO85f0LL0tBcq1oeARo4YL3WasjpSHnz9rbDICm2V2I9+/7wAQQWByEwkqI2OXt2p8T623cGICQnJ+PEE09EVlaWV0wejweffvopioqKGCDQFLjFYsH555+PSZMm4ZFHHsH+/fubAAi9stee1YMQ+p7+7tWrFy6++GKsWL4Ci5cs9tah3avdp1VwwQUXIDExEfPnz2f3Bpat1RusrrYAkPaMkWAkRY2SyGdc9O2cbbZ4DB46CCZRQGnJAUCyIrNXGupra1BeWYVemVmwmk1orKvF7j174PIAw0eNgEUSUVRUjMzMLFRWlCK/oIiBS35FnxzaMw7oXiOSYnsl1rPvDxNAaCWSYs/uk5h/+85wEAYOHIjXX38dBQUFmDZtGlasWMEAwDnnnINVq1Zh9OjRTDFv3boVlZWVmDJlCm6//XbMmzePydXtdrPvampqMGjQIOTk5DBgsWvXLmRmZmLYsGFwOBwwm83Ys2cP8vPzYbfbcdhhh7F6Fi9ejD/++IMp/dzcXFaGFu6b7t27dy/GjRuHI444Ak6nE//5z3/YvUOGDGEgQ1NG1IaqqioQiKHvUlJS4HK5YLPZsG3bNpSUlLTJUtGWwRJ7HAQBvfsNxrMvPItxIwbjqYfugSV3OO68/lp8tuADfLnoN5xx5lnonZGOXskJuPmG67Fiww68+Np/cOLUQ7Fs6WL07zcMG1f9gRtuux1VtXVtEWNM3GOQFGOiG0P2EmEECFochCChlkP2+kZF4ZBAZwBC37598egjj+LDjz7Eww8/zCwDl1xyCe6++26cccYZGDp0KOpq6yBJEp548gkUFxfjqaeeYkqXLA8rV67Ev//9b0yYMAFnnXUWamtrkZ6ejg8++AB5eXl49tlnUVhQyKwNNrsNN9xwA8hdcMcdd+DgCQfjjTffYEqfLrIoXHbZZairq0PfPn3x3PPP4c0332SA5LBDD2O5B6lNdP3tb3/D9ddfz8AJAYb169fjmWeeYWWcdNJJaGhoYOCkvLwc999/P5YsWaLb2Xaul2IPIAAmsw2jD5qIBx64Gx+/+i8kDZmIc06egltuvgMHKhtw6KGHoFcmt/p88PZ8zJ//DkYffCTef+dV/PLdf/HqqwvgdjRi4/ZtcLndnRNwFD3dHAch9lLCRVGnRHBTwwQQAkMtaxIykhxE8FjpsqZ1hqRotVrRr18/JCQk4L333sOcOXNQWloKAg5kzj/77LPZLp6UrCiI+OfD/2Sfjxo1Cu+++y6efvppJCUl4f3338fOnTvx448/4vjjj8fkIybj4IkHMyvEc889h3feeQdvvPEG+/2bb74BuTYIPKxevZopdlLyI0eOxPDhwzFr1iyYTCbcdNNNzLJBVoELL7wQV155JbNgkNWA7iM3CH0WFxeHq666Cg899BAeeOABVteyZcvw6KOPettOgKGrrrbFQYiWw+/qGiEAJsmKm+6diyMnDoZHtuCnrz7GWwu+w7XX34L+OSlYu24Tzr3oInz+4Zv494uvoFfvofjflwtw9cWnYs36PXDJHq+VpnUCY1f1RnjLaVMkxfA20ag9giQQgQDBiKQYQeOjW5rSGQ4CNYh29KRwP/nkE6Zwly5dypT8q6++ipNPPpm5Be6bex/S0tIw9765TLFnZGQwlwEpZTLlf/jhh1i3bh0WLlzIXAt9+vTBvffeiw0bNjClTWW//fbbeOutt9jvpNRfeOEF9gyVR0o/Ozsbt9xyC3NT0H1krSDLAH1HO1cCLwQQCEyQK4LqJG4CtevWW29lgODOO+/Ea6+9xtwWZOkgcEP1k5ujq67WSYpMqmp1nSNzdlWbmy+Ht5PsjpIg4KAjjsarb72K4q0rcfXl16DaY8Y/H30CA7LSUFxfxyxF+ds24fEnn8a5F1yK00+dgV9++BR78grwwgsvIX9/cQxTEptKsTkXg6ASb41Iit0/gqOphjABBD0HQX9mocXUTNEkV6OtLUigswBhzJgx+Mc//oHp06djy5YtzFpAO3Da8Q8ePJiZ6WnHf/NNN2PqtKnMqjB37lz83//9H+MBkKIn5X7uuecyX398fDxzSZC74uWXX8Yvv/yCV155BS+99BJWrVyFL778gpEdmfuiro7VScr8qKOOAk0gUuoEApYvX44XX3yRtYe4EsRRoM/IckD13nzzzcyCkZqaivPOOw/PP/884x6cdtppqK6uZhYJatt9993XrQCBkSZ1/cN3z1FivWP7Bx6rQBIAs9WOoaPHw1Vfiu3bdjLCZXafgRjYtzc8igduj4x4iwn78vLQt19/1s+CIsPlcmDDho2orq5lAKGnXAZJsaf0dNe8Z5gAAoVaNiIpdk0XRl8pneEg0NvSDvzwww9nu3rarROvgDgDpHgnTpzIFP7mzZuZ4iYwQTt8AhCk4Ol3+o7uJzIhnYZobGxkHAU6DUE7TiI37tixgxETSXGTRYKUt3bigMz/5GqgZ4lgqJ062LdvHyM7ktWASI50UZnbt28HuUbIikDf03fkJiE+QmFhIWsHWTGIE0EWiscee4xZObrqCspBiFatqEc26hFWIolSLgHaBLOvBRMDENpxRQYnBIBu16CRoACyIve4E9UGSbGrZlXPKCdMAMGIpNgzhlfwt+wsQGA6QBfjgP4OPDbY0lFB/ZFD7b7AY4rBWq4/0tjW/gs8xhj4HBETyapA4IUucpn8/PPPXXaCgcqMKZJiMIDgBTu+WAaayVxLAM+MDt4jnbpekP2RUqxnpDAiKbZ15hr3kQQMgGCMg5BLoDMkxZA3tpsrJGsHHc2knwcOHGDWBrdqPfDTe53Y8TcXSZErTO2KEheDrrnMctDkChbwSDUteFNa+x5iEQRVIcR+FITgcRDItOIFygx9x2ycqG6ezbFXvAEQYq9PI/6NOstBiPgX7GQD/eiCXaC3WyUpMoXQBRV18r3b+3iwqJq+YEdaaTJA/gSGhpoCCi3EMN2il0An8Fh7XyOk9xskxZCKO+orCxNAIA5Cc5EU/fc1US9h4wWaSMAACFwkkigip1cayisr0eCis/iqilJJhF3FKG/9mGP07Z0514DHUOGWhECVrodZ2nc+gOC7WwMPPSGOYsuRFI10z8ZiHSiBMAIECpS0By52YMkABT1paHYFByEW5BVnlnDjSeNQWFqCBasKUOPsnpQ5McVBUDue0RBFEaJkgsCOaHogy26wqMmCAImIiqKo5mdQ4PbQgx6YJHZAEjJkeGSXRlFQLQyxMKpafgeDpBj7fdyVbxgmgEDHHI1Iil3ZkdFUlgEQeG/FmyXcP3MIThpsxrO/luL9tSWoc8pQyN6t2xB31iUciwCBQEFyrxxcfvXlGD1oIBwNVfj4g/fxy+8rMWDICFwy+2L0zc1l0SzNFgXzX/g3BEsSLj7vLEgmAZs2rMR/Xv8AZZXVTa0PsepfaCYXA9lOYjWSYvQ5ziJrJQ8TQAiMpNjZJTCyhGq0pmUJNEdSjOF1OahAyILw4MyhmD3agkqnGY/8VIhP1h9AjdMNj5rhgVnSO5lfMKaOOWqSFExISEzHUdOnIjM1CcecejrinJW4696Hcct9DyBeqcPy9Ttw2WWXoKFmE+6Z9xZefP5ZLP3uc+zYX4K/XjYbr774BB5/5hUWK8HviuGB2NNCLcf6qZTu1jURAhC8s74LlsPuFplRfmclYHAQfBaEf54yAhePtjFT+IEGCU8szsd/1xSj1sXP8QfS6ryqrB2YOhhJUd+HwcImdbaPu/t5QbQit98QzL70ImSnxGPAyFEwN1bi8WffwJ1z78Yjd12PJau34YGHH8HQftX4dGEBHr/3Tnz71ReoqKnB8DEHYeXvC/HwP59EQ6Ozu5sbMeXHfrpnH59G1DmvYxjzdevYChNA0LsYNGtqsONJ3fruMVE4ZRrUn8+nDIIUnCeSr44ChDizyMzywQ63RfL7Ntc2u1nE3ccPxdkjrJxqpyg44DHhiYV78cG6MjQ4Xd5wP1oZHVnomjvFQGVyYlr0kRSttkTMvvz/cOGZ0/H6G2/jyJNmYlT/LMx76DGcdeElqC/ajSVrN+Kq665GzYHFeOS5X/DsU/Pw2etvYP2fe9F/wGD8uW0tFv70C1ycoNAjrtiPpOgbyxq7rbMWuB4xMJp5yTABBCvuvjILcx7aB4oX15FFryd3mvbuFDb2wQcfZBEF6aLMhBTvn/IJRPLVEQ6CKACzJuTgikMzIVHUvBhACUS0651oQbpVhizQO9FPoKTBhGd+LcB7q4rR6OLExc74iGPPxSBAlMwYNnIMLr/iMsRZzahvbERudhY++eBtbNpTggvOPx9ZvRIxYsxIlO5dissufxiTj5qOs0+dCTedEnE68enHH+DHX36FW+6MdCN5pjVtW3SSFGmy8/DaHM7yya+nt2tWMO/ZFcbjaYeZLbq6MWStDRNA6P5IiomJiSyNLwUAodj8lMGPQtxS6Fz6jL6nnXdNTQ0qKipgs9lYvHy328124PQ3PUdKN/Ci5yiGPpVJF5VJ4Xm1z6lsNoAFgYXxLSsrY22hMikJD8X/pzpaivbXlhFAAOHXX39l/+g9zjzzTJb8hzIU0kXAgXIS0Ht0ZfKftrStpXs6AhAo7v41U3Jxz9GZMCsKZG0l6GxjwvS8du5eECg3AL0PKSkiKIKx8atdZjy2qBT/XVPEiIsEIDpKXIw9kiJXESIdc6STCizSMqkIkpEIk92Oo46Zjtxe2Th91ulY/9sX+MeTr8PpdkPQTjbQrTKFW+bWg56ySYk+DgLFyKYDKSaIJjP7KVA+DTq7ItEiwMGCTJsGys7pcQMeN1vHWShtLRWXmoyqPdPdIDjGcCTFY489lilLSZRw/wP345prrmHhbJ988kmWDfCEE05ASnIKCgoLWPY8Sh9Mu3GKiU8R7SjO/ptvvsmy9AUqcnr+L3/5C2bMmMEUMMX1pwQ7pJDvuusuFmefAASV+dlnn7FcAbNnz2b1Ukx+SgL0v//9j+UR0F8EYCiOPyUc0geBoTwBixcvbnI/3UNZCAmA0Ls9/vjjLKkQ/U3XkUceyUJlUpZCivEfKVd7IylyZUAAoTfunp4FCwu6H/0mBG0fRD/p2B2dXiA1JwsemBQTDtSLeGFpEd5cXogGtwy9Ibw9ZtPmIin6K8Xo223xFqvjgP1Bf4mwJ6bi0r/ORp/sDNRWluCtN99D/oEDfvOY52/gku8p4IDmf3MAoXsO2La+4vhyc1Jf0rymo6kCBLMZtuQ0xCVlwZ6cDntqJuIT02FPSIWYkAhJMrO06qIgsVHgbGyA0+GEs7EKDVVlqC4thau6GA2VxagrL4LbUc8AuD8U1Lu1+fjhVzSyclqXdUfuiFkLAinoCy+8kCXAuemmm1j2v7y8PJZpj1L/kkKljH6Udvfqq67Gb4t/w9/+9jemTOfPn8/SABNQoIQ6wQDCiBEjQHH0e/fujcsvv5yVQ0l3pk6dyjL9TZs2jWUPJAHT95Tw5+uvv8bpp5/O6iaAQpYE/UV8gosuughHH300AwhavQt/XIi33n6r2QQ+NFGuvvpqlgyI3lUDHgRyRo0axcABWREi5WoPB0GbwgQQrlYBgpVHx4m5i1kJGBeBB/+hn+VO4JmlhXhzWQlqXR4v7aozAIErUt9SyS2x0cb3DuQs6e0A+sGh/U4RFfmQ0eSrnQ8hxdRTQEKkRVJkvShQPAszLHFJsKf3RnrfYUjJHYD4zP5ITu0Ha0IKRIudIosxAChKkrpB8A93RWum2+1iFjgPWRAcdXCW5aG8cDdK9/2JyrxtqCnbB2d9NWSPlgxNN1YYIYezcgyCI58rYQII+myOZBgM3L10frpqu2uyAvy+9HecetqpuOSSS1iqXkqOQy4Byph32WWXYc6cOWxHT+l/ydJAQGHnzp3NKiCyGjz66KOoKK+A0+Vk6YRvv/12Bg7IjUC/kwWDUv/ecsstmHvvXKxes5ql/iULAlkSKDVxoNImCwSBihNPPNHPgvDVV1/h2WefBREQg13k6vjiiy9Y+uCPP/7YL3FRZ90Y3aGFDYDQmlS9mYUAuJHvFPHvJQfwzvIi1Lk8bB+kV4etlRYskqIGB3z7JT/I0FqREfC9trBrvulAiWgAwrcr1C8zDIAxp0RPggctR1IkCXZV9M62DRABosWKXgNGIGPoBGQNHIOUnEEwJaRAMiUAYhzDrWa4WV/JjIfgA7Z6GOg73aN4jYtMs8gUEEuGx+lAY2UxKvdvQ9HWVSjYugK1FQVQZIpgqhWqxpJkAN1nRfBGmGzbS8XUXWEECN0fSZFM9qSgaXdNivPuu+9mZv+ffvoJv//+O3Mn0E7/P//5D3Mn3HPPPTjkkEPw+eefY82aNfj000+Zbz/wIgvA5599jj/++ANp6WnsGXqe3AC0gydwoVkYzjnnHMw6ZxbGjx/PQAJZLcg/Ru3SWxAI0BCnYMCAASydsd7FQPft2bOHKf5AhU/3Uf2vvPIKAyoasCGgQkCHwMNzzz0XlEsRrpHcWRdDrFoQfP2hGV658nNDRlGjhAd/LMHna/fBBxP9eQnN9WfskRTbMnL9MlrwB/QapfN7kLY0IuLuae6Yo1+ypm5ttQDJZIYtJQ29Bo1Dn7HTkdZ3CBJ65UI0x0EQJVCCTUURmGWBHEAU95JsBxotkYMBDu80mCdr6I9Z4TgXhXc4h8LMIkBkVNkBZ10FKgp3oWDrH8jfuBi1hfmQXY1QoFroos/b1m09FiaAEHjMsXt6hJQnKeQjjjgCK1asYFwB2r3T3zk5OUxpkgKtqqrCpk2bMHnyZJhMJmZZIPfCsmXL0NDQ0ET4dA/dm52VjeqaakZ4pDLofjLpk5Knf+RaIOIguRcmTZrEeAlk/qd2rFq1ys8iEDzxTNN+D2YRoHcZO3YsFi1axNqukSXJykGWBXJtBPIdum1EtaHgjpMUOQehpwAEtrFRFLhlYHOVgls+34V1+dVwa4qOzKFtUHSxR1JsbZBpAuIcA+8VzC3VBvm1Vls0fR8+kqIAQTTDltobgw8+Cr3HTUFyTn+Y4tMhilYIxEJW3T/aRsi3JgqckEpkXsbR4QBBJBChPsPdc7T11wMEDWhr+bropBCBAAIKAtyN1ag+sB37f/8ZO1Z8B2d9GRRFsygYaJKkHCaA0FIkxe4BC6GYxDSgzzjjDEyfPh1DhgzBvn37GKchkGsQrC1tAQjtcRfQiYxjjjmGAQQ6SRFJV1dYEGKAo8i6pGkoJN9Wl77zyAo2lLpxx9e7sCa/lu1xvM90BiA0UYzRNu8EiERM0V3sL9oosndjSRn82QUGQGiRpNj1WElV+qIEW3Imeo89Gv0nTkd63+Ew25MY74Dt7QXNgaDaAdi45oRFtUu9cUXZkV92sIE4Otx+QPfSEWEOENQBwYg1/B8HERw4MCKwoEBQRIYlFMUJd20Niv9ch82/LUDJtt8hu10BmT+bk0zXSyyS1ukIAgiaWLRODQh9GmlSa6Y9pOTJckDkQDrGuGvXLsYzaI9i76pXpbbQv0iyHGjv1lkOgk23DnSVvMJVjqwugsHq9yjA7hoRV3+0DeuKauAJPKrVxvUpFtM9JySl4Pr75mH6pDEwqWhRkWV8++VHePyplwF2fJHz1rn1Wc9VCFdvh7/eUJIUSTVLFgtyDzoKA6fMQmqf4bDGJUEyUQQQPYdEBXTq7p8sA5o7wQsIAnW/SuTl5WjgQIt9oEeCvoRdDCLoLAyatmG1u12or8jH7sUfYcOiT+Bx1PHOUvkIGlDx78HYZyeEyYLQXCRF72yO2pPJgZaAcICD8C9DLbegowDhqim5zMVgV1n4kf6erbePzKXeLY+fk5x2VZtLPbjxy91YXUisax1obiMw0OpvjqSoLXq+SIq+T1pve3jvsNsTcfKZ52LC6EHsCCxrueLBsiW/4utvFgXEN4jujUdXSjo0kRSJT2VCau9BGHHkqciZMB2mlBwIgoXt+v0vXd+owY30M6LlA0v6fm3+Tn2NzD2hcGZCk5bIMhrrKrF/1Y/Y9MPrqC4rAoFOokcaAKHto1BQOqD16NRAamoq65QBWXSKIRtz5u01Iim2Xe4xc2eHOQiT+2DuUTmwMljP46jReqPXl6L6B/3UjOY0vdnCoFsRvIGK1PvYPoSCFKllasL23uc9Htf6fVobtLK4z5Rf3Nzp+0nfeQSnyrw2qXEQJOTXSbjgrXXYWlrPgsD4TKe8HBFE4GqbpS0WOQhJyWl4+D/v4KyjDwcZqln/yU68/daLuPXWecw1Y1xNJdCdkRQpIgHbr1sS0WfiNIw57jwk9B7LXAnUQRwcRMauO2A58AqKOTncDpRtXYY/PnoClQfyAO+RyOgB0F019sNkQej+SIpdJSCjnK6XQEcAAiH+Iwak4ZjBKZyRrAKEYIpfU9CaXm4CEHQKWr9QaOZM/SaHKXMdiNCWCC+QUCtp8T591EfavajlWUQBUwclYVSGAEmhQEkSFEHE+gMu3Pq/XViVXwuFKTp/gKB5VlWvaqsdFIsAgZ2dF83E0vCmx/aqHw8LO+UnF+27VoUV4zc0d4qBgdBOXqIoIS6tN4Yfcz4GHjoDpuRUyIIJZg/FLaD/ab2iq4u4A16+AIfQ3A2gEQt9QL9J8xjvQAt4pcHvpu/BPmEAxVdCIEDQeD1aRAzBI6Ng089Y/dlzqCrYxSwJ/NIO5XdeXp0Ud0geNwBCSMRsVKKXQEcAAtfD6sl1zaSsIQC9rVCdt/rFgE3rpiuC3yKktc/vPv2CErAeNFuehiC05aS5egHEUy6NmcNw0Zh4WD0euEUReY0mXPLuFmw4UAcWO1ELn+gFIlokem5SbQtIiEWAwDvPxLkGWmdrAaaCxEc0GAh8QDbnYtBCcHV0pRJEE1JzRmLC2X9H1vCJEC3snAEUxcQIgeRKCzpamwAEgv+qMiZXokCnFfjxbhZKyLWuywAAIABJREFUmQCh4uHAmYVSVi8KxSyaeAAlqkukHtd6nTsUOEDRVhJ/oxyRJX3WDWqDAI/iQOmOpVj97mOoLMqDonASJY/5aACE5sZKF7gYDAtCRydiLDzXHg5C0PfVOSkD/YhNpq26dYzE++LMEh4ggDA2ERaPjM1lLtzzzR4s2VcFd9D1p2P74GAchKaYSifUWBhkxjsElUB3kBRNtgT0HTUNY064FMl9h0E0mVQrAEECrpx9wznAxRAEIIgE+jxuyB436hpq4awshqO0ANUl+1BNv9dWwtFQx/IusBMJACRLPOwJiUhITkViZl8k5gyCNTUXdlsiRMnO4ivQEUdOCmbQxUtv5EBCf6mwm9rmcSFv5Q9Y+8V81JXkMVDigweR4S7pzqEeJguCnoOgj1mlbb96Bjrrzo6N5LK7EiAEWO+b4npVp7b1vkCXQ0uAQ69S23If9YmeNcABwnBcMCYR28s8uPOzbVhT2Ain4g6yQwkS+KeNndx6uudWpdPGmozbIl0CXUpSpOBuZgv6H3w8xp92LeJS+kIQaddPRxe5+Z9CHPnyLwZZ3/0AggzZo8BVX4Gq/O0o27MRBdtWonTPFnjqayAI/GQKBVFiO3ivL1AFCV5OkgCTPQWZg0ah99ipyBh6MJIzcyGa4uARTMwq4b9hoL+0OaApfTJHyYw3ITtrsWfJ51j95atw1lboom8aACHYeO8CCwKdYshSSYoaQGgb4SrSJ6DRvtYl0FwchDbDwiAuhWZrbevGOAz3xZsl3HfKCIzJtODxhXvx+94KONw0H7p2LvScSIrRlk+i9bnS1Xd0FUmRlKw1LhmDJ5+BYcedB2tKLiQCBqpbgJQrv/QcAf+3YWCclL3igctRg+r9W1G8cz0Ktq9AdeFONFSXAx6P1zXBsb5qjWCLRdMoIr4RQK4GEaLFhoTMPsgefgj6jp2KVIrBEJ/E3FNqFAW1TP0C4PudbxhkNFSXYe0XL2Hv0s9YJFxydfSEK0wWBAIIdIphD1x+Wb17gsiNd+wIB8FPaoH+Am1jEhTOBnzYHAppa5ldeJ/dLOHiQwZiU345Vu+vQIOeee9tZ3PIpe3uhtjlIPDw5DzBDpcTxf3gh6zaDDd71ITsKpKiPSEFw6bOwvDjLoaU6B8ank1H2n0HEg0DiTuKAleDA9VFW7Br9ffIX/MbGsoLoHic3qRkVJbPvqW5K7S+bQlI86yQPEMkoEgmJKRkYsDhM9D30BlIyewHE52uUIvSjBEcdwS6HMiz4EHlrg1YueAxlOzZ5Mvh4B09bZ+P0TTgwgQQWoqkGE3iM9raEQm0N5Ji0DpaJRX4NjB+z0cQQKDwsclWM2odHnZu3xPUMtISQGgJGfneOiYtCAKQldMb5513PuxWWugVVFcfwEcffY7S0ipGKDNAQtOZ09l0z6R0zXGJGHXseRh61PmwJmVCoUAUgSRe1QqmjV4eydC3+1cc9Sgt3IF9qxaicNNS1BzYDcXFMyz68RVUjgG3FaiKOxgAVGMoeK0WqvGC/y2rjwowmROQNWwihk87E9nDD4VojfdGXOSRFjWA4G25l7woO2qxb+WPWPPFi2ioLNClh9Y4FrEHSiMEIGgDWfMAd62JtSNKzHim+yTQaQ5C9zUtvCV30yak1WyOrN62+ljCKyLfhk3A6PET8MxzT2Hpwl8wbMQojBqahHPPuxI7duZFZATRSJBcZ0mKZlsiBk4+CeNmXAFrUh9IAj9SqgTZdQd7X0F2o6G8GPlrF2H78k9RkbcTYEHAOFPBPySRPqOiphu8TgY/TOLD1r7swPwJ78FFXyAUQUBidj+MOflS5E44FmZrihqQWT3TzN6lKS+H3CH1NWVY/eEj2LfyeygyBzRa3bGotcIEEIJFUtREra2SsYfGImGBiIQ2GAAhtL3QKkBQY9b79m5RMPcEwG6PQ3ZONvL25uGmO+7DmP6JuOG2uaiorFEtCKGVczTU1lGSIss2a7Fi4OSZGHXCZUhI6weKe8CODrIkSk3N8oGWO6WxEaV71mD70s+Z1cBZX8kSZ/igqabMfePPnw2g2Qf49/pR6g8QfPfpP/edpuBxVBIy+mL48Rdh4KGnwGJPUh/SZ4IMBM0iywa5f+MvWPXBv9BQsocFK4td+0HYkjW1FEmxm7ZR0TB7e0gbu8TF0ENk1RWvGczFwCyyfoVH37xT0/AgITUDzz/3FBb/7wO8/sFXkGWWr68rRBdzZXTUxUBxBeKSUjHh3BvR+6DjYTNboVAcCgpYJusSiKkS0wfbFRQP5PoqFKz6Bet//gDVB3aw3Acqz1CNQMCTKAWCiiZDtDlkoD0a4KbzdxRoqpx/SuPHlpaLiedch37jp0EyWyFDzRPhtahp80K1RwgyGqvLsHrBM9i/4mu43Q6/OByxNmDCZEEw4iDE2kBqz/t0mqTYnsqMexGzJEW2yguYeOR03H7jNbjnphvw594Cpmi8ge+M/veTQEfTPbOARZIJaQMPwpjjz0Pv4YdAsKVCFikQUnAwxk40KG7Ule7Fn799ij0rFqGG+e4pW6IWjYB24D4yYdu7q42AVm2a1xbgdaep8RCIB9RvGA6ZdS16DTuM5YtocgW6Tzwu7F/3PVZ+9C/UE6lSD0b9RNHGNrb9pUN+pwEQQi5yo0IDIIR2DMQyQDBZ43D5dTdiYv8kXHvjnXARMiDOXCw6hLtg2HQ6kqJgQlJmH4w54RL0mXg8THHkv1dTJ+tDglMmWRedUNiJLQvfwr7Vi+Ch4EZa3HLGG+T5RDoEEGiHH2hxCCafVgACsylIIvpNOBoHn3MD4tJyWchzLWorKzIAIFBkR0dVHpa//wT2rv3Z/8ij3+kjAgjRPRANgNAFk84oon0SMDgI7ZNXZ+8OFihJXyZnbkcZSVF9AZPFhsOnTIWpoQqLl62kQLx8Te+C3AKdlXskPt9ZkiKnqwiIS87FoMkzMWza2YhLygZEHj2RVD71gJuOBe5Zj43fvIaibcvhbqxvIo4mCcdCMQTVTT2PgaBZLhSIlkSMnXEJRh13AWRLEijltN5boW+8KIvwuBuw4+d3sfZ/8+HypobW/HYaoZKeMgBCm+ZB89kcjUiKbRJgDN1kAITQdmbrkRT1C1p0xRCglosiBehRQYG6qhsAIfgYa87FoDFSmDpryTLu1ZoiTNYkDDz8ZIw55hzYMgdDlmwwKy4WArkqfyvWffkKCjYtgYf89AHlEjjQLh66OLScEQ0g8KONVLeElNyBmHbFP2HvPRJSk2QrOnkqZDGRUb57FRa/OZeFgFYHoCrG6J1PgaMmTBaEwFDLDPOHdtU0agubBAySYmhFH5NxEPQi9KYS9p05MwBCOwACEQ1Vi0vLq7Bq1lfTNpOSlywWZI48DGNP+RtSBkyAJAuozN+KNZ/+C8XblsPjUsGBBhB0S713Bx/a6aBiFS2OIm8Q+8tkweiTL8HIEy5h4KdpnEZfQ+k7R00JVr7/IPav/QUejzuICjM4CG3uWn8LghFJsc2Ci8EbDQ5CaDs1ljkIgTtTZhgmDoLhYgg6yDoeSVHdFXuPv2hpmMiEIyF14DiMP3k27Gm5WP/1m8hb+yNkzXKgGeuDcQbCtC/0WRB8YiIuhTk1FzNueBJxOcNVgBDM0aDAQ2GlXQ3Y+fPbWPfFy5Ab66PcmRB8TQqTBcGIpBhaFRFZtRkAIbT90dMAAhmvO5u+OLQ9FLraOk5S1JvNeUQBXxAikfw87Lgp5T04sHsTPF7Oge45BhBaOcoYIlHoAYIWjpnxcAQBh/zlDgydfi57J3bpSIocLnCAICpuFG1djCWvPwhXZTE8MQhKIwQgaKNCG0zRTewI0RiP2moMDkJou67VdM9RTFIMlCQdx2NLeAwu1l0xajpNUgww2XBpU94DumQoJH8l1IyC9ktGAwh0isJ3iTBBQc6E43DE7PthiU9kCZ8oeyR/S/VSFHhEzkOoKdqBpa/PRdWeTXCzVNCxdYUJIASLpOiPUDnSjDVxx9bg6ejbGACho5Lr2HOtkxRjJ92zARBaHiMdjaTYUqk+wqFP2Ub6Fi84QCAng4ik7AGYes3TSO0ziAI98lxgCn3nAwiyQABBQWN9KZa9NQ/71y6Corg7NkEj+KkwAYTmIimG4pxLBPdGD2maQVIMbUc3F0mR7bS9TYnWuScgu98gTJ50EJb/+hPyy6oMC0ILw6tNkRTbya3jipMFXQ7twO6G2gg4WGwJmHL1k8gZeTgogiQDO+qxR76N5aGlCSC4PQ1YteAZ7Px5AQvDHGub2jABBCOSYjeM7agp0uAghLarYpuDIGDcYVMx568X4uUn/oG1O/O47dFwMQQdZM25GDojL21n7T0iqa85BJhBsxoxPd7Wfm8BD0smG8acfi1GHncBYLJ7cy1or0WBkphbhQCC3ICt37+OjV+/AbcWDyG007tbazMAQreK1yg8mAQMgBDacRHrxxwFMveyvZtPG7VZUYS2K8JeW8dJis03vQlA0KIcthEckIJva38FupAoBsbMmTNhs9mwYMGCtmfxDAAI/MglfShDFM0YcPiJmHDerRDjM2AiP4Pu8gIEsiTIjdiz9FOs/OhZOBuqw96/Xd0AAyB0tUSN8lqVgMFBaFVEXXpDq9kco5ikKIoWDBo8DKlJElavWc98xu3aSXappCO/sK4hKbbwngHuiYSEBGRnZ8Pj8bCAVi6XCwUFBXC73UhKSkJmZiZI6RcXF6O6upop+t69e7P7a2pqkJyczL5zOBxISUlBamqq97uKigqkp6czgCDLMt566y0GNOiZjIwMVpckSSgpKWFlU/1ZWVlIiE+AR/aw76hsqoeNGfo/gWCChPQBY3HMtU/CnJilRknwvTNBCX6KQYEiu7F/zS9Y9s6DcNSVRv4AaGcLwwQQiIOQhTnz9sHVxIDj7ap2vopxe7RIwAAIoe2p5kiK2r6I75z0K3sbt36hfY2gtaWkZeG+hx9FybZlePTpl7yc9LbuSCPgFULahObiIHAmnhoYuJ0chJZe4JBDDsG9997LlDYpauqX77//Hu+88w7OOussHHPMMbDb7WhoaMBdd90Fi8WC++67j4GE/Px8EMD48ssvsW7dOtx0002Ij49n9y9fvhxPPPEEzj77bJxxxhkoLy/Hddddx5pyyimn4MYbb0RZWRkDE3/++SeeeeYZTJo0Ceeeey7sNjsyMjMYSHnwwQexePFiDhCYVYESTImw9+qPk2+ZD3tqDnjEh+AAAYoHJVtX4bdXb0dDTYnBQWAYqwOzr/VQy8aphZCuFGGszCAphlb4zR1zpBnn0wVdqBVC+HqDhg3H/Q89hHl33II/d+dBVk3HHViiQtjq8FXVJpJiFzbPZDLh6aefxsiRIxkAoB0/7UrnzJnDlPqQIUOQk5ODl156Ceeccw6WLFmCGTNm4OWXX8b8+fMZOKivr8fAgQPx0EMP4ccff0RaWhoDCK+//jqzPhx55JEMEJx55plM6ZOV4O2338Zrr73GQMKzzz7LwMXs2bPx+++/Y9GiRbj//vvhdDpxzTXXoKpKJbYyZgEdWxBgSc3Bybe9gvj0fi0DBMgo27kWv8y/GQ1VBkDgRpgOzD4jkmIXzrooL8rgIIS2A2OZpJiQmIj+/fpj27atbLeoXR1YokLbKWGqrTtIii29CinwJ598EnFxccwyYDabmfImqwJZEEj5k6n/6quvxnnnnYeFCxfihBNOYPfS33v37mVWh7Fjx7K/ycUwdOhQ/PH7H3ho3kPMjTBlyhTcfvvtrDwCCARCCDzMnTuX/f3RRx8xcHL++eczNwSBEAIIdN9VV13FXAwat0EDCKbkdBx/83ykZGsRFYNbEERFRsnudfhl/i1oqCg2LAhdAxD0kRRZws2YE2yY5n9UVGsAhNB2UywDBLZjUYMj6aVqAITgY6w7SIqtAYSnnnqKmfZJMScmJjLLAVkDSFmvWbMGffr0wbRp0/Dee+8xMEHfkdIn68GGDRvw7rvv4tprr2UAYOXKlRg2bBi2bNmCW265BTfccANGjx6Nww47DJ999hn7vq6ujlktCIgQ94DAwXPPPceAyFFHHcVcF/ST2nPFFVc0AQgUGMmSmoFjb/g3UrNH+BKdelN9yIyDQKcYJEUxAELAAOgCC4IPIFBoCa9zIVqPYod2vY/62gwOQmi7sNVIiqw5xuQLba+Ep7Y2kRS7sGkE3ogrQFyCFStWMDLhr7/+ij179jAlPWrUKOzbtw+5ubmor6vHjwt/ZJwCck0QyMvLy8N3333HQMG4ceNYOQQAiDewe/duXHjhhYy8yLaYioLNmzczl8HkyZNZubW1tcy9sWPHDqxbuw5HTj2SuTSOO+44xom4/vrr2T3sJAXLRUUcBAIIWTjplteR0GsAc1vxMw6yGl6akxTpM0mWUbp7HX6ef5thQVDHTfcChOjhR3XhNOpJRQkwi8D8uQNw17/yUFRBIUf8465FehS2aOut1iMp6qOYGlygaOvf9rS30+me21MZwHb2L774InuKLAHPP/88M/trFp5gMQy0z7Tjj81Zg+jzYNajwDK1cujUxJ133olBgwZhxIgRDLi8//77zE3hBQgEBGQB1rTemHHr67Cn9ocsyQw4+NYpBW5BoAMPkGQ3inaswuLX7kRDpcFBYFuNznAQqIAB2Vbcc0UOrvnHXrgCzpi2c/wZt0edBDhA+PfdA3Hv8wQQPDwGm44jZ2DEru1UDhDG4KvV21FUXc/iBXiT8nmrMiwIXSv1yCxNDxBqHHSGjPlo2pjuuf3v1LdvX+YuIO4B7fiXLl3aYswDPRgIVP6BoKI54NDcc3SEcvr06YzkWFRUxCwaxD/wBxpkKRCRPHA0jp3zHExJORAEWqP4nNGSNbFIimRRkJ3Yt2YRlr07D47aivYLKMKfCPkxR5JHvywz7rg8C9c/uh+u2AtfHeFdHu7mCbCZgWdvHYD7X9qPwgoPQ+ZkxuMxz8PdvtirP9FiUQHCNi9A4DbZ2HtX441algABhJkTR+LD3zegVgUIlGCpuzkb2i4+2I5f3+LOAoTmym/t/bwkRbJKiCbkTjoOh15wL5CQAhNbmDg0IJBAhx4JRlCyJoUCJf3xFVZ+9CQc9TyeQixdYQEIfTJMuPWyDNz2ryI4HP7R4HksK+OKVQkQOk+KV/DgVZl4+LUyFFfJEIXgAIFPREOPdXYsJJnNOHfySHyzfhcKyIKgyIZgOyvUKH0+JykOJ48fig+XbUadChAoiqA+PbbmcOrKdbg1YBAJ4mTvTa4EyYIhJ12M8SdfCcFqhQIza56oqipal4iNQABB9jRiy0/vY+MXL8HlrIuE1+jSNoQFIOSkmPH3C/vi8bfzUV7tNFRAl3ZpJBdGS5GIvlk2XHVaJv71fh7KahXIAl+KWkP5kfxmkdy2BJOEsyYNxq9bC7C3up4vb1qWOu/sM1wMkdyHXdW2fkl2HDu6Hz5c9SfqnaTm6Ng/WRB8R0S7qq7oK4cDAZPFjMP/ej8Gjj8Jbok+kSAyHyiXlxqQmRMa3dVY9fEz2P7LJ5A9BLP4f7HC+Q0LQEhNMGP2zCH44pc87C4k1GXYOqNvMrW/xaqRDoeNTsWkkb3wzv92ocrh1kKYGQCh/SJt0xMWScSpY3pjW0EVNpXWqtHi+KPcQmOQFNskyCi/iXp5aHoCxvdLxefr8+H0qKZzAyBwC4EaMTEuPRvHXvcYEnMOgluS2Owg6wE/xcAvLZuj3FiO3958AIVrfuKpofUAIQbUWlgAgt0qYcbkJOwrdmHFZlqwjKsnSIBMc2RDOPe4NNQ0uLBweQ0aaZHiMU4NgNBNg0AUJBw/JB3VjU78sb+ScT20hY7JPYpzMXSTyGKyWDLzj89JRmayHT9sLYKshlduT7KkmBSM+lJkLCCdnjl0AqZf8zDEhL7qcUYCCBqU9qZ0YhaEmrJ9WPKfe1Hx52p4FOZ48FkQDIDQ9uGiRVJkSE0QcNioBORmx+HjhcWG/aDtYvx/9q4DPI7ibL9brqqeerUkS5Zsy713jCmB0EswhF6SQAIJIX8SQoCEBEIJkEAgBRICoSQkVNPBYGNj3OUi2ZJlWcXq9dSu3+79z8zu3u2dTrZkq3sX9Fi6m52d/aZ879fHfUsDz+A7F6Vgc1En9lc56NyHVmgb9y85xl6A5BGakxaL7FQL3tldJTmDjs/MymOMsuNoOAzAMSwumpWO6nYH9tS1S4CcxPgTB+GhdDgYR2TpM1SGxZSVF2Hhlb8EdCZVEj/C+iUEQbQJ1EmRpFmu24+v/n4PeppqAQgTThk+KhoEUp41PUGHa85LxB9frYfLI0GtgPpmPK8wbez9UYAcRPFRPL59ThL+9UEzOm2S3VMCCKzkPKfBxSFfQIS8STFGXLM0B8+uL4fTo9mbh5zIY75DFiYWuP2MXLy2sw4NnU6pQLYGEIJmjmENWHzD3Zi8+DL4WF7+jpxLjOykSP4lhgQWjOhFzc53sO3138NtJ749BCAEeNlEcLgfYYAQpwSIwGRgcO25aSivtWNzUQela3B1Obm+u+Y7NeaPnoEOkGeBb66Ip2VX133Z6i/NKwUOyfBcAwgDJeeA2xGAYNJzuH5ZPrYfbsP+ulb0jS7WVAoDJug4ahgwJXGYlRaL5flxePHrSjjcEhifAFrwE5oNnuMAhoNXIBE9BDCT8EYGkZZ0rLnzT4hImSIXaZKdE2WznBLp4AMH0WXHvnefQNnmtyC4yY5SgPfEoeoIA4R4qpYh/ICkmZidY8aZqy147vVGdNkE6lktXRLDEElbDSCc0AYYazcRJpUSr8dt30rDS+sacaTBpVIWaABhOOeLykEsi3mZFszNTMSLWw/DRR3U1HplbaMN5xyMRt+K6ymZaeKo+u1Fk3GgqRO7q9shyJLuaIxrLDzTFB2HxNy5aK06CEd3MyCKNP/B9NMuw8xL7wRrjPY771LnRJk3SbuEcCYWzvZafPXSr9Bavgc+keyliQcQfv7zn+GRRx4d1JSdcCbFOAsBCD6ILElnCZjMHC47MxF1tQ5s3tdD83QT2w7N9DbBnD0GReEJ1phsKp5lcf6aROh5Ee9uaIfLReZafWkMarimnZhwiFnPoudx2dxMfH6oAZVWR4hTqKZBGC76j2a/CkiYFBeBM6Zn4O2ianTYXaM5pDHxbEZnwJLLfwxB9KD0y7fQ21ILU6QFq255ENEFS2lhp4CzjpQgyR/iyPjghYDW4o3Y8eqjsLcrfnQEIEysfTSiGoR4SzxdHJJiiwHDArmZBly0MgFvrm9DTauTADm/HWdMrCRtECdNAZZjkJ9qwlkrLXj9kxa0dZCNRPVD2jUSFCAAQdbLLcmyICslEm/troPTo83ASJB/dJ/BwMizuGROJuqsDmytbIVX80gEy7CYd9ntyFl6PhoP70PpJ6/AHJOMZdffB29kHAyM4k9AYhuUisMSUPAxPvi8Thz84Hkc+OQl+DxOv2A7unM99E//+c9+hkceHSENQoIMEBTrFzm2eB2wepEF09LNeOXjBlh7fLKzmvSypI3kL6odZkM//cPZYwBJp6WYcN15Kdi0rQPbD5B0pP5o4VPWBjqclA/tO5DFzocYA4/L50/C4TYHvj7cDC/V2vV3abksR3KehuNZPMtgcW4cCtNi8d8dtehyeE5hzwMVhVkO00//FgrP/x54vQHtdYfh6e5FSuEqiHoGPKkPQzcGK5saAveyPhEuawN2vPYIavdvAuMjCZLk8MbhmMRR7HPEAYJk+VRiSiXJJsLE4qLT4+ERfPh0Sye6bF6JhcgTpNh9Quk0cVxBRnEFDNOjWZJ9jAFioxhccnocuuw+fLCpHU7ZtKClUB4mwofplu4fGilCXKuAnIRorC5Mw1cltahos8Ej3xNs5FFbsLWdNnKzNVRPYsDBh5x4M9bMSMbGshZUtNolDa0Gy+l+yJm/Bguu+iWMUXEQGA4epwucIZKmfqe+crKIGrT6ianB50bboe3Y9srv0N1SSyFEACBMLKAwKiYGRRugHEFkHmKjOFx8eiKIU+k7G1vR7RDACFIVbvp/GLWYplMYqsNkCPuRuQwNrYvV44pzEtDS7MJ7m61weALOPhpAGEKaH6cr9T4jTTmOxZwMC5bkxOGdvfWo6yQVHlU2Vtqf2nFUYyojN1tD8yQiemVEG3H+vCwU1bRgV40VglY5N0BchkFC7hycdstjiIhLgcDyNPERqdtIwhgJ01eAlMT8pYvkjhCdnSj+4O8o//INeF02pYyT33juT7U8AXD1iAKEOAsJcwwOrvGH4TAs4qM5nLcyDgYW+HR7FxpaPPDIdWkVgKCm+QSg/9CcBqPcS5DkyRCHRAaZKQZ8c4UFbVYPPtrSiV4bmXcpnEhjNyM/YaEgwcDzWJyTgOzEKHxZWofaTgdoYIM/17xag6DN2MjP2Ik/kWcYpEUbccb0NBy12rDlSCucXhLOp52YKoSAqORcnH7rE4hNy4bASnUYiNAppVUOaLnVwoxPFNBRXYwd/34E1qOlsuCqwGu18fTE528s3TmiAMESZ+mr3VI5fZJfo80cls+Pw+JpUfhkYyuKKm3w0FhV6VaqNQgE92rasjGwmhRWQrQGOpbBqrmxWLUwHl9sa8XW4m64BMm5h5Z09qMJVeKLMfAOE3oIIQEikmcBCz3LYFGWBUvzE/FJcR0ONvZA9EnxQwEoN6EpM6FeTnFEnZoSifNnp2NLRQd2VrfLIa0BJqYdmmTaWZgsyVh140NIyp8LgTNQDQKJsCOHlJ/FBKUlJ8WZHCjd+D/sW/cXeJ3qOkITE3yNMkAI5vQKo+F0LKbnmHHarFjYvSKt13Cougcetw+CJtiMuUONY4AoA4vCvEjMnhZNw1W/2GZFdZNLSkQiO5uKrOpoUmfGGnNvNMEGFAIQJAhAitCIMHAc8pPMWJwbj8ZOO7ZVWdFhc/sd2SbmsTfB5peyOwbJZj0W5CQhPc6EHdXNONDYA7egONssJ0IRAAAgAElEQVSpdUiagY9QQx8ZiyXX/AKTZp8JkTdJwJjE3/sU85q0caQ6DFIp6N6OKmx/7WE0lexQOdOHp6c/VH8cL7eRBQgWywBIJU8KR7K/MZg5KQIrFiYjPVXAx1/ZsWN/C2wuDiK1p/logopwkad+qVb1xHCJfMO182sqQkYrFRsKXEPRTq0Q6a8/RTJQnnysdqGq5IG+80Da0ecSNQGJT5XzjFkiGaxekIizFpuwv9SNDXs7caTRCaebJL6SHHYU2YVusxBmNYAFoTUZFgqQ9ElSClmOERFv1mF5djxmZMVjfVkLSo62wSWIcIMFR8raAiCuw/4JpPMoT6YKRaj3x7AM+5TtlKRFJoQme4+lqm1ldxk4BrMzYnHe7Ezsr+nCpiNNaLe7qD+XdoWnAFmnnN6MuZfehoJVa+HTR1EAEK7kvFTFkQE8Hhze9h72rnsazu52/1EmW8EnZHTIGAQI0oTS5C4kwQ7DIsrEIDVJh1kF0UhNANyeaLjcbnjdnRC9DASWDaiu5fWgJLYgGiPlItoHv4r7GO2IKpz8qK9w/YVtR5FmILEG6eNY/Sn9knZkbFRDorrUCTqUbF7h2pFbJNuZ9GzaH3m2WmpXjnRScOQ47egchLQjPYrkQ46DgY9BpFEEb/Cg4qgHxRXdaG4D7E63HKUSeImgTRcOzWmn2ChQIBRK+mDkGWRYIrAkNxUWHYt2mxMVrT040tEDu8NNzQ9KBj5Zpuozbg0gDN9UUpdtmvQKiDHyyEmIweQkI2IjjHC6XPi60oqaDrvkb6Dts2NOBF39rB7Tz70es869GYwxph+AoDgsAraWJuz67+OoP7CBJlhS1rpy3h4rYHj4VsXw9jymAYKPcDzK4WStAiOC54k6WwejgYFZJ4LlWCrQin61kAwwFACgol84RZB/ksdAOwomwsx36FF+rHaUsct99KdIDNffQGjDMVI+CrfXB7fLh26PCLvLC0Fg5PApgsA09eXwbtmh6l29CuRVx/AAI4BlfIg16JAeZcRpU9KxIDeORj6Ut3TC2u2GQ9BRzYICQtX/hgLroRrtqd4PYULRjIgEs4Cc1Bgq0+6s7sbO8qOo7XTB6hQkD3s6L1rRs+OuF4YISTpkLL0QS791J/ioeCkJUh9HzgBAcNvsqNq2DiWfvgBHV5PUXs03JqAT6NgGCH5mx1B1tcT4SM5saVqoki1UJXDclaE1OFEKSAl3VIdPCBbQoMGJUnY07lMAQmDW1MCSWpLAUKdT4sxoNugQH2mEwWiAkefB04wK2jVSFCCz5PR6qea0o6sbVrcAj+iDQBJdBTEqSXWgWfKOMzPy+k6fvgiLrr4fxoQcVTCj+l4JIBCKiiIHwdmJ+n2f4+CnL6KzkZROFyX5lW6jieexM6YBgnqaWL+GQJQ8TanYohxyCuMiHyoOJopco9jtlN4UGf147ZSDUy1pDfVnEsyRrtCCRaFyfrhxD+W94cYS5jPixCPjZjoNMkBTJMdwNryROkS15wyGAuEBgn8nhaioA5q2iZUIZjAUG822oQxffeL5xyXPmfpkU+/g0Rz/mHu2DBCi0/Kw4uaHEZs5XbLK9KNBkPyvAE70gRFc6Kgswo43/oLWoyWy7wHRdk88p48xCxBCFxTx0pVYvlTDXPojNJkL+VBtBVUYerikL8f6LBy4UNBhKOAIfYb63nDgIhwwGQgIUSgSakA4mXvDAZPQz0JmIlByU66Pri7TPeaOAW1A/VIgvIwZggtC9pO6s4knLY3JxaKaJjkZ5nHzIKpPQOU0GpPvNpqDogudARcRizV3PImEvEXgRQY+RoSPOMATJ1B6tAvwCR64PS54PDYIDgfcXa2wtVShreogqos3w9nbLQlNE7DGxTgCCNJqCsZo4XLFKwxY3fJkPlMYcGhp3FAM31ciC+SmUyvfw7VTmPKJtFMz9EB60ICXkvogHwy9jm8wCEfV0dzz2rOHgwL9rdfheJbWZx8KqAFCCFybePLqCM6/DBAYlsOK792DzMJvQCcwcItOuGw2OLra4bbb4expQ0fDQdis7ehuOYqetmYwXjdE0Us1BiIFBeSsDKvTGcEXGp5HjRuAEMSm/WJOOCloqD9TtBJqRhte+gofw9dXJuu/XSjeH+p3OZn++i7AoN7CvebwrFmt1xGnQH/rfcQHcuo9MAQgqE8jTYdzMstB4SgMchetgSEqEY6uZtisbXA5HPDau+FyOiC4nACpVkIj4HxgiIlBsXAHeXsoB+DEmpVxAxBOZilo92oU0CigUWBcUiDUYjouX2IsDlptmiUOCTKDpzk/lJwT8rj9PF9uQ9rSz5TJmbi6nPEDEEIkVE1gHclN1w+1tTkZyUkYI8/StAkjOhFqgKB+8MQSVEeUpNLD1ACB/C0lDZNid0IAgjI6JVyBAgT1PpCiRibilGgAYRSW5vh65DEYggYQxtdUDsloNYAwJGQcTCfhQMJE5EaDoclJt1UAgtr5XAIO9FhTOWP7HxWkSfCjhgkdUjp+AMJJLwitA40CGgU0CmgU0Cig1iAcwzxwXLXAcRuMe1JrAGHcT6H2AhoFNApoFNAoMDgKaJqwgdBLAwgDoZLWRqOARgGNAhoFNAqcYhTQAMIpNuHa62oU0CigUUCjQCgFJo5GYSgNHxpA0HaKRgGNAhoFNAqc4hQIl0RuvJAkAG4U18uhCrzUAMJ4WQPaODUKaBTQKKBRYJgoMN4BghSeSX7IpQGEYVomWrcaBTQKaBQYLAX6S1cQ2k+46MSB3jvYMWntB0OB8WViCF5H6pBNUn1SLi45mNfvp62mQRgCImpdaBTQKHDqUkAqJBcuFTuhiZr9k1Jz5Aq01cDBaKybY1F97CeY8FfJUbI/qkk4xMPXAMJorE/tmcNOgfElDww7ObQHDDcFGKLiZQGGyG9yVj5abTYYIFBwoE7CM8QH+nC/5sToX5mTYMlberdxMCEEGFBM6pPLUysGBaVIxNC5KZ6yAEHKlyUtlNAloV4+E2NDjO+3kOZHWfRimC0cLBGoZ3aobHHjm4La6E+WApTt+1Ps+sAwLEglwIjYOETFp8MYHQODKQp6nR46jgFHwQEfAAhS7WCAlBNWLVflY//4NJXCyU7VAO4PnBBBDKDPZAygq1FoQleSD3B7vfTHaeuCvasNvdZm2Ls7AIEABwEsfBDJOh1AGer+YNHEAwj9bDCqjSHb1ReABoqqJhxACFlCo7AMtEcqFJAKqpIZIQeuQJZ9MKyjh3HgUv8lDpm7jjYfpzIFJLsuA45hIDAGZE6bh9krzofN1oujh3ajreEIPC4XRK8bjOCVpY7QE0Y2MYScUeGy+vZH6z7g4lSelCF791Atz5B1PEwdMQDLwsdw4HgeOmMUEjJykDNjEXSsEXs2vIvGqn3gRFeQSYuAin7XFU0vLX+rajdhAQLDMGA5BnqTHlEWM8wxPIxGHpxOB17HUcJJBCEoK5hsFByQBhqaH6YFPrhuJcTsg+gS4LR7YO/yotdqg9Pmgij64BNCNQgSnCBz67fXDe6RWmuNAkEUIBoDU1QSUvNnIGVSLno723Fk3zbYrS1g4IVI1L3KHXTxsdTSEFiZ0ko8lgL7eMfNQBwcx4GCfAyuLEWkGCenhcrEQIVeP0X1iE3OQfasxTBFmNBUcwh1ZbshOHsBnwifT4pzIAszdK35+WHIApogAEF5XZ4AK/BGID4zBlMXZiMmMRpdtR1orulAa2s7HE4vfF7ZTKiYbEKW7PE26hhc4RN7SMTkpmegN/OIs8QhMSMWqdkW2GxOHNpeg7baTjh6XBDASYtfUan5JFWcdmkUGCwFFA0iPQs4I2IzJmPOGRfj8I4v0FRRArfLTg9dyctADUclcECK/VA4oF5/1Eqm1k1KDGmgXud97xzsW2ntw1NgnAEEsuYYRvY/CMO8OA56fQQmzViBgjkLse3D/8DaUAlRFFSNBwaGJghAANUWmGPMyMiNR0JKFDxuEXUV7Wirs9LfiVraj9/7bNp+No6GFMbGiaLS5pDDmPiBMSyD2IRoZE1LRFRMBDqtdhw90IQeqx1eggCVOdacEMbGHI7LUfAwmCORN2spTAkpOLT9U/R2NAEikcYkWUz6UaLPFXmOgY/4GhB02kdUCzaHEUDbByD471HpfOWu1N1pS3uoFtUEAgiKX6zsAxOdkIYpC1ajs70ZdcVb4XJI2oT+AiEphlWRdVwDBLqxGIDjOSTnxmHqsiw0ljXhyN4meB2SWlr5L9QVMdTqpGx2ZbOG23wK4cJZrMb7Z5JCXrqO9S7h2gznvcp46HPpwEgt9sDhTE5X1sghLS8Z81dNRcn2MlQVN0NwE18FBhA1FcJQHaOnTj8MiBbXFJ2EOaddjLb6Khwp/go+j0M2E0jSWyhAkEyWZH1KOyLIoODn9X0BQuihHKCzfBOxd2oAYRiXnzKTA5Oqh3EgA+76mBoE5UBmdADDgdcbMHnuKpgjjCj9+lO4HDbAR7QJfc/GCQMQyIsQhyGTxYTJc9Ng1Otx+EAdrA098Akhqj3JIhjkrhaOCYYyR/XfasAwEmBA/eyBMG4ypnBjDFWWhGs30HvVQCAgKx2frio5yL8BlC15PLoqNxz7EGXBMD4YojlMXZwNA6/H4aKj6GglaDlkzxGpTsMMAz6ITsWG5PA1RcVi6qKz0N3eipoD2yG47ZQUoeuVrkvFA1o5cmW7Vn9nTACGK6taWpDB+2T8SbWn4loZc++sOigDmi0WvN6InNnLER0bh4Pb18PRbVVpEfo/EMetBoFsYkOkEfPXTIXT5ca+DeUQ3ASzEweDYHCkbDW6uWUChmNa4SY7iJEd597QPoMOiJB7wzFb/2fE5q6as1Amf0xGfYwxBo1P1c4PEMLde5x2x7xXJmh/NBzIvcffgKQXkqqGIGJiftAhJS8W05ZmYPf6w+hs7A3uQgMIxyfpKdhC2huSqUBvjsGc1eejvaEOlfu+BuN3WpIBQsieIOoGv5MXRREBhq8GtsHHsLIrAlKr8olEfunUCnyrGRROwWV5wq8srSWGGtaltcSA0xmQM2sZ9CYzDu9YD4+baMRCuUnwI8cdQKAbmWEQEWfEtFV56KzvQmVRHURBsQMKIRJi/7LnCVNfu3HMUoAkq2FYHqlTopE7LQUHd9ejva5HCo2kqlpNgzBmJ28UB0Z9W4j0wOmQPXcNdHo9Knevh0CcEf0HbTgWT9C87HNAnWTJ+pKZub+5/DlDHGgDwIAYKdTeC8rrK58RzYSkjNBUXqO4NMbho1XJuvwAQFp3BlMEChauRk9PF2pKtkP0uI75fuMOILAkBFTPYuHZ+ejscqJsWzUYgQmYmmUGoHgWS1JBGNtSCG7oF0aE+2Kg6ocQ0g8aqvT37IGcF6p7Bz3cIXruoHdWmDk50eOR4xnEZ8RgxqJs7F1fDqvVLof4hAKEQVNn0K+l3TD2KUCPT4aDJW0qsgsWYP/X78Dj6qZOTtTeSwCmKiTGrxVjWLAcJ/k7BXmJq1cuMYFJCZlpX8TJkfxH/BjI5wwBEPIVtBy98MnhaRpIGPtraOyMUPGkUxaTFNao6LUiYhMwddkZqNizDV1NNccM9RpHAEHSu7Mci2mLMmEy8tizuQqiIKc19c+OwgAk1XNAhaLW2R/bOcP/7TE4+mDZSl+F4tAtp2ONRfmO/DvelJSDpbFEUXIXOXAF8LwOOTMSkZARjaIvKuCyE/NTOIPNicKQoZtDrafRp4A5woKZKy9BbfkeNFYfhE/0qAYVvHvo6cLqkDB5ATIL58HR2YTq4m2wWRtV3r4+6E2RSMqdi8SMXOj0kbA5euCw2dHbXIX2mlLkzl2G2NQpNEUzUS5IogwBEz44rI2o2bcJvdbWfr3OR59q2gjGHgXUp760opRP6PnIMEjOnw1LajYqtn4Mr0sxNQS/CblznAAE+fVYH5IyYrH0m9Pw2au7YO/xUEQedFE1ssKO1d+FbPBjBMj7fRX64RtK7+TrYzJdFYcbTpejsH3L4GbAYx17q/wkRiS9PDlmOYMOM1ZkoKfdhop9rTJaVrt9KihwIGqZkxiSduvYpIC8R4lpKmPKAiRm5mH/pnfhpREL6qvvTjdGxOO0mx5F4qxFgNOOyi3rsOvdv8Ht6KQMnmV5FJ75bcw45zrwEXHweb3wggWr08HZXImv//csVlz3c5jJdz4OIsdCZHxgfAJIolzG1YsD7/0ZJV/8FyLJzjjuIP7YnPJTZ1TBEq5aSOWNUZi28gK0VpWi+chef1RO6IofJwBBEgxZlsGyc6ejtKgW7Y1E/Sep7PriHjVbDKhZgtqFqAv7HAUD0B748UOftiruTBsptboDwsXJsSPpnRRbpVrSDtV+9MWSE3V7qNeBRAXqmsMwiEk0I39JDg5srUZPqy0koDMs9SYqkbT3CqWAPP08b8L0peej7tA+WFsqqWpfupQd1XfHRsQm4/z/+yf4lElgBR+EzgbseuMPqCjaQM0NqZNnYvF1v0JEymS6V49sfgdNFcXIXXkJkrImo2Ln58hfcBpaD5fBZ4iCJXc2WFaAraaY5tZPLZiFw5vXYfe6v8HtJL4Q400HqC23sUQBNVckGqukvHmIy5yCii3r4HHZ+/jDkNU2bgACebmY5AjMWJqHLe/u92cpoymVlXTJPhasvI+lTGbKJTkRSUxV3vKqvRYOYvQ7sf7Gsj5QjlEOPImAAZ561Ys0WYrk/CTVDxiai6EqdCIfSyrzgALJB6ksAdvHUap/vBPqKKX4bAzNWEe7F1pjj2cxZeEk6HkOB74+AoGEwQZdx0CDo/0C2vOHjwJ02qVjMz41H5lT5qD46/cheKWQxmMxZJZhkTZtEVbf8RRsLg+iTdFgRC+aD36FjS8+CGdvB3IWrMGCK38GLjoJPpGFq7UWbUd2obu+Cp3WNrTXH0FMdBR6rW2Yds4NyFlxETgfg9a961H0/j+gM0fC1tGE7rbaY/g3DB95tJ4nFgWCAALhEsYoFK6+GNW7PkdPe5OUjln1yuPIxEAyJbK48KZl2Lb+IJqqO/zgXnIgIpIiyZVugCUxEjqeh81hR3tTL3xu4qDhA8kZkZRugd5sgMPpQtvRTojeUG/jY7MNSmCWhS6SRUxCDHiGR1N1m+wHQRyOpAQr+ggD4hKjoONYtNR3wWX3QGTkNJcnpTqQ0AlJJ00wQmJ6LExmA3p7XbA2dpIEb3KOln489cM8m2Qk1Jl5xCdHgxM5NNe2waPQZdzvD3lLMKBahMKFk7Bv8xHYuo/tuTvuX1t7gQFTgMYXcEZMmXs6RNGLir2S9C+JEuFAvQSoOWMMFl99N9IL5+PAhvcxbeWlMMVY4Olpx67/Pomq3Z8i0pKIJTc+AEv+UmpCIMlpOJ8NorMXreV7seXlx+DqaQbHG7D42vuQtex8WgWysWg9vn7tEdi724Jzwqsq0PaXCW/AL36chkMPmQfWY/hWA7t3qN597PZzcnRQAwTKChgWk+esguB1oaZkBzVthbrzjxMNAoPYZDPOuHI+3nnmKwiEE5KLZhcjThcs9GYdllw0DVOWx5NIJXicwJevHUD1rhaQyId550/B7LNyaASEu8eLL54/iOrSWrkftZo5sDyCU6AyYDgGc86dghmnZ8AUwcPbC7z+yCbY2om9UoqbiM+Ixpk3zUFcipnau79+oxL7v6iQ4lH9/hFqG/ixEUNAvqe15KhyIH1KHJZ+qwCxqQbojSzcDhbdRx1oqG7G/i216GogeeLDFJsKIzjPO3cKCldn0iRD3nYW657Zhg5ivhn3oVXBeJnnGcxYPgltjb2oO0x8EcbuMaCNbGQoQFaIjgBuUywKV3wTNWV70FZbJq/90NRqypgkjWBsxnSc/sMnoY+MgrOzHcboVLC8HqzPh/aDX+KrVx6COSYJ2YvPRcK0RYiwZIAxRoFhRTCMAN7rwv7/Pob9G94Gx+ux/MZfI23ReWBEBq1Fn+CrVx+Fo6eNaiLVmtDgPKdDp5VUUzz8aXgyc6LsxVD207fPvnUpBn7vyYxwfNzb35oc2OhDAQKZjfj0XKRPmYOSze8Bgnt8AgQilU9dlAm7zYOjJc1BPpnU35e8Oe9DSk4MzvnBLMRnRkLw+tBY0oMP/rwLehOP8/9vEeLToiAwPjTsb8aHT+6B0+aRZAR5R1BzgE/WOFDtIzFekO8liZxkbpxzThaWXpNP6rfA1Qm88vOv0NsmOzQxLOJTIrH4vGkwRjFob+lC8cY6tNd3SQCCAkB12iZeThssJ3fy+1PIiVdoTLUy+cTpiUX+vDQsuaYAllQTPHYBzfWdSM2OB8/ztNTswS8bsOGlYggeKd82NT9I2YlV3tVyDnkOWHjxFCy9NAuCQYCjDXj7wSJY67oCIYHy42leef+lLLXhOaAGttwH0iqwJchMpuQmIjkrDns2lGkAYSDkm+BtyOogu9FkScOs0y/Gzo9ehcfRLWkcFf1BGPsjx+qx6NK7kLdmLWxt1bC31MOUkgVdQg50jB4+ezu2v/Y7WFLSkb/qcpR8tQ6dRw8hYfpyTF1+HgUSjOhA2YfPY9f7L4DVm7DqO79FwsyzwTEsWos+xtbXHoKjuwOsrPb1b9+h597yLEvnEkmtI8te0udh3n8gyyKQUDqwBwNHkOowUgnFfZNQkyedvHt3H4hxcoK4nDFDOaNDqRECguizVJnv5GM0WHwJ9NG/g3xQur+BTEGfNuFObeJHU7DgTBza9QmcXURjJeX5Uk77caFBIGrwRWfnYe9XR+HqJerhwFKS6jFIicr1UTwuuGs2smYkwSMKEJ0sNv3rICKSzZh3YTYMDA+BFVD6WSM2Pr8fxjgjkgosSJsUD55jUFfZgqP72yD0esEbefpdRkESeB7oaO5C1d5WmCN0uPz+RdDHsXB3Mfjg6X3ImpIGl+hG5b6j6G5wIjY5Aqk58YhPsaCmtAl1lc2ITTMjMysZHMuj8nAtCuflwOPz4fCuWnRUWWksdXyuBdnTU2E06tHc1IGjpS3obbZLqaMBRCeZcemPFiNmCkdjp7e/UYWij6uRWhCLC7+/CJzJi7pdNnz0/C4YInXInJEKS3w03E4Xqg81oKWiC163F6Z4A/JmpSExNRosL2LGWenwEoDQ4cW7D+6GvdWGhPxETJqaBp5h0NTQitqSFvR2SJqSwKkx1gFC4IAhB190YiQKF+di74Yy2G2ameGETpkJdhMxMUSl5GDqkrOxfd0/AdHjd9ZSZ15VXpvhdMiYsQrn3vQAXGCx7fU/omb/JuqPsHDtT8BFWcCLQPPBbWioLEb+6rXQGXh0lu0CExmH+JzpVBPp7qjFh0/8AL0dDUjKXYhlV90NU0YufYytqQJbX30YrUd2A16PIp8Ms9IrABAUTBDu/Y8//QGH7ADCkKCYZOFW/6idwpR8fxL3Jq2k6H01Qjm+BiJ0fH2k5n7AwWAwg5JUq//RhDi4hQEIoWBIGXf/NFffMXg6KFjPD3zlBxpMkZix8mJUlXyNzsYqutZUZQ3Hh5Mi2VCLzy/Ero8OwesWAOJwKIn21FWP+vMzgCGSw4V3zUTqzASIpBgFy8HR6gFvkr4jDkACw2LvR3XY+0EVLrpjEaISzWio7sCUGXFwOX0o+aIBu7+owLxz8lCwMhE6gw68F/DwLFqOOLDltT248CdzoY/jADeLnhYvIpOMVDNhrbWh/ItGLDgnG3yCD5zPi0Ob2iE6GeSelgidiYHXw8Dp9CIqmmRtY9DZ4MU7j+/E5NkpWHRBAdx2B5pru5E5NwHWKhc++2sRrEQDwQBZc1Jw/o8XgItwghN1+PCxEpTvrAf0QPbMZOTPzkR1SQNMsQYsvDQP5liOykJezgvG5sP+92pRVlSPFddPRcbUeLDg0NnoREwaSxUbTqsP7z+5B1mL4jD39Hx0t9qoOSa1IB71u5rw6Sv70N3mHGfmh4AEYoo2YPayAlQWH0VLg1XTIhz/tJ/wLYjfUHLODMRPysPBL9+Xi9gEO2upiWCITMC5dzyF1PRcuEQHqnZ8iO3vvojCVZcg94xrwUVFghHccHZZUfLpK/CxHLIXnoOE5DSwvAEeRxeay3agZMObaKsuBq8zYvEltyN33jcAUwTVVrpdDpRvfhd73/87RA9J8DV8QJxhObAsB46YMihzILycoxkfOZGEZQr0M0bUU5btYyRtp5+hUo0oSfbkBcPzWLTsNPi6u7BnXxE8JCEU1cJKAEHRTsycPRczpudj5+avUFFXRx25ycXpOSw77SxkJ8eitrIKX2/bATc1J5MsqES7KwlKpDnLcCCOolJOeoaadsjzyJdSK0kTrPBm6bMQFT3DYu78+ZhekAevvRfvfPAZ3CSzIJU3pX5F8gwyNlrcSApDpQIppQlxRpcFVP8iIee+D16GgdEYjTmzC7C3qAgut5RTwwcOljgL5s+ejtKSEjS1dqggk+Tc7uOkiWB9HKUZGYsgeb7Ieq2hWw+c3oBZp69FQ3kRmmtKpbOdpgqX3nF8aBB4BksvKcT2t8shKPHAsg6ElfNMk5kyRPK48KezkTQ1Hm6HF4YIji4c6owosJRBk2na92Ed9n5YiTXXLUZTRRvs3TacffNUeHmgobgXh3bXY8VVeeCNQN3ObnQ29mDK2dngwOKzvxXhtOvzYY7jITgYVG7pQPbSBHAmFp5eL776VykmzYpG3opkMF4RB9c3Yff6BlzyiwUwWUh1QR32flGD2cvSoYsGBLsOm16uwNxvZiMiRYf26l5U7m3CnHPSwYLH168exr5Pq+hCzJqfgvPuXADe5IZPELH91RrsfL8Cos8HYmMnWoWYNBPOvWM+4jJNaK0iJZDbMOusNBhMHIReH8r3NCF/cSJ0HI/uNh/e++tuXPGThfCZBbjbOex4uxKrb5kGL9xoKLWiu9mFguUZ8Lk9+OTp/ThSVC+ZdMaNDV8GCIyPSnJzVk6mTq61h4mjq2SG0a5TlwLEuTk9fy4i4uJRvu1zWVpXy3u0E7gAACAASURBVFDBtCFOyqzOTEs+S4xSqornI57DjD7AXIhZT3BL5j2GHPxKfhbSXIBPJFkSpSyNLGeGz0dYAOEKMkMljE7wwCcSuzBJHz/065Sw7OTMKfjPW/9DYWY8nn34t/h4bwP+9a+/AL1t+MUPbsdHW3ZAZEn2R8AjeOWzhqch54IggmOlfP+iV4DRHIk7770ftuoKPPf35+ESBAqQOF5HRTlCM0EQcP3td+Hh+3+KX956C15572OIog9ewQ2dyYj7H38K569agUM7vsIt37sdvW4PPW94jjyTpfH6Xp+IC9Zejz//4TEIzi64XB58/cUn+PHP74O1uxccy9Jx0VoEggi34KEAgyNj4Yj2leAKHwSRw3d/8EOsXXsRMhP1mDNvNbp7bfSs1fEGggqo4EQrwwoCWI4Hx5GsveSNJdGU9E/WEPmcwhJRgM8r0JowOfnL8eJTP8aVV9+Epu4eyezL+JCXn4fvXX81Xn/pJewsO0JpSkxLxExM1gPxsSN0os8jYE3WqJDoK0H0qEJwB7lvw5inCECcccaVaKk6gOaqA1L0G/0ZZwBh+WUz8fX/yiBSFk+SiUhvyyg2fVLNL0qHC+9ZiJgUE46WtiFvbhJ4Dmiu7ITHxSFzRhwIJi77tBlb3y/DqqvmISVDD96ohzFepIi0pcSOusouzL4wA7xPQM02K7atq0DunCzYu+xoqGrGJfcsgD5aMjG8/fBOfONH8xCTaqDS9sZ/HERybgxmn5cCYhko+7QRRR/U4NL7FsKcyMNtZ/Cf+7bgvO/OR9J0AwQ7jz0fNWLKWQkwRergavOgencXWI8PggAc3FxNIyXIdCXmxuCi/1uMyCSqF0BnHY/3/7ADXa12mKP0WPCNXOgigIy5cTDGmWCtcWPbG6VYcUU+YtIj6aFkbXEjLkFP/Snqytux8Z+HcNV9yyFGAu52BmUbGjH38nQI8KCnyYWG4m74BAZeJ4N9n5fD2kT8E8bTJbs90bLgDGavmoTOZicqS0g1MyINydEl4+mVtLEOGQXI4T5p2gIYTZEoL/qSMg5JfgpIUWrlrs4UhYKl50hnD0MOb0mlThiXKEqaTNoHkXKV9Mws55fKBOho5VFFGqbcijOApVkb3RBZKq8DPhNElw2Nh7ahvY1kZwzIwCemYO5LMjJyTs9j5pxl+Meff4/r165Fs8OHPz73Aqq3fYJX3vsCt3zvO5iWnYGmljo88fjjOHyoHr97+BHMmTsDLzz/DC68+Ap0tNTg1w88hpvuuherF8/A9q824PFHn0Cvw4XpM2bgBz/6ETLTM9BSW4UnHnsETS4TPvzgLTja6uByeVF/tBa/vu8e1Ld3gOH1uPn79+LsWUm45dbb0eXxIjE5DTfcfAtWLV8Ma3Mtnn32WdR02PHPl1/DO688j/XrN+Pn9z0Avq0Kt9/7CE6/8Fu4/qoLYWY8ePt/r+LV19eBM8biyiuuxQUXkDobHJw9Lfjlvb9F6eFKLFh5Gv72p3uxZsWF6O6xIzImBv93/wOYMW0yeJ8br/zjJby57mNc+K1r8b0bLseOrZtgik1HQhSLxx/9PeYtWolLL7kY5kgjtm3bgicffxoJiZPxxB/+gBVLClBScgANDU14+IEHgOhU/Pr+u8GLPXjykUeweWcx1VLkTZ+DH/3kLkxOikbxrq34w5/+goWnfxM/uvUGuO0dEFk9Pnz3bbz0r//QKDxJGzHIKwQgSHIei7lnfxvN1aVorCiWwKhfg+AbJxoEHYNVl83Cl28Uy+iGqJsIcVj5Xx98PBCTFIFzfz4PZrMeO9+uwKwz05GYasLXb1Yhc2oiUuaZITI6NO/pga29F/mnpYBENB3d14GCOYkQdQLa65yo2N2M6Welw2TUQXQCB7bUQewV4XPzqK5qxAV3zoPexMDd5cMHfyzCGd+fA3OCHh67iK9fKUPa5Fjkr4mHyIk49HkLijc00HvMFg4eJ4v//noLvvm9eYjN10Owiyj+qB05c2MRlWlAb7sLu9ZVwmsTkZQaj5KNleho7qXnA69nseJb0zHrnCToI5yAYIDXZkRjRS8s6WboI3yo2teB+FwTolLMYFwiyjbXYtL0eFgSImBtdqO8uBXTV2fAYPLA1S5i56e1WHj5ZOiJXbRLRNH71VhyWS44vYjuRgd2vlsDhuMQHRGNvRvL0dMtR0gMcm2OfnN6YmPW6TmwdzpRUdRIQaaiDJGVlyey7Ub/1bQRnDgFGBbZfoCwiZ66tE6CbAUP6phhEBmXiYvvewk+Wj9BdmekRZWIJCl7A8sqNil1MgHzkqaKSpwUQSiqcUkHAYYHRz3DiNO0JJGKxNmxpx07X38cVcVfSf0HuWcPXdokgyEGv3/qORzZtQ5FR9rw1MN34/Zbf4DDTZ1YtGQRYqNicdGVa1G1fzsefvgpzF2wAg8+8iAsRjtef+Vd8JFGPP/nPyMxawZuuuEaxEcy+MFtd8BqcyAxJQVLli1DlCkKV151FfZv+Rh/ef19vPn2mxDaavGX51/GWRddgcmRAi668np0OoGb77gHZ81IwC23fR8eQwR+/ptHcM6CAvz3jXcxd8UZyI4S8eN7H8KvnnwKrzz9OP739rs4Y+0N+M8f7sNN378Pz/31CTz/tz/BxcbiknNPw+O/uR9CQj6+f/2leOvf/4YxIRWXXXgWvnvzbdizrwTzV6zCX/70S6xZeSFsPXbojCacde55iIk2I2/6LCyek4uLzl+LzOwC3P3LX+HM02Zh/ceforGpBe+99ToYcyym5E1BbFwcfnjnbbjm0stwqKoRF1/2Pdz9g/PwyBN/QnNbB3Zt207sKFi6Yg1+eNtVeO6px/D2+p0wmJLw91f/CndrHbbsKMVlV16JnZ++irc+L8JLLz6PbZveQ8kRKy6+6BzcfsONKKuqpYBUuhQju7xulTLAA0UPLIs5ZxKAUIbGw/v8GjQJfojjAyCwOganXTYXG/63R1LhyVoDJSkSsQvpIzgsuaAAs85LB1gehz5vhsPhQHKuBXs+q8Q3rpsNYxKoD4KzQ0B1cSOmLEmlOQU8HSRvvwguxgBPD4Ptb5XDZOFp+J8uWgeW9UC0+XDwyxZEJURg8sJYqn5y9XpRXdSKSfOTYDBz8AgsuqptiLZEwhBHfCU86KzxwtrqQeaMaPA6QBBZFH9yFDNPTwOiODAuHxr29KK2rBFzzp8EPoaB6BIhOHk0lXZjw7+K0dPmkKMRGOhNOqy8pABTVibCFK0HpyN+DT44ur2oK+7ClrcPIH9ZOuadOxmGaMDndsAncrDVM9j8xkE013Vh1bVzMGmeGZxeB4dVQFQkCa7wUafOfe/XwuHzYt430mGM1sHr5OB1+lCxvQlf/fcAnL3uE4CuJ35+D+mdLDBnTS4FCId31Qc5XGoAYUgpPX46CwIIX6qKfUoHZOCSbdGcHtHJObLrHE2oLDeRHKWl80k5rGX+r9ZSUQWBdI9kyyY3SaZQos1S0rsR2z3xZbB3NcPlIImbCMBQp0Qbwm3IcDjzwrW4566bUHygDLC24JcP/h4Z+TPxvVtuQGqCBZOmz8DeDR/hnl89CK9oxMuvvYG3//47vPnxRrg8ktqb1xlw83dux6qlhbj1th+i1+FFwayF+M7N1yDFEo0p0wpR9OUHeOgvr+G111/Ga4//Bs+//g5yF67BZ2+8gLNXrcah6mbccsc9OHNGIm659TbwlkS89Na7yIjkUF56GHxENNLiIvGzex/ETx94AK/96fd4/a11OOea7+LFh3+G5154E7fddjU2btgEJ3ikJVrw3jtvwpI3H4amMjz05B/hEhlMyctDU10d2rp6MXf5Svztmftw+qoLKECITU7FD3/yc0zPToM5OgZRJhFnnnEhRFGPn/zsXmTFOfGLB56A3UbAhB5Xf/tanH3WKnhZA1asWIwrLrgAO/YcRFbuKrz8zB247Kob0WLtDAi1fAz++bdHse71FyhASM8uxPNP34Of/PCnKD/ahoWrL8evbj8NN935MF566QU89Jv/Q3lDLx7/4zP4w49/gJ2lpZJfCF1yAf0WhbUhifuOuxFZFrPP/DZaqg6hqWIv1VQFfF7GEUBYdfkcbPzfXuqfSAACReb0VJfUeYRRZkxPQGpeLETieX+kE61Hu2AwGOBxu5G/MAPmaKL0Y+FyelCxpwnp+fGwxJnQ1eaErduOlElx6GqxoXJvM7W3TZqRhKQsC1h40dVsR9X+VqTnJyExO4LuceIJ397gQEJaDExmFh7Rh54OG8yRZuiNxNFHRG+HBzaHG3HJJuh1LNweHxoqOpCaQ5I26eDziuio60L1gVYk5sQgI9dC7VmdrR7UlDTBbnXK1WOlcEXysryBRUJuDNKy42hUhdPhRt3hdrRUdxHzJqVFWkEiknKiwHMibB1e1JV1oKull/ZljDZgyvwURMTp0VbXjaTkSAgcCxsBGQda0dthR2ZhPFKyoyGAQ3tjD+qKW+Hu8QSqZh535Y3BBgQgnJELh9WJ8l318nGrdqgYKOweg++mDenEKOAHCBHUxECrMvp7Uq8H2aRJv5PNCvLvkiZBKt4cuAKGCilYWirAJP0XWuRZ+i6Qw1TpTYatqiU6XO4/iRl5ePmtN5Cgs+OWK69FRVMXfvzL+7G4IA0ffPApvnn5FfDZrHjwdw/DkpSJ++//HT574x/Ye6gCu7Zug9Up4PQ1K/HNc85D4dQcPPvMn1Fe0YC1N96KwkwjPvlkPS64bC1EZzdeeedD3Hvf/Sjbuh7/fucjzFl6Os6YMwk3/OAu5OXPwLkXrMXsrFj88U9P41DVUVxx4/eRn27Bx++8DzYiAlFmHkUHavDwk49i84fvYMfO/bjyuutQs+0TbKiw4tEHfoHnn3kGLZ29SEmMwb69+zG5cDEuP2cZ3nl3HbrsbixaNB+fvf8uegUe8xcvxO23Xo1f3P0b1JYeQPy0uXjywV/huWeeRmZ+IVYuX4g7br0NHtGA227/IaJZK17+33soO3QIdruAV19/FV99/hE6ely444e34vGHfou///M1JCTNxGuvPoEX/vZX6qBqtTaivLIJOdkFuPOOm7Ft86f47MsdKDtSiyeffhT1B4uxt7QSq8/9FtrLN+I/n+7BP597Gs/9+QmUVFnx8EMP4rnf3ov/fPAh3KLKTOWHqAGQOuDNwLCYfda1tCZDY8VuiZ/6tRPjxMRANAgSQNhDE4mwIql8pvY0JlUedYi0mMDplVQb/ZBISVYk01La48pBoKRPVkkCcqZGf5uQtvRPf3EoKTBHpEUAiJdroOK7P/2BMiz18+XHy24VgeEEZJOA6pueNXLwjnwfI6eRlsahukn+k9SVly7ZeimqDzL5c3W4sboP6Tyk79hrdcLtdI9fNXw4gEDfTQMGAz5QJlrDIICwMQQg9HeG9MOm/ftP+l5h+JISWDqXiAmhT26BIDuXbH7wKXdIAlDgUjb10K5ZXh+J86+4BjMyI/D4k09TbeichUtwyy3Xwsxz6OrsQVpqEj7+5GMUzJyH3KxJEFxOeAUPnv7971FjFfC7392DKIMBHM+h19aL/772H3T0irju2svBwwG704O09Gy0trUjOTkZvT2dYFk9etoa8exTf4QnMgK/+Nk9MBtN0LEcero68O9/v4y9B6spAJg3vQA+uFC6by/Kaq24/LILwQoCdZY8tGcnnnrmL3CyOpx/2VpcePZq6DkWzQ1VeO3f/0FlTRPWXnUNlixaCJ4RUVq8C2+u+wSXXX0dpuZlwWwywmazo2TjJ3j1k62486c/RWKkDvV1dciYPAVlu7bCwRqwmNzP+qh2+u133sJHH23AjTffjMWL5qOjqQYRyZnQCS7c+cO7YHfxuP6WW7F6aSHNafHOujdgTMrFhWefhYgIE0SPG0fKD+OPT/0J8Zl5+O4t1yMpRoey8gr89bm/Y8a8lbjtpm+jtGQPDtX34uJzVqJoyyY88fQzcMoZgsmKCl0Javh63O1KAcJ1aKEAYaffn0a5b1xEMYQDCET9R/gcUamQrRdlicKKywoRNykCAYaoJo/MHGmIJPFhkJmsxOHlH9KhtJEDe1JOiEH1OUoSEeleasNWsjlS0nolgEDHRUJvRNqGKivlxykj8t9HZ1d6mjTRihyikmNoaI3UgsoW9HcJzNBuKYNTHiBLOvLt1HLpVz5IKkwCsNTvJ4UvBefzCNVUkXs2vX4A1QeaJx5AkAzP2nUqUmBAACEUEKgS3wQdMcquCgUIpBFN6hweIAQB8sDOlE6iEIDgRwtDu2Dp6UHMGsRDnwRbkd9FHcBJTuEKrlGJUv439xGNLj3viFlVtZVo4IZ8nvkFq+Djg3yrgw8e8gg5vE8qwCdHoMlFsxQZRzqZFUlZlsRYEuUhAX169tP/pYHwPukOdfJsKfKNuuMF+pL7JWbrUMOSwh0ob6ADkUMolUR0PhLmyVMnU3JRWYs4rdLf9NTUTMMVGR/VbsuxpKSuJxifh3IbgTq8yo6t/rFJn0mrgPxORixHXsn+U9KaCr5IvxSIDuQiPghnXCf5IFTsmDgAQWLCEhGI/c4UZUThqmzEphqPcdYHgIC0XgnzVMW1kokmHbNkkxDmTooeSYs8ACKkJSCx5MDBIXUn0GJRZDJpN9SLWbY3hkxWkFCgoAPlQ6olUIEWGmcsP022ESlBVlQ1qewXuicUgKAGHTIEIX0ScwwZnH/ocrsQgKAMSalRT0hdvL4KTZXE+3+cXv2aGNQn9NAevOOUUqfOsAcEEMJs3kEvk5AY/KAu1VrPAAuWtuigH3TCc6eIGJLuQxlTX9+H0NPwhB8o36jAqVCUHgrL+j4ncGD6z1P5aKO6XAJa/Hwy4Hp6vPGqn9t3DGFGRZ1TldwJigFK8RhRAIWkXQ6cNCG8I+ygAjMiGdWDL6nnk7woQLgeLTSKYUeIiWGc5EEIp0GgAEGGtYRBUn5K4nUpvdQagP4JSAksM0bK3ylAkBz2CHCgjDfM/qQoUAUO/E+Q76HJOvyggvasgs3By0T51h/2JHcWLNErWc4Uti1pTujQlHdXaylCVJ3SuwWUDCztPFgW8AMBFa9UlCx+i6hAqlOO3IF1kku/7+0aQBhyko77Dk8EIAz6pZXzor/jXG3fG+39Jcmx0iUJKaHRE+Sbk2ZMg6ZhmBtUApXfVU8NEGQPf8lfTQYIx0cdJzwyNaSSznwFFAZoGAqujj3byltJugjV0Tx0sJEChGvRQjUIOycWQFCWKV0nsuROFUeUs/eR0YMmPigaRLXQAnI30R5QR4IgG6CieQgwfRWj9Wd45OR4aDmm2b/ZFDignmp5K4YM1+/GpDJByGqLQG8hms6A9lGKzg7WegSew9J4bWVsarCjBg1kBGp7KalGJyfROOEtNMo3hgUIoVhvtA/oUabRqfb4EQEIyr4/1tpSHUJjYg6C6weoRzeMPHZwbx4ia9E//ceZ8qU02pESbIJpo9AwIJANinbKC8lC2aDuHSgl/QCBaBB2TVyAoNjMKeZVFskxiBROM0C1BhRsEN8CYqcn8ciCP7UmXX8yw6YsmP6u8ksgZgn6iQwQRIL85IWqOBL6jXQS+FD7CwZ5PlCJ3ydpRuRLwfPHn3tiD1QBBJk4FMcS04dPeq8AyiW/SXY16Y1UoEFFqKCCT8cfxNhr0Z+TouaDMPbmaqRGNGIAYaReaAif05+MNVYwdKhQxUrRIEaDEekZ6ejs7EJbW5scujcCrlPhOPjJ0DD03uGgOwUI18gmhtAohnFsYqCMTGa6ofMS7PUbfsMcHyAQCCBFS5A8C8oVChCoF6mM9CQmGwAIrEj+lnUSxK+B8nwFWAwOIPiBxABeTgIvAYAgskpIqAQBCHiQaEfaKOaLwQKEY9lUh/CQGsquNIAwlNScGH1pAKH/eQyS0GWhwa8llW4b1VMghIHq9AasWL4UZpMZ1k4r0lJT8eWmTRQkqIWbYdPV9Cfi+8epOHoptYQCCo+wJps+AGEYqE0TJV2NlipiYphAAEHif4rjSRho1R9yU4vjoVtDtXIkxq4EKqliEpXIAVneVruOBC88paqZEv0shz6qQlXV1oOgofifEc5IcPxzWRq5DExk5xb12ILXceCbsBsn6JA4/rPHdIvj5kEgox8OmD6mqXJqD04DCCc1//3xxJPqdBA3R0REYPLkybBYLDAajaioqEB7eztsNhsSExMwOTcXlUcq0djYOIheT6GmNFGSBBCaJhRAoHN4DIAwjHOsKOCP56ijtPObPQbB+IPuHeS7nMy9g3zU+GquOSmOr/kaidFqAGEkqDykzyARXdHR0TjjjDNogaNdu3ZRUNDd3R3ka0DaxcbGYv78+SguLkZLS8uI+SIM6QsPZ2cqgEA0CEpdEeWR4zYPAvXiV8p/alLfcC6hidO3pkGYOHM5VG+iAYShouSw9kOYfVRUFPLy8qimgFw1NTXo7OyE3W7vl/ErIGHmzJmoq6tDdXW1lAxrPEdjDSWlZYDQOtFMDMSGPmqTPBgjVqgO7mTuHczCGG3d32DGOlJtNR+EkaL0+HmOBhDG7FzRUtgsi8jISKxevZpqAzZu3Eg1AU6nc1DnP+njrLPOwr59+yhIEOVy3WP25UdqYBPXxEByRQ3EXtzXsSO8q8cgHEBCmHwg/jVkVgcABo5prlAx+QF0FfzwkHvJn8cziYzUmlSSyI64vV8DCCM3xePlSRpAGFMzJWVRBAUFc+bMgU6nQ29vL5X+W1tb4fV6BwUM1C9HzBLLli1DVVUV9VUQBK3UO6lWqPggTCgTA81U6K+apiQ2onEHNEyRJDNSp1yWsg0GPPWVhSPFHZBoBcJB5TSWJ7RlNMv/8cmm0Ii0lII2R/TSfBBGlNzj4mEaQBgT00SAgV6vp2aExYsXIz09He+//36Qc+FQaIyJRuIb3/gGysvLw2oShuIZY4KgAx3EhI1i8Oe3kcCBksOA4k9a/0AGCDTZkZKOWK6pLmEIeikAgd7mj4UZDONSRPWxlA1toKtjONuFs3GoAYJE/RG9NIAwouQeFw/TAMKoThMBBWazmYICoh0gIYlEW2C1WqkZQNEoDBXjJv2RCr+LFi2izzp8+DB9rnIN1XNGlaiDeTjNg3C1nElxAoU5+jUASi4EhiXaElqOmKTLEGmRDokh0RobJGLX54VBx8PtcsHHkXLMJDmg4AcJpKb5YKVajuWkQEIKShTnl0BGQo5j4RNFOp6JcpGiLsfPTsaAIYlLSPEXGo7KQMfzEAQvxKCCMyNIFw0gTJQlOHTvoQGEoaPlAHviOI5qC+Li4jB16lQkJCRg/Wfrae4CKjao/AOGAyCQZ5B+ly9fToEI0SZ4PKQolSIkDvBFJkKziQoQlCRJ0mSzSE3NQEZ6CprarbBER6K68giyM1Pg9DKIiIqGw+6ByQDwej1K9u1H9tRp4H0eHCw5AEGUwyUHKdCyLIf8/ALoecDjBbxuO45UVVNmyPN6yiBnzpmF1toa1DU2jzmQQEKEeF4Ht9tFbX1egRSoIp4dPgjKJg3h3yzDIDMrGw5bDzqsneA5Dh6vl95PbHpEhedyuUFok5WdBVtnB6zdvTQcKSU1Be2tzXDSAnFeuN1S9bMRuzQfhBEj9bh5kAYQhn2qFCZPog9iYmKQn59PzwnibNjU1ESZ9EhJ7spYyEsTTcKSJUvgcrlQVFREz6ORGsewE32gD5ioAEEp90zoQKT43CmFyMpMQo/DjUizCfV1tcjNTkOvzQUvy6Ou4gjSsjKQkJKG5tpacNGx6DhajuqjjXShdHV1DXpx6HQGzF+4ACnxUWhttwGiBzt37qSlUqcXFsLrFWFJjENFyX60tlvHFEAgGyUvbwomZWWj7GAxJudORmV1Aww6oKu7C+3tHdISCwUILINZs+dCFLyw2+zIzMhAZVU1kpOT0NXdSROW7Nu7Fx4fg8JpheBEF2weEQnRkdBHRMLr6IbNy4ODgP379sEtI/cRQe8aQBjosXHqtNMAwrDNNTljiGBAHA7T0tKopoAAhN27d1PfgtGIJFADBEWToICEkpISChZOqWui+iAoTopEk0ABwtSZyM/LQG+PDQaDDi6HA/HxFli7usHrjSgp2o9p0yeDj4nH0UPlsDsFpMRHoKysHJxOj/YOmSEOYnXwOj0WLlmGBCPQ1u1EVKwFmzasB2+KwOrly9DVaUV7rwsm1oviA6VBzHAQjxmWpmSjFM6cjejEeOiJyUUQ0d7egoS0DLqBe3t6wuEDcCzRIOQiMyMNBp0esZYolJUeQUxkBKy2Thj0RrQ21KG+tR1TJhciMSkS5lgL9BBh7XGA431wuD2I5HjsKdqD7t5eWleL+ohSp9NhvDQTwzASd5x2rQGEIZ84craQDIeJiYmYNGkS1S6SnAUkCoEIYiMiDBznrdRAgYAYotUgws22bduCfBKGnDhjrUMZIDTLeRAmTqIk2UmR0JvlOGRPLUR6UiREtwe8yYyubidyJ6fD2toChwtora9HdJwFiTmZqK+oQEdbNxITYlBxuIICBGtn56D9D3QGI+YtXIoYnYjyI5VISUvH7l27oDOYMX1qHlqbW8EZjIg2m3CwbOwBhGnTZ8IUFQkjBOjpJq5GTv40fPnF5xTdh4szICaG5JQMzCicBggi6hpq0NbSjeXLl6C+sRZ6PY+jNbV0k/FcFPKnTYaXBeqqqhCbkISISAM1ZUSwDLZt30VToiqFNzWAMNZOj1NgPBpAGJJJVpz/iIYgMzOT+hgQdX1lZSV1BqTnyRjywwrVJBAiFBQUUFBDMjMONs/CkBBxNDqZqGGO6hoIxN4dl5yC1CQLrJ3diIow4siRGsTHJ8FoMsNs1kHweMFxIjwcD9YrQvASqdWL+vp6mCIiKLod7AKmdvbJuTDAA5cX8HjcqG9opAwvKysbLAOYzGZqa2ttJQVDBunkMMwLJikpBXq9AR6PA6kpSTh0uApJiYmor62BSP0y+kr0RNLneD1ysrPhiAYwBAAAIABJREFUdjphiYtEQ0Mn0pMT4GW8MOp41DS0IiUuGocr6zFpUia88MBsNMIjAjzHICI6Bq7ONhwoq4DP65WCT0lY6nDTp79yz0F0HlYdxjDPqNb9oCmgAYRBk0x9A2G0xIRAwhKJ0yHxMyB5Bkjq456enkGfqSc1mEHcHA4gEL+InJwcZGVlYevWrXA4HGN2/IN41WM3nciZFIPfnJQ4JhUe5QNeroREoxzDKa59rFzHUK7WSAptnRT/loozSSWbxyeTUZIxcSQaRDx+EGIgsJOhoCgxIYGmPmV5PfQc0NNrC5gpCH1JXAnLISEpBd3tLZKToqw+8NEok8FHkQxqo2g+CIMi1ynRWAMIg55mwlxNJhM1IxCpm2gLSB0EkqGQAIPBClqDHsAQ3BAOICjdTpkyBdOmTcPmzZtH1IFyCF5r8F1M1EyKaidFhSoSQOiPQUufmyPMsNnsYFQAgcY7nrANXJ0HQSmhTAs7y8MKhgxEo2DSG2Dt6hxzG4kjyad0eppsyu32ynUg+645JQUqjVqgVJXAEcfxiI2LhaOnBwZzJM2RHmE2wOZwwmQ0we50wWw2wuH0INJkoBJGVHQUOjq6IIoCxVUSriN5KxSwRT44HuDqN5dl8OA1gDD4A2Si36EBhEHNMHE0JNUTiV8BMRsQUEDAwbHqIQzqASPU+FgAgXxHNCLEL4GYGxS/iREa2sg+ZsKaGGgSA4mWJJwwPjkVWWnJaOnsRkykATVVNZiUkQqXW4TZHAmbwwVjBA9TRCRK9xUjNT0DFkskinYWwSun3DweGwqdOZbjkTulABG8F3aXD6LgwpHKo5SxGo0mqjKPtSRCx7FoaKijsbfTSHSDyw2dwYD2jhbqzauuVT6Sq4PGIxv08HgEGPR6CC43EtPT4O3tRlN7J3zhEhkRlWJUDFLjY9Hl8iIjKQqHyipp6W19RAxmzSxA1ZFK5Odm40hVLbVHHq1vQlpyEhrb25GcFIuW1i4kxMaixdqN9IRotHV1w8gzOHCgHAynw+S8HDTU1sLl9oDmkfD5wLEsRAJdBDcNowzM1SAyWI6iiYHMPbHPZmRkSCGlXi8aGhqoxNXfRe4h6s6LL76YJnT58MMPBwUqSXQOUZkSaY88j/h7EPXvSEt45H1vvPFGvPvuu2hubva/LlFNr1mzhtKBOMae6HVS76MBhGOSnajdiaYgPj6e7mVyEZMp+SHaQgrfx5BvwYmuodD7yN5LTU1FYWEhrd9ATNDKNaHed6JGMahldHAssgsKkZ+ZiraeXpiMHNoaW5GdlQ5bTy9Y1oCKI0eQnjsJqRnpaK4+itLyw8ialIGqiiPQG43UkWawE6/TGTF3wWLEmjwoKyfMMAlbt+2hgGXWrJlwOmyIjEmAo7cLpWVlVKuwYsUKtDa2wBwdiahoE778cpOUSOikzBuD3RaSSYAwjoJp+bB29GByThbKSg5j3tK5KN76NWparf6cCOreycbJyZ+BlGg9ukUeGSlROFpagZjEOLR0OJCTlYyGpmbkJMehpqEDmRnpqG9qR1J8BJq7HIiO0sHpAow8C4eoQyTrho8ku2J02LNzFwSGw9wF89FrbQWrN4FoNUieBUYUwJmi4bF14mDpoUCeBtlQFNAyHAPmjWIUQ3JyMh544AGquiSMmjDuhx56CK+99pqfvIS2ijMX+Z0AOOIF/utf/5oy+O985zt0raiTx/S3Zsm9t9xyC2XMtbW1tB8i7V155ZUSqFZMO3JlO8IIyI9S6Y78q2SyI5+rx0buV3+m9KceG/lMCWNLSUmhktjatWupbVfplwCElStXUoBADmH1/aEJcsjf5Ec9PqX9YPdt0G7RAELYw4PMLymORKogkouAAZLhkKxddb6Ak6L9YI+tEW6v0ICAhNLSUnR0dEy8SpATFSBQ5ErkSOJjwHKYMm0WpuWmo7PXAYOeg8dhQ3S8BV0dVuj5SOwrPkg96qNjY1FTUY6aunqkp2ehpqoCJqORhjkOdrHzOgMWL1mOCN6FQ1X1yEhJxNbtu6nGYtnyxbDbHYiNj0NDTSWKS0rhFXyYOq0ArU1tKJw5HQYjh/XrN8BHHAIHq744qc1CUkv6EBMbhyWL5+NofSuS42JgJyGhkRGoPVyGupZ26hMQOiyqfsvKw7TJqbC5WSQkRqOy9BCyMlKwvfgwkuOi0NLeiYyEKDS0dCE5MR7NHV2Ii41Gp80OvZ5UaDOAFdzw8pHg3L2YNCkdrMGA3Vu3we4SMX3mdMRGmWFJTEVXeyscbi88Lge84MCLbhSXHICbZKYKsFbV72MPIBCaEeZ455134u6776aOsVdccQVNzkI0A9/97ndpGVsCAv7xj39g06ZNNF88Ye7kItIbYe533XUXbrjhBlpwhvT5+eef44UXXqCHdiiIS0pKwkcffYR7770XBw4coIVv5s2bh2effRbXX389zSJHLtLHSy+9BFL3nfRLGAGR+J9++ml88cUXVHtx0003we0iDrj1eOKJJ+h9v/jFL6iERbzUiWT5yiuv0N8JKCFqaAICHnvsMcr4yb/f//73sX37dqpBePHFF2m+kB//+MeYNWsW3nrzLfzr5X/R/UfU17fffjuys7NpTDppSw7m3/72tzQRF3EcIypfApqOHj3qBw0nvB00gBAEUEktBOLJT0AdAZkEXBL6qx0OQ0HqCdN+nNxIaDF37lwcOnRo4pWLnqiJktSZFFmWx/Tps5CSEAGnx4vIyCgcra9Ddm4O3A47HC4OLbXVsCQmY9KkFFQePoS6hmbExcfiaE0jtYurVUgDXbckAmDRgqWIjGJx4FAFsjMnYevWbdDrTZg5YxrqG1qQMWkS4OlG0Z5ieAQR+QVT0NDQiBmFU6l6f9OmLaNgYpAAQk5eIbJS4tDU3g0LCT/0uBARk4Cy0hK0NjdRA0NfgMAiPiEFSxbPRGc7CRVNptqYvPxM7NxRhNiISLRYe5EeH4HGtm6kJFn+n72rAJOrOtvvuPusu2822QgJBAgWnKItFHeXBidIfqS0UCjQooVSoGiRYoVC0UAgnpBsZN3dZ2ZnZsflf75z5+7Ozs4ma4Sw5PahSXbvPffcY9/72fsxd4VBr4fd5YJYIoRQJISABLxEA4HXidzcDIRVKpT/UAaJWACBSIY5c0oQFklQv3MHIFUhLTUF/nAQIY8TW7dugz8wiUpsP1EMAgnzP/7xj8y9cNlllzEgQEKY/iNBS9aEf/7zn0w4kvC+7bbb8MILL+Chhx5iLqgVK1YwLZuEOVkR/vSnPzECGhKkJMjJdB8LEEjAvvfeezjqqKOY8M/Ly2PCldohcECCnjR4EuiPP/44syZdddVVeOSRR3DQQQeBLB733HMPvvzyS/Yz0h5vueUWbN++nX3LySefjKeeegqvvfYac31Qu9TXtNQ0yOQy9iwRz9CfRERD9xBAIksC3UtCntwnF154IQM4jz76KPuEBx98kLliyLJC/PxUopeABAECAkmffPIJ++YnnniCgSneqjDePTvqvn0AYQiEHnbYYWyN1NfXM4sqgYLxpCdOVLGa9Fz9RA/SGiNrCq1HqgJJ4zNjvnmmAoToIEUBREhMTEJqigm9fRZo1Co0NjXDlJAIiZzSHCn3PghxmLzYISb1Wju6IBIDblcASqUCfX3kC56YnZ/SHLOz8qGQBhAQSeB1eRghCNV9yMvPQcgfQL/NAaEYsFksLHWQQAmROeUX5KGvtxe97L1TzaCY6M7hSlur1CYU5Kajs6ubxSB4vW6kpGejoa6KESXFGw3aLEkpacjJTkVrYytMej16LQMQqWUYtNkghhhOlxtqhZTFfVDKKbFbKhRyuL0eiMQijhQpGIBYyIESg8kAqVwMr18AlcCPho5+5ORkIOAPQ0HWIH8YUoUcerMZXS0NqG9oZGM54esnBAgkpElQkgWAgrrIKkBFaki7/uKLL/DGG28wjfzdd9/Fc889x4QpFZQhMEEggiKrSYOh5z/77DPGHU/la9955x18/vnnowACuRQIOCxdupSZ8Y844gj257fffsusAtQGaeSkMRKQILPxpZdcihtvuhFHH300Tj31VCaIP/zwQ7z11lvs9yS4yeJBgIG+5W9/+xvOPfdcVFVVsQPz5JNOxqmnncqEDL3vm2++wQ033MAsDGVlZaxNso6w9R4OMzcFgRL6DgII1Bdqk76HAEJKcgrefOtNXHfddVi2bBlWrVrF+kPtksWCgA3f1oTXAv/ALxggUFoiacdkMaD5oLkl4EbzFz2uuwrom/L4T3ripvfB4ZDyEVA78g/OrUd7lsB8VWUlHE7nsOUlEpI+MenBPc5HUI1+ljujR17xfhZvHMZ7H/MVYv7R56EnQpQUW2OHzq2HH354QoMtCE8CPpHpkpiqJnMJJQIcdsZ8fPvvrRCEBBCGhIhmUqRhZsWYBMNkHGSyZ0WFBCIAwaGKjhShz5nzuSh5NgWseNDkyg8LBeJI+5F2IhGH/KbitPCoHMrIq5jmQ7+JrMw9G4PAz4KQcTVwjAeCyN+FCIWizfcjZ4xGmlw6IpFguJ46q1XFlc2mpoSCAMIhbpEKBBTqyPmwqWgV3cYVteJmjRsD+n2YBW4KAgF4AkF2P79p6U5W3MVkQl9P9+QZKfdgDELsoTpv3jwmzMu2lmHT5k044YQT8PHHHzMtnuICqLQtmdtlUhluuvkmppnv2LFjyB1BWjcJchK4pNWTxYtcBmRp+Pe//z0KIJCwJWFKgp0sD2eccQY7/J9++mkmjNesWcNSuCgmgqwXJMTpHgIjZB0gMEHWCvodvWvt2rXMzEqFbf7+978zywOBAwIz5EYg4f3888+zPHh6z69O+BV2lu9krhWn08mAM2n/xL1P1o277rqLARECMPQMuUPIpUH3Uz8INC1cuJCtg1tvvZVZDMgP/Oyzz+L999/HV199xSwoBHImcRwNj9cvDCAQKKNz+KSTTmLuJHL7EGDliYGmNJaTOdx/qmeiEEH8MGc+iZvvICVih1l82VCdmsgJxjc1boDAy4CoXDf+LVx1YaZCDQEIThXi+zP6LSOfGPu+uEMdxaTYVTeDqjlGqjhzwobNEM9CwFVUZEIHkUqLBBDYLVx2gdvlZsFvdDGSnilUF+QFwVAhY5ZcwU0pr+NG67rRgoOEJavyOAlleLr3FSNAElGBqRD8I/z78QECYS8CElwSZ+S/MCfo2ajywW98SW2GDMIQUmnu6E+OBJ6N53umbE7egwAh9nvInUABXyR8SWMmUyUJfLIEnHjiiSAA4bA78K83/8VM6SSMSVDS1dvTi9S0VCZEKTOBTMHkYiAf/AcffMD+jL1orMitQLEOJBDIj0xAgoAGuR0IAJCwINcBWRqOP/54ltNO4IPeTXEEZNUgCwYBGOo/mZxJu6eUNgIHJNip/xR78Oqrr7K0MLJO0M/oOXovgRGKeCe3ximnnML2JgUqkrAnawh9D/WD2iQARW39+te/xpzZc2CxWphFhcAhxWNQu/R+skSQCZw0G74K33jWT9x7ZjhA4M8bXvslQEoXuYoIGNA8/WJAQfQCiAII0VBgWE2MDxBGnumcihNtfRjXUT4ugMD1ZDhpf5h1JlZgDAOcSfRmpqY5DiEuypmnCoOZmSgoKkBrUwsMRh12bq9AfkEhQsEgTGY9PG4fpHLSjgVYs3rN0MSyaG02DRTBPTGiHjrYSufOZX5zsUgKu82G6uoaBEGCkFs2QwsqHGaHOmlMFZXlyM/NRXVNDbq6eiZ9tk3Hg0MARyBAYkI6BEIPOjt30SeBgAkGg17HgFl2dg42bdjExrAgPw8pqamor21Abl461ny/htVXKCgohLW/H30WCwcQCHkTgBBw5FY0XmysfuxIzT0EEIY39e5nKNbSsLsx2J25d/dvnPodu+vj1N+wB1uYwQCBzidyCxEoJUsLgT+yGhAoiC2pPKPmdBfLh53LfDYMnUR8qvwoGzK5QnlFb1ibZ3ubWTw5cMCP44SsCCMAAvePYeARDQToHXyg+GhnBJ/ZQxoXy+4Z+u6JuRjmHX0eemeei2HY1EIEPTkFJcii8s5UHEklQUd7J7JzUmF3UnUuEVqa6pCalYWkxET0trajy2KDWStHRVUNJFIZLFauFvlELnpuv/0PhEEhYql3OblZWLN2A1uAs0pnwz/ohlimwKBjAC2trazprOxsZGclw+UOQqVSYOXX3/74gjHeR1FBFaUShbMK0dXZD6NSAr9Qity8NKz7djXsLm8Ev440aTHNtHguMs1q9LvCSE81oa68HAqdHl2dbcgrWQCh2wp3UIy2hir0Dzgwp3Qe1cKGNxCETq3AgCcMmTDMvD9ioQhby8r2jCbzI8cgUPClWq+Ax+GBzzeJIMqJLL59907PCMxQgECWgjlz5jBBRtaaXRVJmrJlbnpm4kdshROuyelZ+M1pJ8GgV2HDmtVY9d06zkXFI3rmb+UCuMmVzRzQZOWNMREYElKx7NorsGP1Sny0cjWn4ISZkxvMsxrHdcB+FrGcsvexNgmgMKd3REEiqze5MjjCvZBQCkGI5BfnPmdPRMANPb5w8aE46pD98eKLL6HfamMW2nFZMKJHeqYzKdJgUxxAQXEp5s8thqXHCrVGBmt/NxQqDTyBEDRqDTZt+gGl80ogEknQUlOHgECE4rw0rFq9jtUj6J0EDwKlOS459HDIhR40t3QhKcnMAIJcpcHSpYfC7XSzidtRtoWLBhYIkJqRDoNWhfTMbIRDfnz1+UoGEMbtv5qObRRxyVBmQU5+Niz9LqQnqDFgd0OhlcDS0Y/61vYxAUJWbjFm56XBEZDAbFKhZmcVstKNWLVuM+YecBBANRrUOuws34LWzh5kZeUhLdEEjdEItVKGjn4nHL3tCIuEkEuUKK8sh9vt+vGB0o8IEJhvN1ODpb+ZjU9f3ALXgGc6ZmpfG9M2AmNoVTMUILD074jblWWD88FOcSx1sQBhtK46bZPwEzXEafzG5Bxccc3VuPKSs9C0fT2uuvIGNLZ3IiwRwZCQDK1KhqDPD5/bjb7efghlCiSmJkMiCCMYCsDS28fSsCl4VimXYNDWg65+CuYWsODrpMRkyKURVleBCM7BQUYyxfBHOASP2wWHwwtzkinilA0hIBCzlO+e7l54fEGYEhLYGRn2utFDAewSJZISjRCEiWlWAI/Lgb5+GwRyDc666Cqceexi/OmhP6Gvpx+trW1w+Uixm8DFA4SmSnTWbuFWTJQl92cbpBhmpmoOhZEFoaCohA1k0BeCQilDb38fcrJzYB+wwecPoaOtCQZzAlKzctDeVI9EUxJcg1ZsLdsJkVgMq806YQEllcqx6IDF0CgFqKluRmp6IjZs2AyxRIHZs4vR19UNfWIiWurqmP9WIOZIgNpbGpGRkQOFXIZvV63awxwIEYQrEEAilWLBfvPQ3dmF/Lx89HR3ISk1CRXbK9DR1RMTScE/J4TJmICDDlyA7j4nTAlKNNZ0ID83EbVNrZCKZSwoUaNWoLW5iWUbCMVyFBfmIxQWoKuzHW5vgEXlDw5aoZQpsWb9OhYkNd5r0ubQMV0M0VtqQtuLdVkkAtKKTVhySQnEkOCDP6yDcx9AGO90/gj3jYj6ibQ/HPg14oWTAQgRjZI3Tw+3Fy1aSTMcG/bzSmnsx/OxVZy2GPVbCv4lDXVIm436JVNNWfhwRBuN8MOMocsOlathAcMRbZY3tXOPsms0C8qPMFV7osmIQkTW3IuuuhEnH7kQcpkK//rb43jnf98gv3QhnvnH0/D2d0NjNmHbmu9x06334rxLr8ONy85De2s3zClmPHTH7fhibRmW3XwDTj/1OPzn7Wfxh4deRlggwcVXX4dLzzgOFvsg5h1wIIIDDjz42GO4YtkNUAk8qGtoRbLZiBdfeBWXXPc7JGmV8Pn88Id9rPjdAyuWQ2guwOUXnMbkRnpmBr74+D/4evVGPPHMkxAH7Khv7IBSIcR999yHLqcUd//hfhw2Lx9btpbBbrHh9/fci+auzomNKJ/FEAEIMyqLgRsJLgaB8q/TM7iUPb1Wi8qqSiQmJLEgqASzAd6gEFKBF4OBMORSMRwWO/QGDSqr6qFSKyOUxxPT40lrLCoqhghBSBQaDAz0oqmpBYKQEAWFxRAjBB9Zh/wBNDY0ICwU4MhjjkFvdwfEYgXaWhpZDAILtJzYtE7L3ZR6uGDBfGwvK8OC/ReiqYEY99Kxft36oXLPsS+i4M/sjFzkF6ShsqoRSQkadHQ7IJGGWMqUyZiIyooKmM0GtLa1Iz01FRVVdcjJyWZAyGzQweX2slgEmVaHoK0Pm3aUR0UG7/7Tph8g8O+cWCYLrTuySibmanH01fOhyZbA3hrAf36/EU6b5yeZ092P3ky/I3YOh+y58TOVJgEQSCGheY+W31w2BRckptAokZSQCKfVwsrIB+PUFYnuVTTAEIhlMBp08NhtcJI2yCUYMeFP9QGsAxa4nJ4hpUIgEMFoNsBg0CLg86Ors5ORiOl0BihkInR1945ahxT3w0aJAEIMzmD9ihxGBBB+inNpulco0+CFAhiTMvHEP15Ed/km6BLTYRTYcfVNdyN39oF48dm/YPOmdWjoaELjtjK895+vcN3Nt+PsMw7DuvXbMWDvx7uvv42yymqIBEI89PijGOjagQcffgW6xEJ8/N7LeGjFLfhq83b8+ZW3UOC34aIrr8c19z2A3uqNePv9L/Hgn59H9ZoPYJw1H1p3H/yaDIScjcievQgNdZtxzK/OwuqP3sNHK7/F4cedhrOOPhQXnnsezll2ParWf4F3PtuAR/7xD3z37ut4+ZV/4+SzL8J5Jx2G5bffjraOLjZswxkW4xxFxoNwLnqaq5gFYcYABPqQITQ9CoYzLtnIgcCZfBieZyufW/LCkCiSFikEs0bQ7yaTWx951cj4OvIlRRIpo2pGDKF1lvbI6hdGofWfJpkhAq7ZScEfFsIoX1bsAUEHlVgogVgqYAiYqj6ysWN+OH4iOFpcAmdSsQh2p4t9KefT49QWoVjMXDLWnh5GbkXul7G0qiHxzUylUwhmnGYLgkgsREqREYeePwvmPAVC4gDsTWF8eP+GiAVhV8dr7NeOde+PfR8Hskdf8WZjKvfxqmr0m6a7Pf5LOK6TaMHLKxOjvnOCAIFG5ZCTTsOvTzgWZp2WmXyrKqrx9NN/Y3E0hBzmH3wQ7rrjdqx+/0O88Oor8AZDCA6dRxEVPeKzZidAZL+RqTohNRc333A9PnvzBazetoMdSQwjCIT4v/vuwSfv/xtbtlUwkzX9zJiUjUceeQAyWRDOfgteePo5bK1uwPEnnYTcDCOe+ds/OM6QCMhgdgY66lj2F4c+IglGbIeyWaJgbf6eccqZvfk2qtsrkclx3Gln4dbfXYH66iqERHLMn52Fe++8E/3eMH619BgM+H04+MijgK5aXLZsOY751enIStdDm5iKY446Ai898Rheefu/0GmVuO+P92GgtwpPPPUmBFITXnn5efzr+b/gu407seKpJ5Hq6MXF192Bmx94ANbqTXj13a/w4MPPoXHT/6Armg1xfyvCxmyEHA3ILJ6PtpatWHzISWiuLMf3azaxs1Psd+PjT7/E9XevQO26L/Gv/63Dw88/j00fvolnn38Fx/zmAlx9zgn44x8egNXhgsftQEdn94gA1N3OC7MgnIuephkHEKhMc9QRwLjaKROBy6GnbAXO7UbCmv7HBaNIpGJ4PF6IwkKIpVzRnCD5d8awQO52gCM3kDWBBZZQrj+3G0ccvLzWS4FsHFUCBxC4fwhZfm0oTClHI8+2kb7DsQ7z8fZy7Pv4hB36UyaTMJrVQddICl/u9ADEIDZECTOPsbAaFl/BmBTYHLDKjPxhw+aCAxBDVAn0kcRnIRRBIZXA6/MiwBEjDGkv0Yc7pdgFg4Fh3oXJfu40xiCIRUKkFBhw2CVzYMxTgKVjIAhvuxgr/1kOt8MXmdsolYwfwHjTGLNehqDjmDKU/0VkE8S9bzS8Y12I++PxtBf9cNTm22V7UcDgx74vLEBfh42tJz6zebdLZYIAgdrLLJiF/Q9YjFtuXoYvPnobX3zxHTZs3ILk9EwcfNCB0CiEOPqUX6Nx9Wr8+W/PImfOPJTOLoZMCPywbi0qGpqx9MTTkGZWIeQPI+B14vtvv0dnnw2nnXk+br5hGdZ/9TG21VTjh82b0NjahaOWHo1EkwFbt6zBlu1VCAZCMCan4dTzLsGVZxyLW5cvx0BvN6rqWrHgoKWYU5SD3vYmrPz6awwy5k4V5syej/mlxYAgiB82rUNFTRNKSxdg0cI5aG5qhEJrgjjoxpdffQXHIFkpZob9QAgJCmfPwV+efQrJWjHuvPV2qBMKcN99y9FZV47qukacdNIpKNtejoTcbGz45D088te/4+nnX0JOrgrtHYOMxOzRe1egps+Fqy69CIcsXgS/14EdZRV49qmnkL/4KNx09VmwWd0opAJP336C5Q89iedf/ifszbV4450vcPPyW+G3d0CkMcPR3owBpx8JCUpINEb0tFfgs7XluPics9DR2I7UVDOc/V149oX3cOcf7kRL5Q94+f3PcPvd96CpbC2WXXMjkvPm4JmnHoJn0AWJVoNP33sDjz3294mdkwIh5h0zDBBmTAwCTyRBIIGEaHJKClJTUmCx9kOjVqOpqQ0ZmanweUPQqFRwuDxQK0SQyKXYuWMnAv4gsjKy0NjSBH/Az6mmk7AgSCUSxoiXmpYOuUyOsm3bGDpPNJuhVsrh8oUgEYYZjz0JxJJ58zHQ1Q6/QAKpACy7QSyRoLB4Nrpa6+D0eFnhJtLO6efJyYlwOJwQiyRwOAdYJcPpuii/XCwWMZ59mUzO3kmCyWwyQatWoqZhNKUopQmp1QZWlZEARHJyCsrLK5kx0mQyIzE5GTu3b2NAKS0tAwajAfX1tSz4Jzk1BVRYq7OjA1KRCAKJEslGPSQKFRobKkFFNcXPwPBUAAAgAElEQVRiCWO9lIjEQwZOvc4An98TYbucwtdPE0AgkJdWbMSSc4qRWKQGRDzVVAhCnxheG1X25J25BJaiXVcR4zIz10TlWgvGeR+zwsRmSBBBVUx7jBwsHhNbJFJ7aBhj2+MFP7UZkyHO3hstNPhvibaF0XfHu4/v45ATPdK/3Y3NWO3x3zEMVMK+ED56YhN6mm3j38qTAAhEFKZPSMdLr72IFx//Ez797BskpeXi/+7/PUxSwOqw4fBjjsVHz/8d35TV45Y7r0djVTkkUj3SkzS47prf4Zzb7sWys0/A26+/DX1qNjq2r8Lv//oSzr7wSiy7+nLs/OE7lFfXYtXKlShvaMVpvz4D5517Pr75+O94/Nl/weMNYvHhR+OWO+/CgrwUrFy1CrXb1+LJZ/6Fg485CWeffiaSpSFcd9Vl6PD5sPiIU3DPTdegtakWcqMJ6Qly3HjtLdAkF+DuJx9FusSDHTur0N3ZgRee+xsqalsRGsXeNoH0uSls0+l9lFMPdXo9imeXsLO4sb4eIrka6empEAQD6O/thd5gZDFZpDBWV1VjwOlCYWE+1FoFpBI5HAM2NNTUQqrVoSA3D3IJcewAQV8ANdVVcPkFOPLIQ5FgMuKYU38DR281brvrQZSUlCDo9aK3y4K0tGQw7r6wGH6vC16fB1KFkuPiCXhQUVOL3JwC6DQaplz0dXbAOuhl8VtujxOd/X1ITU1nz1Zs24mggBh7Z8Fk0sLltaOlvhmWfmvE+jPOURQIMffYc7k0xxkVpMiTSFAWg0iEvPxiZOekw2m3M+rkzo5eZGWnwG53QSSSoam2EmlZuUjMMKOjuQUOhwdZqYlYu2EThGIJC1Ic/6nCDT4J/KycXGgUUnR39yI3Owsbf9jKxMHc0jkQCcMQSpXwDNpQVVnN8mfT07OQn6aFI6xGyGXFlrIKFiRZVFwKr6MLaoMB/f1WtLV1QqFUsUVMAXxk9RgcdMDpjKPVj3MtxN6Wk5uL7NwsZnLLyS1AS0MDRBIZW5yCUAj1Lc0ckVPUxaU5zkO6UQ6H0430rEzs2FEOnUHHrCA6rQ7bt/wAi92BefMWsqjeAKU4Djrho5QekRBBvw86lRwWVwjwDCIjuwgdHXXQabWM8tnjCgIhH6R6E1yWbjgGveywamlpjkkgmqCGM1a5Z94bFVe9jv54gCwHSYUG5lZIytdAIOKsJxFjLTPPciKLs1xx4CBWqPIRaNEmsLiVLyKCP1qoRtw5I2clypkcK4BHzF5MexGLwCggwVslYgFCLOCIdmLvqo9j3RenPdalCPDgu876NzyGnLGFu4c3ixNEC/qCePvejeiuG4izlUdM8vCgjBMgjHCACQTQJmXg5Vde4ADC56uwZOmpuHPZBVhx8/Wo7LLh908/jcGabRCr8nH2afvj3Q8/gdMVwjkXnIMn7rkFbdpMPHXzFTh40WGYe8RpuP7C+TjzwtuRmFaCPz/yMN7+x5/w8ddrOdcfxAxY3/uHJ+FrXYW/vPg2PL4As/ItPvE83HDeMTjv/ItZ0bdgMASBUIwlh/0Wl591FO686Vp0eYNY/tgzOP3g2fj8f18iKJTj3HNOxYorLscna7bhhtfewUL04tprb4JlwIkgWQAjhdqGR32CDH2TPJN+jMeiVxP/PSMCQGm3Rn7B2X8j5HtD+Y+R/RzlSo1eTRR3YjSacM+9dyM3NxN6YwIevO9OfPHVWlqV3ModGkjmpGXWxtggVq5NbqVxveAeZHwL9Neo42IoM4Wtj+F9FLULxzWUZPEtnZkAYXi8BCIR8otKkZ+fDpfDCalMgmAgyAiTenutLCCwfHsZSmYVQ2ySo7O+EUmpmRjo7kBNbT0EEhljmhuexPEJHrFYitzi2ehra4BEIoNJq0JlQwtkCgWWLFnMAIdKo0F3ZxO2bilHIBhCVnoatCopEnNKAE8Pvv52MzPLZ2bmQSnxQa5RoaK8Bh6PHxqNFmnpafD7vSwNkIra2GwD45r48dw0b/486I0GCAIelnnQ19mF5LQM1NfWMYRc20xaxGiAQNUcZ+emwucLQ2sgfv4mZGcb0NbrhEmjRV3lTnT02TBv3gLoVQoEwwHIREKU1zVDrlZCIZWhr7sdKnMy7D3dSEnLhV4vhc6ghdPqQjAogM9tg1hjgLOnHXZPkPWjpakx5uCPJyx38eVTIEpiAYkiIKXYiAPPKkZqoRYiMfd+9v9sd8ewr40SvOOZlX337G4E+MOcnZlRyzPoBQcQ6m0x5nFeRMRZL+MECOTH5i4BDOZUFMwpwh8fvB8fvPICPvvyG+iTCvDQ72/BWy89h+pOG667405YKjaj3QqcefoReOfN99Bn8yIt1YQvP34f2UecjAevPBdLDz8Wi391Ji45bRYuung5oEzDI489iq2r3sO6skro1BKUVzZCpTdj2fUrEOjZjH+++zHKK2qg1ptx1Jnn4dITDsVdd/wf+vp70dlvQWZGNg4+9GScedyBePyhB1HZ1YHjzr4Ml556DD7+z3/gcAWRkmzER2++DotPiBue+RuUHdV46snn0d/ZgZ6+XhDZ+khIFi16xnc+7m4e99TvdzH7o7sQkfzxeAtHcysOj5FEQhwyuZDLZXAPutDS3Ay/z89Oh5E0S9HQIm61myjQyyOLqPGOTAOt+xi8MKmAUpI9cwggNFWhq2YGpTlGzyxZEApmlSIxQQu/18dM/n19FuTmZqHPYgXFDnW3t8KckICE7GR0NDRBb0iA09qJyuomlmZCvPTD1/iyGURiCYpmlcLa3Qq5UoVBmxW9NgckchnmzS+FVq1hdQMCfid+2LydBfQdsGgeGhvbkVWQD60yjC+/Wg+RUIjColIohG6IFDJUVtXC6fCwqpRpaSmseIrX62Gc9vTfdF0ls0ug1mmgEAkYy2N9fTMKCouwecMGpKckoaK+cZQ/i5Ct3pyMQw+aD0uPDTqTAXW19cjJTUN7dy9MeiMaaqoRgBCmhGSopGJIpCLIRUBTZz9UWg3CgQAG+nsQVmjht9sgEClQNLsAInEQ9eWNCEkkyEpPYqlIlq529DvdLAaBNt0wsWmczbO7gZk0QCBwIEBygR6HXFiCpAINsw4NYfwIO+Rw3AAfTPHzOkh3N3x7y++jAUJ0nwggvHPPRvTUk4shJqZiiLQ2Zk7GDRC445iePum8S3H1RecgOzMdlq4ObNz8PR546ElccNk1OOX4pQgFfJBpdJAjiL8/9wJKlhyOBYV5HClO0I57V9yHM5fdgRMWzcK9d63AqRdfg/xEER76/f3477c7cdFlV+Ks045BIOhD9fb1+HZTDX575lnIy85ByGNHl6UD1197I+YtOQ7XXnc50nQatLW145v/fYyXP/gvbrvjdsybPx9Jai26Wpvx7gdv4eOv1uLWO+7EfiUFEEGEQNCNW2+8AUt/cxnO+u3xEPnd6Oroxnuvv4bX3n4HvlEU8BMSs3vLUolAuuHu7HZHRuR3rPDlWxjr5/yLyH0wTDcfCQYden007OBXU+xQ8W/ggUTseo3cHwEIY9w17vEXCoSYPRMBQnS5Z9LuEhKSkGg2wWa3MYbApuZWZvahADciqwgGAly0LuUnIQyHwwWdRo7Wlm7IFTL09/cOFXEa7+jSe5OSU6CQEU+9Ew67ndUxIDYtAimEJgPMFChkmj+ZBEtL58BisaHfYoFaJUN3dz+LA6C0yIDfzXz3jkEHerr7WNwBcaiT5UAoFLA/WaT0NF3Ety+VyxH0eZCUlIz6+gaYzQmsHHVKSjJ6entG8RNQDAIxieXnpKCluQ1qrQ52qwVSORVa8kFvMKDb4kSySY2OPjtzOTgcdoioDoZCwdKv+nt6GClJp3UQZrUUTR09yMzOZmBKIw7D7gtDLhOzAkItjY3w+Hzw+33o6uqLn6o23vGYZAwCxRwkFxhwyHmzkFKohZC5Fei/uFF3Y/CojbeT++6byAhEH9ghDwcQeiMAYbfCgF40boDA9YpUB43BCINWF6FrD7MqqFQvQ6ZQsxRFEgOBUAgS4lexWhEWSaHVqKlwHvxeN/otNhhMSZBLRbBZbVDr9BAhBLvNCpvDDZWaa4fOKadjAP4QGLU5nQGRYrQsnVGu1MKo54l4ANegg7n2zOZEVr+CxkYYDsHhGIB1wA6NVgedVsNo4L3kF7f0QWdMgEou5T4uDOZrt9oGJqWNTmTe9uS9I0XucH4qq9kTG7MbvaDG6uRYC4thqJgGJhzXthsnQbz+jWuhx/+YGQsQyHAz0o/EVyPkvMHD1QL5OeOLOA1rAlz1QUrp4Tw/oRhik2HikbGXc3SxJn5XcemUnB+J/cki+SktiUv/Y3sxouFwVSejsx44hzYzXEcqUnL3js+qMZGNx72XS7MayabGpYZytSlGXmwPiMQQi8QI+P2R9MQQxBE2SPq9WK4glykGXVQ2NsIsFvHSc+MSSfEUiqCUS2F3E50on/pJIZ5k0RCx+IaWpiZGhEV55oEA74seSzDvZqdMEiCIJSIUH5KBQy8shlzDHSkEEEJCLliQNMPRV7yfTWR29t070REIeQT49z0bfnSAwEkVbl3Hlsfh1veQvOXlbpxP4TVy/lexFo/Iz6NSs7nGRq4rjpZ3+H1cK9w9XN+G90T0G4bcYtE9m4Kgmehc7en7xVKO6VCj4opV0blHhb4oYNodRdI2gvlhFHqI6nW8sYoHECKWmHhNxbNGZGTk49jjDsN/PvyQWcFHXfsAQpyjNk65Z6a9Da34iKBj8JqzvXB/DPNcUz0GAQJDPsugkAoFUSAZ+bcptJSjw+QbHa9BjQLzhCEOXEQAPleIKOaQ2PWGiF0+0dHCu1qlP9Y2G887+Xu4FUsxvUMBPnQsRc9PJOyGG9uRnk125jGuce5XfHES+icFb44s5ztWv8bTX+7cnH9UHtxWD2o281TS0c/GBx7kp5NrJFh4Qj7mn5IFsYyL/B+2IMTZtXFBw481X/vapRFgAOHe9Qwg8MVr2IzuSikbpwVhRBNsyQxX8ote1eM9N7hOxVt7sWtpLEkUkXNxAAD/m7Fq+43YLePcOj/rFSYAtHodrrjqKpx9+hloJoZXoQipiSbccuNN2LxtJxdOHFGISKvmZAFL3GYjLAqHQPpJCCIIhRSxxSmibN2RckTrgRRA5v8i2RSOpH9z0Stc8T6WbM+CSUlYkLzgSKuIyplTFFPTcrH08MX49NNPmHWJSLbo5yIB57og9Ylzn9HzkfdRoCL1IZJOzs7UoWWza9Q3Yy0IlN7I+yJJSCemZSIt3Yje7l5mzmtobEZOZi78QSqKJIPDG4ROHEbZjipm+guEQ8jJSkc987Nz0U5cOAlX4Sv6QBhriIn7IDc3D+JwED6BCOKwH3UNzUOzM1Ic/qy32BQ7zx+GY1lBdnWCT/HV0Y9POAZhZBS/QiPF/icXYs7xGRCriG+D/5441oJ9AGEaJ258TZGL4d/3chYE3vo1Ivo7rqwVInvWIsgVKtRs4QqnjVeRjgcGJgcQxvvG2HHYtXQfV19+CQCBBLSIO6sffuhBfLXyK5iTk7BwXikeuO9+XLLsVhy0YD6ee+4ZnHfxpRD6B1DZ3oe5hUXw+lwI+v2M9fahhx6DSKDGvfeugEruQ019G0pKCvH4o4+ivt2KO++4A6nJCbDZ2vHkY09i7YZtOPDQI7D8tpuhUcqYXPnTA3/Ed2s34qKrrsDpp5wICURwDLbj8stvRl5uAW67awVMWi2uvOwS1NY3QCAS4uDDluLG66+DXq3A5s0b8M9X3sSxJ/0a5599Kux2C/zBED7491t44/X3MOgia2w0mdyuLc8zFiDwW4W2M/n2M/JnISvTCLfTCaqRQNkL2ZmZGHC6AWEQTXW1SE9Ng9XhRZLJiMb2NpTkpmDjlp2QSRXo6+0Fi2uIQK/xbC4q8rRwv0XQ6mSwWT0sr3vrDxvhD3CpbvsAQvSBthecRJMGCNxMEmJXaqTY76RCzDspA0J5IDLPUVofT6Yfm0c1Phm3764pjEDISy6G9SxIkWcnHLIgjCWDx2lBGKtbw6t65N/YIb3LJT+eE2YKgxF5dA9B76l39EdtgbP2ULzY+x+8j9S0ZGzeuAYPP/oYKndWo7h0AZ7627OQhv1Iz0zBsuuuQV1jDx575DE0N23ES6++h9POPBtKcQh33Hwvzjr/fPzhvuV4/eWX8N/Pv4bV6sDdDz6A7RvX4NNPv8QZF16KJcXpOOecS3Hpsptx1BEL8f3K76A3aPHqa2+hrdeF559/HP3tTehs74dIFMBDf/4rfIEgMjJz8NY7b+GC3/4a2yprkJU3B6+/+gJeef4J1DZ34srrrkfDzi34ds0G3Hn7rXjplX9AKNPj9hsuwSkn/hYNzR37AIIwJOSEeeQiPoLCWXMxrzAbvbZ+SJUyeAf90Oi1sFntUGjk2FlWgdnFOQiJZNi8djVKFyyBAk5sLCuHWCpFX2/fyKCzcYB6qUyBw488GiqlAi6XA0HfINZ+vxZu3/QFEv6o++aX1viEYxBG537TgSsjS8IphSg5Nh1yZZj8K5ErhDBzWzGD5Qj/7y9tqH+K7w14RHj33k3oqbeMSs8dsz9TBAjD7U5UFO8ZgPBTzMPe9k4aaRGESEjOZLTU36z6ChqdCgGhGOtWrkRVVS2uvf1O3HHj77B25X9x6ZU3IeAX4R8v/AOv/uuv+N/Ha3DoUUfjkvPPwuWXXIPjTzwdd958ES66+ErUNbUgPbsQn332Mfo7G9HRRUHnMvjsvbj1znuQM6cUl118HrJS02DS6XDf3Xfji9UbcNHl5+O4I45ESmIqBrqacc0Nt6K+uZ1xyfywdSsuP/tMlNXU44DDj8ZjD67A2Weehc7ufpx9/nlYumg+Xnj1X7j5lmW4/4H7IVUm49WX/4qTjj0VDY2tcWPHxpqTGWxBGKZaJl7/klkLkGaQwR3yQ6JUoqWtB3m5qYygx+0Ro7+rA8bERGh1emzfugEqjQm5yWZs2r4dIqkUVoslfhjgLoCCRCrD3P0OgNmghdVqgUQMbFy/gVkQRofH7m3b5qfsz0QP0133NToMcpcH9iQBAsVFjLAICQCFSooDTyvGnJOyIJQSAyXZsgQIDQbQtMWOgDPWl/xTjvcv4N1hIBgIY9MnVRjoHUSY2Byj9u6YHIBTAQgxyzg2AJlGfWwjAgcQyK/MBwiPpjaehn0S1YFpaO1nu5BkMhWOP/E03H7rdfjyq89ZRtQZF5yDF597BhnZebjl+t/hhWf/jssvuw5r132BFXfdj7888yKSE4L46L/f4LhfnYx13/8Pz7zwDq667GqcetwSvPjiK6iu2Imvv9uEPz39HPYrTMGH//kIs/JnQa8R45bbf4/b/u+PMGuDKK9rwplnnY3XnnkCm2q7ceut12Db+lUwJOTg+KMOxa9POxWKxAwUZ2Xg/+5agddffB47yiuxfksZnv3nq3Bb2rCjshqnnnoiPnjtDVS3WXDLzVfh8YcfgFCdjj89eCeuvfoqfPLfrxEgZuBR1xinJDEpEtUyFWuaSTwIzFPIAv5pgwmRlJqG7NQklouvVctQV9sIU1IK5HIl9AYlggEBJEIf6uq7UFSQia3btsOk0WPQ64JKrUJXV/cEAQIFiAiRkZUDCaiutxAi/yAaWzu5c2kvsKjvTbt5pAE2+qgaicDGP2zcndF6GH0v1xr/U/p7lA9uLIAwZkAP18/4keACSJUSLP5NEWYfmwKpigu2HGj14/0HN8Ld54xTV2JvmpGZ0xfmAIqwWZIFh2MfHEn3POa6miaAIBSJUZRfDIUshB0VNRFGQxHjz2D2pCBH9kVU4sGAHyKJmAEag86MIw+Zjw8/+5r5uume6DVM1RqpnDifPUfZUBS4G33R+UdcLuQCC4cDCPgDjOWVionRg1QrhZ4TCcUs1oprIzACQI3DYPqzXjAqrQEXXHwpFi8s5fKqwgIEgl68+f7HOPLopUgzqPDlf7/EIUceB5k0gDfeeA833H4fGrZ9CZ05BfWV2/DSq++gYOFBOOs3p0EpFbP93Vpfjj8/8XcI5CpccfW1KMnLQtjrwXfffI2PPl2J08+9AHNm50CnUqCxejtefOkNqIzpOO/8c5CYZIYoFMBnH76Hz75di/OW3YDFJYWgpFOKb+rs6MLDjzwKjTEFV1x1BRINUqz99it8+vlaHHXCSThm6SFYu+oLiLQJOHDhAny38nO88vo7Y9RiiL8DaO3MSIDABymySowRsDAkHiJlV6lCIKUFsSqCkYsOEmGkuBALcmSVHDnJwu4a106JFkvRmiL/8Lga+VlvuIl0nh8tTg+n/6LR7EiaUM44H7nGVHmGx5+LJh6+ItECUT/ZDUCYKB/ZUJ+4v8hVYhxyRjFmHZuCsEKIgeYgPrh3HVx2osQe0/EdFVrP9y8eqNndz/golzEA0RD7X3Q0zK444qbrvuj9wY9BdCBn7DdHv3fiz1JkN3dFjwO/mXezF6cJIBhNybjykkthMoixau0WrFu7ATkls3HoIQsZWdiXn36J+vZO/O531+DJvzyOG5ffjDdeehlz5i7GOb85CO9/9D02fb8W9e2tkdglbrySk7Kx5ODFUKpJbIRRUVGOsrKyYSFAGTYyBU47/1Kk69VwuPrx+stvYO78xVi0cC7MqRlor6/ElytX4VcnnAyxMIjWtkZ8+slnjFuEv6h0yMy9os+LkYc8T4zOJ6XTMIjEIvzq3Cvw+1uvxYav38c/Xngb5RUVjDxqKLRo1HgNn2vRqaecekE3D+c9cCcHl5EQrUhG75CR6g+XUTF8nox8A6eJxHRonPM5YwHCkMCPlC2laE+xUIBgiPQ4AYfgCXpT5cFIWVMaRCoERHz5VH+BUvOoUBM/9KPIw8bcMdGSi1j2RJCIJfD5+DrtYcYTQGkzrMJkiNMe9saLFSghPgO+8Pw4EBJlbxBpC6XVkNZCNcgpUJT+TaRQpKHQz2mspVIJFxke4saekPtYAIHaEItE8PoiBxcbZgFjmqSLtDDSiIjBktOKwoyAiVWTjAwut1WiBUXU5plwkGLsjI0WQNQzuUqEA08vQtFxGRjsCeKD+9ZhcGB3AGF4BQ+/JR4iiv1ZPEDKC8eRh1/8/L5dvSP6+Xjv2Tt/NhIg8GMR59CMtwGnAyCwNDYpDl54MLQqLz7/bgMUagMuuPA8tDXWMDK0jKxMfPTRfzBn/hKceOox2PD1p/h61XokJuTjqnMPwQNPvkoLfMiCwK9hjVqPrOx0to/o6u7uQmdnZ1RJXwHkCiUOO2IpwkE/Zs0rxZqVq1CcNxvfrPwvivc/BCKfEyJtMkwyD+rqmrFo8Ty88drbjNyNt1dMmM9nbzzMdnle8yJ3mIt1eIWMPC/ofPnNhZdjQX4mEPbjP+9/iM1btnBzEy2nR72P2x+8xXFIrkR+yu9H7vcjs2Viqp5EnhiOgRqWHtzPuH9HfhpN2DZRMUPVHKncc8sMczGMYFIUCpCSkoXczBR09FmhUUnRUFuP7NwMUIFCo1YFlwcQS4GyrdsgE4uRXbIACoEHW7aWcfXPWT7rOA0IUQtDIhJBplQjwZyArs4WeLwBxs5WUlQMu60PGmMC+rrb0NMXTeW89+wuqoDZ329hptBAkEowh+HzeMbWfYm1MjkNOalmtHXZkZaoQ0VVFeYtmouWlm7kZGWjq7MbZr2GoW6qcqnUaiAWBbFjWwVcHo7lXSzmyj0zC04ESBNdtVYpRXe/jXFJEGsk1bjIyM6BDH40NjYCYhmK586G09KPri4XEk0KNDc3cwVmoq64yT0TjkEYCyCMhCH0L5lKgkPOmYvUbD0+eGQjBgeIEnuiu3XvWRc/p55MiUJsGgACnc8EEA5YeAiyM9Uo21kJy4ALvzruRHT2NKClrRMepwu9/Tacc85F2LT6axyy5BD86+03AJkR1131W7z5zgdwDw4ys3I0hwORhMlksiEXA5H7+HgAHcFCucVzcOZJJ+C7dT9gyZGHY9WnHyEzuwDNTVXInX8gLG2NsA74kZdmQHlFJQRCAWqra+ANDvuq43Ci/ZyWwO77OqY1cqxHSbGM7GCmhERbqWKBeKSNCb9j+N0jwqGjQMhQ7MxQ26MDp2Pd2WPG24wBkGckQGBUt5EPJg2+sHAu8jMS0efyQikXo7OtAzk5GfC6XBAKxahvaEFKRgbaOztgVCsgM6XB2dPMeBBkMglsNsqdntiRTpu3YNYsGJUKiKVi2B027NhRw0gziDddGPZDIFfAY+9HS0f3XicuKDiquKiIVbtMTU9CS0MjDGYztpVtg8vtirtz6Jn8kvmYnZ2E9t5BpCWZsG3rFiw6fH9UbKtBOpXQrqlGZkYGrDYbjCY9IBQj7Hdiy7YKWKxOGAw6ZGamw2gysrXd3dvLtCCr1Q5R0A2VMQEBlxu9/RboNGqYU9MhCnrQ02dh6NzicCIjNQk+vxgmrZwV2mprb8XAgH2IICTaojD0IdMIEGK1BDrBpWopShZnomZ9C9xOLh85+ij5MfVv/j2TeUe8Z/dUv2OP3cm8d0owbBoAAmcpFiEhMRWzZhdCJggxQezyhTF7ThE7D9w2C9q7bViwoBTfrVyJpUceiYrt29BpdeLAJQdDBC/6u3uws7x8JMnTbkQfeVGVah2OOvJwOFw+KORi7NyyBQKZCvNLS5CZW4TyH9Zh7YYtWLBwP0iJ6kcqwNp1m+D1eYdN5lNCWbuXzz/5HdEbYwz5PmYfh54dQgzxk9hj3kHALjkpGS0tLSOLh8VYIaLtF0NuWEY0F0UFzZ4ZeWdceT8G/dZY3zZjXQzRQYoEAIpL5qI4PwNW+yDkCikCbidjz+q3DUClkKOsrBLFJUUs4eWHdWsgVBmRl5GI6ppaSCQi9Fv6Gevy+C5uJcjkchxx9PGQhVzo77OA4iK2le2Ay+tHSlIKlDIh/AIREHCjtb1rrwQIRXl50JrSoE1Qw9fTjoBIia72djS2NMc1pwkFIuTPKqttHakAACAASURBVEVpYSZsTh+0aiX6utqRX1KIrdurkJmWgfJtVDmzBBarBS63BwlJZkgFfqxe/wPsDheWHLIEDvsAjCYTAwh2xwDMqZnYvmkzEg1KiNVGeAZsSErNgEolgcsHBDx2eIJ00PajvcuGjMwkaHU6hP1udHf2IyU1AavXrB8VoDNiSndb7nl3omb4BIgOXOTPG3KvUK2PMLmxIi+eLq9+vDIv8Y6LeBEG/H3RoCmeE2ZX98UCrtj37Ko9fnyGAH0UcKKfxXuWbhlvtMT49uwYd00JIETWQ5gY94iplZSWSHlfdp5HvmzooKcvitBzc3Y0CInJNcpEzJO/jdNBwimPQ8uSAjS5ADe9wYSFCw9AssmAb1d+hfZeS4QRkGMAHdX+7pb+lAZ5L3h4OgDCKG6TmEGLeYdWo8WiRYvwzTffjAkQRndrJMQfwhIjJzqudXIynzhjAUJ0kCKZqvOL5iA5WcP4+pVyFbq7yYKQA9uAA/5gGD3trTCYEyFRqdBWU4VAQIjUdDOqa+sY17+NiqqMO06A2/hEyHTAAfvDOdAHlcoAQdiPrVu2YNAfREF+EdQSIdwkNHyDqK1rjFBh7gWbJdIFWhxFWXlQmlMg10sg81gglulRvbMKrd2dcQECRVWXzt8faUlaWKx2mBMT0VBTg4X7L0JVTQ2UKh3s7U1QmVMY7WjA44dKI0fA48SO6npYrQPIzMpCUnISFAoFQqEgpCIBRCoDGiurkKSTwwMZBgcGIJZJoVBJIJQoIQi5EQ5LIaDoa5kSlv4eyCQyJJn0GBy0o7unD43NxGI5cnx3DxBide7pOSnjGAJHhGbyvRzrPvp9dN/j3ccL1sncFw0GorV4+nl0e/Hu44V3tJDZVXuxwig24Wq874gGDePG8rvbblMBCDEU4jGK4e7eHPV7bg1y4xBHeI+lKpJrI0ZURK9eyp/ggewQo+T0LO8JfNsv91atVov9999/FEDYrZyJt5D4Y2qa5494EOYccy56Z1qaY/SyI63NnJiCtDQzLP1WVs2xrq4BJmMC5Ao5NDoto6OUIoDmtk7kZKYgGJAgFHahtbUNMpUKPV3dE1jJ3FamYL3MzCzoVEr4Q0EEfW401DchIBBgVkkplBQEKZfCPziAmtoGFqS3N10CoQRFubNYqqdIGoZWJYfJqMG61ZvhDQY4WRuzIIUCCRISk5CaakJHZzeSzSZUVNciPS0NHq8HGenpsFpt0KlU6O63wGwywuN2QSkToby2ER6Pj0I02LxQNUk6wtRqJcQyBQQE7iQCdPRa4XK64fM4AbEQelMCZFIhHHYXlHIFTEnJGLBbUVdThySzgVkqqPY6uQlj99GI7k85SHH8szdCeEc2fLw9PtZ9Q4L6R3qWF0hsinfzDv6rRwof7qe7chGMeMcoccj7d7lGxhqboXdE9TF2bMY/K3HunDJAiLNJJtwhfhXwAW7joHuOmTNepsSbo+no4YQ/ad8DmDRA2INjN2OJkqK3EGf54UhHhqokDiWS0c+Hk1j4YH0BS4WMin4ft/WAnz3uSKMBZjie0TQTkx63HSmDYjh5gopxjK3zcN2PquK4BxYIxRIolSqkp2Wirq6GjYVao4VEIoC1z8rllcdFq3xFSu6XlK3A527Td4jYeHC/4wqYcPojf6hHaqCM+EJGFBNlauYF/dAMUVESlrscmUc2oXx1Thb8PVRVb1hbjSNyxnIxDPVmmuH5npjHfaGQUxvlKQGEqb16Sk/HaJmTt15MqRf7Ht7FCOwDCBNYHhQEaDAYJvDE8K3CuNUch4X7sMjmtknsMR9twuQ52vmwYD69L/6T4+kupfyR7y9S7IliS4gdjT+4I+WceeASXVaZMa+Rf1IohIjKj1JqZkSuRd/PIMdQfs10CjGygnClqDmMwr2cakxQ4KfX42EugHgXJ9Q5kipE0gyHxmHI9EBjw2mHXMqngJVGpjxjX4Ttiy+Fzd4vFHClnQMBBvTiWtUEgFhMKaRBhIJ0TyTth6EZftwj5bOHhirylykHKY5nPUTu2XdiT2CwJn/rlId5WgFC3BU7sY+L+qBdfhv/qujW4x0NMe2xs2RiPdp39yRH4OcCEOYcey56m2ZYmmN0OWESLInJqUhLTWKUx2q1Bo1NLcjOSIXH74dKoYRzkIIXVaiqrIBMKkZKejr0Oh3KtpRxpn8m4Ce+dYh3W6mQIC0zBwqZCNu37UQwHEJRYT48Lhd8/iDEIgHaOjqZMC2dNx/Wnk4ERGJIQn60tHZBoVYjLdGMju4e5Oblo7e3B12dXSCOguSkJBalLxRJ4PW44KPI40ku2NjHJBIJq2xJaVNUjyLg9zGLiNFkhkapQm1j/WgzgkAArUaPlJQEFnCYnJKIqp07EQgDSWYzktLS0N/TC51eh9aWVqRnZMDn9UAul6K9sxsJBh0CEKO7sxWmhCRo1Crs3LmT8VYoVGpkZ6SxrIe2VkoZ9TLgRN/LLDWERQIBpGVkor+3B3aHgwWdcpWluf9FYEuM8XsXAGHEoEzXyE7TBO1rZrcjsPcBhOlbQ9MAN0aN35THa7czsu8GfgR+DgBhxgcp0mSQtptVMAs5mclwDzohkorQ02NHXlYK7A47m6/6xhYkp2fDZrMixajBjqoa5GZloL6uDlR0qa+vLzKv49/gpDEXFsyGShFGc1cf8jLTsPmHMkjkCuw3dzYCXi8USjVsll7srKplgi45NQsluWZYBVKI7b34oawOap0ORx5+ELp6LRBLZOjp7kNdbTWjiU5NTYWN6jzIFBiw9sLlco2OQJ7EniTNncBIQWEhKreXsXTNmooqKBRyLt0z5EddY8so0EQLKr94DpK0Mtg8QmRkmNBSVQm5wYiQJwh9aiqCThvcASFCQS8SEhLgsDkhFAVhdQ4i0aBDUCiBROiHzeGGQavB6lWr4fZ6kZKeDZNcDFNGNnp72qFUqyELh2EPCiAJ+iFTKuEasMAxGITXZUdHXzcQFrGy32RP4mZu2Mkwalj2YAzCJKZk3yM/xQhMqwXhp/iAfe/cW0dgH0CYwMxMt4sh+tXEophbNAeFeRkYdNghkYmBYBg6kwl9PVZIxGFs31GJwlmzGQf6jk1r4fT6kZObg9aGBkgpKt5q2bVwifOtYrEURUWlaGuphkSpgkktR01jK9QaHRbML2U5x6Qlt7U0YdPWbfAHgsjKyoZaKUJacQmE1i58sWozVGoNFpQUQazWQywSMqa0yopyyOQKZGVmY9DpgFAiR193O5xOx5QBAu9KmD27FNqEFMjCgwj7A+jrtsCcloz62jooZFLUNjWPyuygZ1MycjCnIBNOnwRmswJN1fXIStWhpcuJtLwCOC09CAtEjOeAwIbdNsAKWYUkUmjlErR19kKnUQLhAIRSJdZ9uwpOjxtZuUUQuu3QJqdBpZDAaE7AYH8fHIEwwj4vgiGiyfaip98JUdiP5s52BhC4+IRoC9AYIG8fQJjAjv2F3LoPIPxCJnrPf+bPASBQxPiMJEqKZlIUC0UoKJ6FBLOJBQoSCOhs70BeQQGLhnf73OjtaIQ+MQNavRk7tm5BwOdFUqoJTQ1tkMvlzLIw0YsKr5SWzkEbpfWpzYw50WKzs/b2W1CKgMcHSJUQBb2shCcJy8X7zUVNXQMS8kqQqJLgu+9Ws+DAhQtKEIQcYlEYbW2dqK2rgVKhRnJyIjweN3ODOO125iqZ6sUDhDlzSqFUa6GQEZ2xCG0NzciZNQvr1q5FWmoKqmrqEIpiW6P30rN6YwIO3L8UA1biODCiurIWJSWZqG/thl5nhAQBuDx+eAMhGA0m+D1OhIM+OP1hpJkM6He4GEBw2m1Q6U3YuG49cw3INGaog4OwBUWYN6eYxRpU7tgGD6TIzUqjjHGE/QQQXIDbjqbOHhZcydwK4wky3ZMxCFOdpH3P75kR2AcQ9sw4/wLfsg8gTGDSp9uCwDIQIk46ElpmcwKSEhMZe59CIWPpi3q9HjKpFHKVHL5gGDJBGL19NhiNRnR3dUIgCsPrDUKlVDC64dhrdz5Aem9CohkKhRg2mxeuQQcCwQDzl6emZyLodcLu8rM8f/p+coWUzipCv8WC3gEXdFo1ujs7IJPKkV+UB7t1ADK5CjZLD/r6ByCRSmA2JWDAboHP72N1vgOBkWVsJzAFQ7fyAIGCRqUyGatxYDIa0NbcBq3JiK6uLqSkpKCvtw8ez0hGRapzYUpMRk5WCjpaumDQK9HZOwCpWgapkFIlNei12WFUytDc3g2lSg2lQgaVUormtm7olCoWcyEWgRFKySVCBARSCL1OdFoGkZ+WgKrmDqSlpiIQFkAuDMAbpLRIGUzJiehqaYJIqoatuwv9VjtCwkjVvlGehTje1n0AYTLLZWY/sw8gzOz5jfN1uzvXdzUgE3lWo9Fgv/32w3fffTekwEQHqU984EefaVOJKWHfMlOrOZLXmciSRrgahmhGqOxpJK2QD2gXCBm/P4uOZ9H6EZ/1LkIO4lfQjn1nJHaei5TjLgqoi+TtUd2t6EIoLJKflWWNeMxZf4ZLdfCZDZQ6yAo90XeMaHvqYcg8QOC/ZFj7llCZKy7hkL0zfqYIAR0KvAz5BQiGfQixNM8wy4igjAaKCQhGshe4WpqUvUDzRb8fHnBugQIqlRpej5u8QpDLFRgcHORyE4Tc99NjMqUKCYmJjPCK2Bz9gRCX7cCqcUbGfsRcxtnK+wDCxM+kmf7EPoAw02d4worfeAAC3bO7aDVSFCkQnILAh4p4s7OfF+u7ayG2JyOrLERn5020JXa8RmRV6THnomemESUNMSnGUlRH8SXzwpafzGgzNA0OCR6uzGlkqCP8uCRvosXLeAafn3KuJa6KJASR6oNCIbMs0PulUikznZMlgCq0OZ1U1AcsvU8ukzFXgkgYhouKPkWqJEYvxdha8FPe3ZE1R0wDQpEMMok4AkoAt8c9ahswRoKolTmUJioQMxpZMvfzYycQiqBQqOD1uljhpeFy2pScyHMjjFUhTchRQ0RSJqnSo0qlgts9CL8/QlcbBRAn7WKYaLnnKQ/4vgb2qhHYBxD2qumYemf4wym6JTrQOSUiHn03f+cogRutgEY9y7GxCBBkh34sv010XUaWYxUBB8Op5MEwyYeI5XPcHzyyXU7t4q5dhGWPaH1IMYxKISdldkYChCHtNwKFklJSkJmZib7eHmjUajTUNSAzJ50x7Ol0GjjcfqikQpRtL+dS5sIkzITwsZz7mJUAKhk9fO1qAkjY03/ZWVlssVCAHyBBXv4sDNo6MOAPISctBVW1NfAHAigtncveLZHI4fa4UF5ezlINi0pKISNqYnqz340d1bXM4pGeng63282qiblcgxh0xS+iNO51xhXAJrsGe0QqlyLoD0IqkUCjSUVWmgkdPZ0w6vXYUVERQ7zLxSAkJSUgIzOdVZ5LSEhEVWUN5s+fh+bmduRkp6Gvr4exiLV1dKN0zmy0NHdCJQthR00NfF7uvVS3gMo4M/YIsjoIhTAnmOFxu+F0DjLAZE5IhEarRVNDPbNOzJs3D80tzRAJJbBa+1lGBwGmcZvt9gUpTmSZ/DLu3QcQfrbzTPwxHFEdlX7nzhQmMENETBet1o0GCPxH75JWfAyAIBKLYTCa4BkchH2QU/CGr5HWYKr2G+kU45QhmywRyInFchgNOrg8TjgdfBsCdm6GgwE4KVttKK6Khy7DFoRogLA7kEDno1arY6nnPq+XuY5DwQAHMCJUyzPOgsDMyhFHAdViyC0sQVZmEjzOQYilElaDPScnE4MOB5uUhrpGpObmwtLdh/QEI3oGnTDrVCjbuh1yqRz9/f0jiqbs1n7E0ivFmDW7FHqdGn5PEBKZAJvXrYcvHEZORh4rUGTKyoEi7Mea9RvhCwZx1NFHoq2lCwWFuaioKEddXT1kMjkOXXo0rB1NMKXmoLl2J2rrGyGWyVFYWIi+ni5meejrtzDz+1QvAgiEiaRSDQ5YNAuV1XUomT8X2zaVsZiH3r5uJBp1aGhuYSyJI5a/QIjC4lLk5iajp8eKhKREVsZ5yZL9ULmzFuYkM1rqa6FLyoBYEIbZrEV/vwvSsA/l1ZUsbkCn1aOwqIDRLVP7tt4OhMQKVgnSbeuBOyiCOOiBQCyHQquHMCyApaedpUIOugcxZ3YpyzoJBwWorq5kqayTtiCMcOKNx1Y01dHf9/xeNQL7AMJeNR3j74wABx57Oq695Az0123Fax+tw/LblkEuCuPjN17Ayx98g1CYSstH5HNEWjCZyPY8Zwmlc0PEFKaIJZMUNKZh89Ah2jbMnQ/G5Awsv+1m/PDFf/HuFysjZyTH2MtZKagtMQrmLcB9K5ZDJZeit70Jj973AKq7exhASEzJwe0r7sTX/3sf//v0S9YPsViB5XffA3fVRjz19gcI8ORvzOJATZNSyznHh6wdPE8My+LiGXnp92THJoVTAIlUi8uuuB4XnH8i6qoqcNvy29FDaf0RN/aQBaF2C/cBUeBq+fLlePjhh8c/LdSF8LhO45FtTneQIp/FQPNMEfj5xXMxd3Y++nt6WDVHt9MNjU4Pq8MNnVaBrWXlKJldzPz6P3z/HfY78mi4+9tQXl4FmVSG3u5ezmQUe+1CZhB/wpLDj4JEGILHG4Qk5Maq71cjEA4hPTENBr0RcoMCcLlQXlUDt9+P/PxctLR0oKSkGNu3b2MFnKgaZX7RLPR1NEOXmA5LZwtHAiQSMx4BivYngOAYdCHgH67hPqFZi7qZAAJd5sQM6GRBdA24sHjJAajasQNSqZoBhCSzFo2NLREXzPDDIuprwVzMKkmH3e6BVqtBT3s7cvLTsbOqBXkF+Vi3aiWSM3LR3dYEo14JpSEVJrUSmzZvgtVmxyGHLsHAQD+CYQGkCiVU8GIwLIHHG4K1rRHJeUUIuR1s/vRGAyz9g3ANdMMbDLKqmwlJSehpb4MxIQNGgxYbNqwbVcUx7tjsi0GY7JKZuc/tAwg/07kVICWzGE899ShOPvpALLv6BthDBty97GzcfPsKqAx6tNRtR0hmREZGGjo72mFKSoNMwlkYwqEQAn4vNm/YDE9AiPkLF8Kk08DvG8CWzVvQZxvEov0PRlKCHh3tnUhNT0Frcz12VjbhgMUHItGsRn1VObaV1yAcFkIuU2H2ggVISzYCYT8G3U7U1NTjnAsuxWUXnoOnHn0Ib73yNvq8HsiUahy0+EAkGHWo3r4VO+uaWQp34ZwleOTR+4GmbXjti2/Q19ON9Rs2wZiUhv3mlUImFqGrowU7Kiqh0hkxb8EiuJ1OeAIhpCTqsGPzBgyG5Zg7pxhKpRQumxVrVq+HKxCESCTFcaeehpsuPx+XXHwp2ropA4ws5eRiOA89zZXonEkAgQ9S5ACCGEWz5iIpQYeg3weZXIb29m7k5eXA4aDMgiC6OzqgM6eywkAt1ZXImDULHU3V6OjohkKmYBpp3GoJuwAIEqkcC/c/EHa7BTqNASKhD5vWb4Y3EEBRfiE0ai2EChHg9mJHRTmzIBD3QltLO4qKC7Bjx07OvC4SI6+wGH1tBBBSYe1uh8PphICZ2c1wDAwwgEApjuTLn+rFLAgIQ683ISPJAJdIiaK8dGzfug06nQnNbU3ISEtiC5xlTURdjHlr7v5ISdHDYhmAyWxGXW09Fh0wF9VVDZBrDAj5XHDZ+tDV3QuzSQuRygyDSoodO3f8f3tfAiZXVef7u7f2vaureqve16TTSxISCGsAh4Aoi+AuIKjPGdyey9NRx1EHdRDlgSCIiqOjvPGbUeDzPVyZAJqFELIvnU56X6u7q6pr6dr3et85996q6iVJd9IJXelzv4+PTvddzv2dc8/5nf/y+9PqmjXVdaiqqaFlaZVqBVLhAKA2wOHygQu4Ecio0NxYS9NDFRoNogk5Qp4JBKMxBIN+FBWZEQwFUVFahdHxYYyPj5+fBYGwZmY8ON9hVZjXM4JQmP1GreMqPP6DJ3H9tZ3wOOy494GH8OJPH8bff/Pb+MmPHsX+V36ON/o5fOozH8fr27dj3eVb0WAzIUZM/CQrTKHCow99G1WdV+J9t96AQ/sPYePVV6Jr91/wxX/+Pt7/4U/goX/5POx9vRh1TKHn1Ck88sgP8e57PogP3/M+/PVPv8a3vvsTpDMy3HnnA/jS5+9D1/EDsDW3o86mxN23vh+W+g488ehD+ORHP4oj3UMAktAai3Hfh+7HA/d+EC//6ml85+fPIZGW4aob7sAj3/s65J4x/O3QUYwM9eEPf9mBR3/4FKyqBCYcUbS31eCZ//0wXj8+gc999Z+w7brLMTTci2Akjpeffw67uly44+3Xw6Q34qabt+GxL38av33tdVpa/OY734Mv/sM9uP/+j2DS4aRlW8l8TqSWncOXGEHIZTAIWQnl5RWoqCiDx02klnXo6++HxWKFVqOBwWQQFmLwGB0fQ31tLSYmJmEtNdNdsk6jgcPhyAuiW9w3Q6s51tdDT6o5xhPIpJPo6xugF7e3dwomHhJSEI5gcGiIFmwym4vg9wdhtVqoIJJgFeJgsZYiEpihKYDBgB+xWJzawnQ6LWLRGI1ziMXj2boJi2vhwmcJIYJClsT69R2wTzjQ3FKPruPHUVFuw7h9AlW2SoyPj86LeSBtLS0tRVVVBSbsDpSWlaK7+xRqG+sRCoZQU11NxZwMOh36e3tofIVMqUKRSYue3kEah0G8QzpDETZuaEM46EEwnIBeb8Lg0AiaassxEybBnDIq1pSIx1Bsq8PkUC9cHh+KDDoEQ3EYjCqMj00gFo8tHhMWg3A+w+bSvJYRhILtV1IQ77HHnsLMZDc23HgH+o4ew3XNdbjpgw/gO48/gsTkXnzv2e34+sPfwcCbr8NU0wi9LIiQugIJtx217Vegb/truO+zn8b+va9h/74jqGzZjDtvbMJNN78bCm0F9uz9b/zqiX/Fd5/6Ja3YS6wPJIvq4cefQNDVje8+8mNkOB7/53e/x54Xn8PPfv0CMjIdHvzkffjNv/8aDe0bKUH4xMc+gnF3DJs3dWLHK9uRTCnw6GM/grdrFx7+xb8jnuIgVxrx+LM/RuLwy/jqj56jlv4b3nk3fvXMo3j26afhnknhtrvuxMjxXfjSNx7FTe/6AL72hY/ga1/6Il7ZsZfucaobmnDVliugU2nxgfs/isO/fgL/9G+/RYrjcMsd78XnH7wXD9z/ETimXGL1O0IQ7oFzuBuTvYfmacoUrIuBjGqBJIj5hHSYSxH0JBCEdCTxM3GSu4kyJp6kzfE8UuJ1NJ1QTH2c629fzJdDIvXpjcWm5KL6ZXSHTKtGckJ78ssjzg2sEyJMRQ/TYkR/FtO4056TC6QR6kwJJEtIqeSFj4CmGKbmVXSk8bt5rhhabIm0l9yI1kUgWAiFmYgZL+vBo+dJ1S4FeezykhJ4PdOIJcTeIF1Jc0uFVFCDQQ+TqQiQK2EfGUIynQJJm6QYiymgc4tbnREWRhDOa9RckhczglCw3arSavDkkz9F1NWLHUeG8fTPnsH437bjbe+7Hw899j2YM1P4z5eO4rNf/l84+MpL0Ntqocj4EJRbkPQ7YGveCPue13HtHXdjuHcfXv7zDmRUWhiVcbz4uz+hce1mvPDbn+Dhr30Ff33jOCYcE+BlSpRYS/Dlb3wTEc8gfvTj5+BwOPHwj/4NwbET+M1/vYg0p8ZVV27Bq//9MtZvuRrf+Mpn8c9f+0ckdBX4+Ifei69+6kEk1WZ84+vfhq/vIJ75zfOYmJxELK3Eo089Dat3EI/88rcothbDaK7AY48+hOeeeRonh+wospjhGBrEgWO9uOve+3H7tivw3e9+H2MDAwgl5PjFr38Fe383du8/ik9//vM4+puf4mvP/AdM1mLc+Pbb8ZEPvAtf+uI/Yqh/EB6Pl+ZCtN1yL1xDJy41gpDJIwikaqAMcqKwnEpTYkB2qgqZHBmSbUgWJ/CQZdJIxRNQqVRIEDKRyVABIin5RVjcl2ZrVspV4LkUzfEn8QSSC4AssEKZaRmVRUgQASVwNFsgmUwgDTkthZxKJuhOnogipRJJpPKqJ5J2k/Q+qdqi9P/z/6KziYhZcqNQqpBJJUAIj1qlpGRGiKSd/TRKY+i78eBJYI2CQzSeoiRMLtNAgQxiySgdeCQ2hATxJhJCpohcLpAmIjlNDrlMATUpFpVOIhlPCuk6pBKmGEBE+pEGU5K00FQKySQhH1mxCYEQigxhUWExlCA0IeKNovfAeF5CpvSOS+v78+8Hdoe3HAFGEN7yLjinBnBAY3MLfvDEEzCoOPzwyR9g7dZ3YbOexz2f+Rxue889+NyD9yAUS6O01ALn5Dig1CDmd8Dhj8FSpEUgo4QpEcYLf9yJe+99LyLTHihMBvjGT+Cr33wMX/nWw9i6ZRNGBvphd4zi8R88BaO1Fg/c9yGsa21FJhFEf/8Qfv7UjxFTF+EbX/2f4IgujNKITNiFZ559Hp/4zINoqqvE0GAv0rwGiIfx3C+fw613vw9tLWuQjMxgdGISP3jycXR1DeDWuz+IL3zyw7Rgn4aP43uPPImrbr0Tt167GR5/EGarCX/8zQvoG5/Gxx78OMqtBoyNjKJnz0785Pk/4sEvfA6da5oRBYcSaxGSznH86/efwvsf+BgqK22wlVrQ39eHv7z0Ep5/8XdIJNJYd8uH4RzqwmTvAWF+zZv0C9iCICgpUvsBx6OsvBK11SVwuf0w6vXoHxyi8rwkZV5FAjZCSejVHE50D6CuphopuQw6BdB14hQNlqPVHOnud7aQz5mWDLJ4r21aA40yhSAV7knTrARylJaWQKvRUrVAoi1gt49TC8HGDRvgcY4jAh2UXBqjYyOQKRRY19YB+1A/DUQkO3KSvidXKFFRXg7/jI+eM+PzLUsMArECCC4GGZRKOSVT1bX1SPhcUBjMMOo1hGmhq4cE4MwhCJwcRoMeFbZS+GcCqK604tDRU9SGUmKxodxspx5wjgAAH75JREFUxrFTR6nZzVZZA4tVg75Tw0glU6isrgKx3YyOjVMLhVpjQInFBLXWiOG+U4gkU1DwHJJ5+g+EkFiKTbSNLpd3finvcyAIYUIQDo5nI5mFj2LuNDUrveGc5jB2UQEgwAhCAXTSAk0k4mlqLVWAJXNJYMaLRJqDSauGY9oLhUIJq6UIvIwXS80LVlMunaIia2SzkkhnIOc5eN0z0BmMUKkU4DmSTh6APxCCpaQERMafzgSZJKbdXkCugtlkoJtQMoumU2kEvD5E4nEYTSZotFo6r8YiMwjFUjAXmcSS9IICLgkyD0ei0Bn0NM2bGp4zaXg9bkTDCciValitRZATC24sAocvAE6uQHExiXEj0jhJBPwBgMzDRr1gzeU4pKIxuLwz0Gi0NHCc5C8kU2nq4p3x+GAkOJFpTtyAhYMhzPgDdJPcvu1eOEZOYKr3IN0wUmO3CHlBEwTyDsTNQCPr16xDY105/P4Q1FotDVxrqq/FTCgBmTyD4YEB1FVXYSacgKXIjO7eU6ivLMGxrh6QYEOPxy0IWuRZEc6mpEgG4ZbNV6JIn0RX/yQqK0rxxpv7KBHo7GgHl86AU+uQCAZwsuckMiRmoaoGdWV6zHAGIBLE4aPHIZPLsHZdJ6I+JwxFFrim3bBP2qHV6FBdY4PX7aPX+jxuqsp1vocwtEGrWJIYhPHxMWzavBl9XUfR0LwWQ4MD1JrRNzw871Ecp0Bz81qUlikRDqRQWVeJriMnYDDp4XL4sba+Djv37qbFmjo2bIBWI0MkFKP3S2TSUHBphKNR6PRaBCMpJKNRVNc1wTs5ALXJDC2UCKRjSCdTIFKlpIKlPximURMk5mDBQFKxWNNZceGB9W9rRtgXQV8+QZjn0pHcPad72lmfxE4oFAQYQSiUnppvysxTbCPWTMECKaQv8mkyYwiWzazgGl31eBobRpMGBSEAcTUUUgPpP+nEnwHRzcsp4gjua3JXqggrHVn3bN4egyeJkynwxKJMXbLiZiM/FZHaL3OKulS4T3SSixFi9DmS6CKdsTMyZPgUuAyxhqeQDVfnCIkRkhrVmQy1jpM3pAq20maQpraLAef0psSeDUp0OrbdC6dIEEgJg/z9UsEQhOvesx47nj8CLs3Rzs8FKaZFgtCOlqYqBPw+qDRaZFIZFJlNcDl94OUynDx+BK1trZBplZgcdcJut6OjpQmHj3dBplDC6/EiQ5UUiYl7cUqKCoUKl195FYzKJE712VFTXY49e/dBrdFg69brkIxEYTBZ4LCPYf+xQzRNr7a6BkYFB1trB9IBB1772wE6CGrqmqCXEwElDU729iOWiMBoNNNgQJ/Hh3A8gZDfh/gypDlKb2c0leGaay6HO+CBWkEyBWag1uow7XYiHUuhb3hw3uRBAnRs1Q1oXWNDLMpDb9FjsHcQdeXFeP3Nw9jU1oSd+4/T1M2OyzbBpFIjkYlBq1Kjq6efBi8qFByck3YUlVdjxuVAeUUVrFY9JRkBdxixDI9I2A+dVo0ZtxMz0QS4VAbjoyOCsNK5Jh0QgnBDE0IzUfQfIhaEwpwbWauXEYEFCQIjiMuI8IW7VZ6UYG6BFR6XdRbnnXP6huTrK0pX586mxEESS6YcYqF8eCGWi1KOfAKR/1BJXv80DZktpJxlDNkfJNl64fLc5iV/tM5VbZhlBxWbLa1vgvFBjvab74VjmMQgHKQu4HxxyIIgCJycw3XvacPuF0haIAc+QzhW7iBmoJZ1nagoNSKeiEGl0mBqwoWGpjqEAz7EUzJMT43DVGyFvtgIn9sLx9Q0qspKcKK7G5xCAV+WIEhiF3MG2gKdqlSpsXnLVTCqgMEhO1UY3LvvTbo4tre3waDRIJ3mEY+EcejEEaQ5Hldu2YiRwRFYbQ2waJL4666D4GQc1nVshDwdg1ypwUBfD3w+PzQ6Laqrq+F1e5Di5AjOuBGJRs/7gxOYMoea2hY0t1RiyhtAmbkI03YXrOXFGB0Zhkahxsn+Hho/kH8Qd06xtRTXXrUJLlcIphItBvsGqZLk8SNHcUVHC/76xmFo9Xqav2vWapDiMlDJOUxNu2EymZCIRKm2Q1KuQcTvpapirW1NUCjTGO6fRCIlQ6XNSusveBxjcEzPUDY/Ni5YNM6VIMhkHNqur0PAG8Xwkcl57pPzBpbdoPAQ4DjUtW6m7q7eQ38Ty4ZLCwCzIK3oDl0MQVjUC8yWMc5ffMnlsyzJotVhYYpwhofRTc2ZdyTznJp5v5BIgGTREO0lAiER/6Oj9Uye0Tl40Xfj5NSCMEUIQl8hE4S7OrD7d13UMpDrMqFDCGMrLilFmbUYMzN+aDRKjI7aYSoyQ6VW0mqNxMTN8RkEQjGYjAaEI3Fo5BzGJiagUqvh9XjmgXs2LzQJjKyqroZSRnQ+NYiHAxifmKLDQKvVQKVQ0oA8hZyHL+CnwX1t69bA7fXA643AoObhnCbxBTyamtciHglRraxYKAin00UDFM3mYoRCQUocEkRfIEzqI5zvIYwUYi2oqS7D1JQblVU2uOxOlFaUUPeM2WSG0+1EJDKbkBByYSkpQ2NDFYaG7TCZ9PC4vdBoDUAyBltZCSZdHhSZDZh0ulFsMsAfCiGTTFDSYDQZMT3lhlarhmcmCJNeh3H7JGpqq5FIRaFVqBGOx2kVzqqqWowO9SAaI/60FBxOh6h+tuRYUkFZTMGh4/pGeCb9GOkW03yYGeF8B1NhX08IwtpNUOlM6DsoEQRpImcmphXdufmr9Byr79LbfXZTQ3YhJkXpSM6WyB/nFQ3McEjzacHNQXz+tBy9VJNhCS3LNomjm05BIF/INssFZS9hjM55RYHryLB+2300zXGi7wBVkMz3uBaGBUHG4ZrbO7D3TyeQjpPgxPlLNyEJZMGWqjjm61iTbAHJr0LTH2kHC/9lxKyBWVHwcwbembqUZiuQm9P0QFK5URipgvdHPKgcplBJksQbkL+SoD3qGxNPoXUJaM8IAZNSxgJ9L3qe+PvlTIGkmAmLLTWLka25WGmSZDMQLBfKnCB1EhQKQZeBviXFVKhgSf5PgitJ5kY4EppVJ0F4FyHdkTj6yCOJSFU4GssaBUnfUNlRmRyVlZUYGxulLiKCbSJJvGtLqE6S13GkL1Q6JTqua8RYjwOOYZ+I9xI+sCV82+zUAkGA41DdsgFaczn63nxFSO3NGagL5CVWaTPPtI1fzs+aGlx5lJdWIuSfRihKstBILIDofBAlm3O9ICPRkDTLy1xaiVTQh5lwWKh/s5R2ie9XXlGNttZWyOUclFo5/vB//0wcrXMTus4+CBbAiyOu4L+7D87Bo3AMHMkGKUo3KwyCwHO44h1rcfi1PqTDKSG4hC76+W88O6QwRyFyzI3+JC1SJEiDVPiggSNL6bW5/TArDGTW1EKpw5xOEf4ttF0gLuQcsliSGsn55ZWFC8WYGxosQ0smn1db57dd8DYIBIqWtyBBnyRfFDwSNN5hAWwIhjQgSEYrTgp0KKd5QNTN6QAmOhDiI0XvnBAESqtDk97gIacVNaUMkvz2kUIsQrAQfXdOCDii6GUdjGf/JrIcDYDOrEb71TU48eY4gu75KZyLvxs785JBgIisNbTDUtWE7p1/pIXUpBAv4R1nGXAvmde+JF5kEQThbIHmi8KBA60T84mPfwpe5xAOdXVj967XYaupwpYrrsDYmB0HDxxAe3s7Kquq0Ns7ifbWCuzYtQcPfOILkPkcODU8hD//5c90U7XwsUBLxfcjtXpIBoKtqh43X9OJn/3HC1QTJleFeHZq4rxYhvxJcM7DZXIlWm/8IKZ6DsEz2kXXAFqXQjyvIAgCWSU7r62HfcAF72QwW1RJGh9kuSq31aO6vBhunw9GvRKDg2OorqlHLJGEWqtAOByHXsnTwkTEPJ7m1dAqUzh2vJearxc6zja4eJkCTS1roOVTiCaJqFAcfX3DkCtUaFvXRjUOegf6kU4kkKBpiwq0dbTD65pCKq2BmotjcHwcvFKFNVT6eQCRSEzM+U9BoVSioqIcoUAQ5FkklScaJ7vt5To4qFUaJNNxatkgVR3lMhlMJjNKzEZ09/bNK9ZE+sJgNKGq3AIvyWKoMKH7WDeNr7CVWmGtsOHo4SP0fW1VdSgt1qGvp4e6Wipq6yFHEiOjE9SKo1TrUFpioak5JM0xmkpByfOIpzNUQ4FOzxkOFksxUqkYHM7pbEgy6fusz42yhtNhIplIMrBWGdHYXoED23uRTp4fLVyuHmD3eesRKLLVo+Xybdj/0q8AWuBHEO5iB0NA4oik+u7t73gvhk7uQc+onQa2/4+//weMD/ShumUdTh3ci4PHe3DTtr9DIh5B2OvCK7vexJZtdyA10IWjw0OIRqJI0U2eSD05jlbrbWhooKmQZFPV29ubVdjNFacWzr9m6zbwASf2HT2GWJrMa9K6dQ47JrENKo0e6667E8PH38TM1NAcgpBGwRCEmuZSNG+oxmsvHszyG7GgI2QyBWob1qGm1IR4MgVeloTHF0ZtbR3VDkik0hgc6EVVuQ1qXTFq64zwehPwOQcxMDwJnldhmqQ5ijoI0p5B+jxOBz9Jj9yw6QqY1RkcPHocLU01eHP/MeoOKC8vR0mxBVqzCfFgGF1dXVSq01RsxuVtjQjE9ciEHdh/tBucTIGahibw8RnU1DTC4/Ohq/sEzam1lliQSaQRisYRjwTgD55/NUe68HIclHIFbr7hBjjCIbS2tuHw3jfQ3NyEXTt3wkS0JEbHsi6bLAnlOTS3dcKsTCOU0aGiRIvJgRGUVVViJkDMaBwmh/ox5QuiZe06aPgUlboOB/wIJDLgM8Kgrq2twfD4FMKBIBqbmzE93ANjeQXMegNmonHwGRmNV3BP2TE+5aKuifHRIVHcSJi+hbSms8UjCAFIPJdG0+YqWgGy7/DY0kx9bJ68ZBEgw0drqUTn2+7Ggd//EokoKb3L6MEl2+Hn8mIkbZJT4B1vvwtDJ3bj1KgDBrMB77ztdmx/6feIy4hmQQLRaAxbb3kn3v3Oa/G9b30fIy4PNt34TkoQjg0P0tLUJNVbcoMTd2xnZye2br2e3j+NOF579RWcOHFSdH/mgieJkN1tN1+Pw/v2w+5yI0FzMc+2Qp39ZbUmK1q23ISBfa8h5PNQe1nOTl0oBIHk7KvleN8X3obfPbML4ZmoaG4Wc1M5BZrWtqNtTT28Mz6olDK6ayc1u4l4BPFhnzh2HG1r10KlUmJywglTSRlU6RDe2H+E7uw9Hk/OsCLOD2dbe0ia45VXXw01n0Lv8CiqK0vwxp4DtDJXaVk5zAY95Go1BnpJNgDxWwE1tfUwqmWoaGgFF3Li1Z37kOZJRkETdIoEtT709AwhkYhDbzCgstqGaDCCSCKNRDSAaa/37L2+iDNo/YqSEhgUPHTVTTCYLcjMTFEyRSwW0XAUfSND8+ZKMsht1XVoW1ODcEwGa4kJp7pOobHSgv4JN5pa23B8zw6Muf1Yf9kGWHRaRGIRaJUKnOgbglFnAK+QwTk5Rsumeh1TVOGrxGqAzmhEKBBDLCOD3zNN61AE3FPwxdI0IGhsdIhiKMWLLG4aFz4ktU6Ojhsa0LN/DH7n8pCsRcDMTlnhCJBvXKktQsd1t2HkxH647H2k3N8KbzVr3kVFQIxBuPLy67CmoRTTnhnsP3AILZ0bUGZSIxjn0HuqG2UVjejsrMGrr+7Eu26/Fc8++wtYbbW4trMVnmgY3fsPY8g5QV2kUoQaIQk0fotsYohIXDKVq0wrRBFS90KR2YINnRuwb+8uWvZe0Dk4/6PY1oTKNRvRvfv3tNChqAol3jhTIBYEKu8LrLmsDmodhyM7RQEfGiFKgFWioWUtikxqGjynJOWbpybR2kwyBnx09z09MQqTpQLltjK4Jt0oq7JhanQYff094BQymv2w4MbhDKuQUqXC5k2boNPq0HWyC/V1Ndj3xn4k0xnUNqxB2O+hgXYDAz0IhyK0fPNlG9vR1zeIhpaNsJlS+Mure6gwR31DC5R8ChqNBqe6++iiqtfrUVZaQttGFBmJFHIoEj7/USEGURYXmVBWbIamxAaVzghV0g9ersDUxBTSiTRODfTNq5JIiIXWUIwrN3cgHkqiqMSIgT471qypogVD2lrXYmSwB8m0AqXVNshTURQbzeDlHAZGpmDUqpHiZPBOT0BlsCAe9CKeyGDD5g4o+QT27D0CntOipaUG5uISuCaGMO2PAKkkxobHqP7F0mpmkIAHoKq1GBUNFhze3o9kbGGX0vkDy+5QSAgIlkIOnFyFps3bkIpHMXj4VSFKvJBehLX1wiIg+rJ5yIUAd+ImoKu8VIdHkHwnMd7UVUsC0MminxayDcjaRYO/yb/F8DnSYKkGTv7PCwbLk7AtsVYPeYZwLAc94NG4YStSaY4WgMpwxL0mBJ3TI4PCIggcz+HGu9Zjx++PIxOjkjmCJYHjUVpmQ1mpBR6vl6YYjgwOw2K20gVXo9PQUstE2tgXiKDYVARfOAqjAhglaY4aFVyu6YUH2RlmCpI1UVdXB42CR4JTIBkNYXBkhNq9zdYyhGY8qLBVIJNOYMI+Rcs6d3Z2YHraBef0DIp1Mky4BCGndW1tiEWiyKRkCASnaZojub+luBhRQgpkRC7av0xCSYKLgWQjtDQ3wecP0BLZRrUepmI9Dh86jPJSG8anRhGJzA6qEao52lBfV4mx4XGUFBsw5fIDeiNkyRBMBj2mvQHYSosx4XSj1KzHzEwI6UwKWr0RRSYjHM4Z6LUKuHw+6NRKTExMob6hFtFkDCaNFqFQAkqVHJVVlRgZGkA0GkUynoDD6aYfmkAQch0zOxByTjdyHFRaBdbfWI/xHjcm+0TFzAs7pbC7FwACkiuRBNUW29bA1rIOJ3e/hFQyPosgnDboqwDekTVxGRDIm2CE8GwSYE1+IhsNEvgurafkB5lYJVEK0CZB6GLGgRgEfjqhJYkoZFuc91zhqcITl4cg8FTWueOGuzFw+HUEp0eELIus7GSBEQTK9TkOazZVwlhqwuHtJ5CgmgiE8VA7gsCqsu4BwbqQcxPkJS/RX0rZB+JJImNahuFUkLcg5MtstFBZaiL1fLqDYkp0yElFzNMEd6rVaihkMgRDYZoHnMNa6g1x5NM0RxWixGQ2J31ToVCgvr4eA4MDtNQ1CaAk2uJZaruYPR6xlMg41K0rg63CgD3bByiLZwdDQEJACGHlwclUaLvhDgwf24PAtF3I6hEzc5Zrv8ZQL3wEJJl6KXNr9v5RWofyHQDinHc2f/UioFmGW4hPIUXzFLA1tqG8qg7H976MVDREBe0oP8ibIgsjSJG+luCnUalluP7d69FzZAwjJx25VI9ZOXC5jzsf1Pzo0UVV/1tEpxX6KZIsKK0aSRd8UafgPF5sKRUWTzfoBcMQn6fDIGmaSzEIZzcCU9JTbkDbVfU4trsfMw4Se7B8n9l5QMQuXSEISJlKJM/dtmYTzLYGdO/+A1LxyCyCwEjCCumwFd2Ms+W9rYzGExKg0BjRcuUt8I4NYKL/mLhBI9o8ufoQpLUFRxB4PgONXo1r37EOe1/tRsAdyeP5Ev3J+VHy96x0SZmzPswFZGV04cVrRe795yF18RpxAZ5ERZhMKmy8qQUT/U4MHXWI1iVmML4AcBfsLbOx4MQVpS9C29a7MHJiH1wj3bTSHa16yvIaCrZ/L37DV+5oybaMVD+u70R5Qyu6d/8/JKh8P4mnSBQ+QSCiPhynRGWjEWs3VeLIjmG4pvxUlIcep9tY5v0+z7lw8ccPe+IFR0AmkoM1V1cj5Imj58A4MknmWrjgwBfgA3Jleog/ikdp3VqUNbSi543tSEQCuaJwzDVVgL37Vjd5pZEFwcKhM1dgzea3USLsnewXlG1FSbvchlFYMAvOgiC8B0freFc0FqO2zYaeg4NwTwSQzq/ikyUE83eMvKhq/VYPH/b85URA+BiJ5UBXpEb7VbVIRJI4tmcIidi5C4ksZwvZvVYeArMIAp1aeDRfcRN1bw0e2oVEgtQ+IfJyjGCuvN5byS2SIuDe6nGTi3QkJaHlKg2arrwN6YgPwwdfQSKVzMuHIIq1kotBmDMLiCBIg0FcCEhUgoxHRZMVzZ0VGO11YbTHiSRdDISyzRIrogtHVvNYqJKQliwOK3mMsbbNC17MSd+K5iKSJEzHsgwk5qC8wYT69ZWYHp/G8OEpJBMk1UiIOs6ZmM4ev8CgXx0I5AiCODo40DTepi23wD9lx+jJvUA6KYjbSENIGkmMd66OQVLQbylqLCANuUKDyraroDYaMHDgNSQiwdPMr7n5sQAJQn5v8SDFJoxWJVo21SOZSGCk2w6/K4z0LJOyRBAkVoesXDNTTVv5o5/mn2QJnqBrILIC+jNRZdYa1KhtrYCl3Ii+Y3Y4hqYFJVLqRxYi1XMEQbp+5b87a+GFRUAaFdl9HqlFAg4KXTHWXns7pkd6MTV0BMlYWDJeZht0LjVBLuzbsLszBGYjIKVUypQq1LVugam6Bd07X0Q04BUL3515s1TABIGq/WRTGVU6BcrqLCitNSMZTWJy0Au33UvT47IZdHk7AEmiN9+yIEFLlxQpezJP2CK7LklLzZwdBRucy4xAduwK1qCs7YjO6kLlSUu5DjWNVqiKNPA4gxjvdSLsFUpiS/2e8wSuNJ/gMuPFbndOCMwfFcJGQm+tQeNlNyLgGcPI0deRTkaRIVVIeSEbnRGEc4KbXXRREBBGNSkYqNQY0Lj+OijUGvQeeR0RvwuZdHJOIb2FG1XABEEkB2LCAlnwif9Zb1CjvN6KIpsJCiUP31QQHocX0XASyWRSyPHMptNLLCBnWZB2mYIAU54Yz0LmREYQLvxQFy0HtK66PA25nIdSJYO5RI+SShPAKeBz+DE+6IbfHUImJzV24dvGnlD4CJyBM3KcHAp9MZo2bYWC5zF87A343S6AE8qTM4JQ+N1/Kb6BsCwRbQ8eerMN9euvQTIWwcDhnYhFhDL3JENHGvpnsiEUNEGgG0lxjZd2i7REMEdUomTQFWlgLNHBUKyAUqmEXK6EjFdAxskFwRypxPEc5yLlAoQcSARBMCjk8wXBPMMIwgX8vvLNPUIBkWQmgVQ6jlQ8iZA3Bu90EKGZBOLhJNJpIhMqHJIOg2BnEGMUmB7WBeyrAr51fmiKqLYi7QVotBInAzHPlte3obzlMvicYxg7vgOxSIhoftPYllxB+YVwmPOAAoaKNX3lIbAwv+Wg0BjQdNmN0FmsGD+5D67RfqHWAtK0tkNuacsTEFzg9QqaIMz69PIX67zVW9DB5iGTc1Aq5TSwkRbHoIwi/6K5N1iIV81lBCzY7WJ9MsQwkE6lkUwkkSRuIzo556e1sr64WH1xKT9nPucXAlwJ6dSZy2BrbIW5ohbTo33wOMYQ9DhpDQch1kUck3TWnmuVzBuseZbJSxlL9m4XEAHi6hLC7ZGhmQeASqOF1mhFSXUzyusbYB8cwNTgcUR800J9ESqTSNokyUAL7btkLQiLh39eKFJOgXGBm+RLrEp/FrwSpyuxyXYJi++L8zkzH39hoLODIbDcCEhLuzCN5igDmV85mQw6owXmijpYbLXQmksQ8vvhmxyCzzmOiH+GVm6lJV3nHdLWjZHZ5e6zVXc/GQ+FSgO9oQjmkipYbPVQaPXwu6fhnRiGe6oP0VAQ6VQSvGhez3nJFz9vFrQFYWmDYq4xZu5in7ublBSX/xkLP0uBcvl/kSYRlvO0tP4417MZGTtX5Nh1i0cgO1tI1gA67KS6IqQWiQwKtRYKjQ764nKYrJXQFFmg1hhAysCTQmuCOl2+TUKcmGl9kry2zLN+in+bO2UtNPSXem3+lnGx1wpTn3As1O6V/ruF2r3YNi/22ouMayaTQiIRRjwURNg3Ba/DjoDPjXg4iGQiJtackdL95477xRPUVUQQ5oKUTxBmMyrBdEP2pxKQwpe6MBXIT59bPPCLn6rYmQwBhsBbjsAct4EQ55KLViClf0k9h+xayolV/sRTsmu9JNcvLiizbpvvG54zrdDzznKtmHyV827kP3vO5EXl4+b8bm5blv1+UhyXFBt+BmyyHCqPxFDPzCKuXajdWZ/7OeCavXYReF1UXMX4KqrRQUuUi8FyFFfigsjjc1JFySV+SKuUIJzZVC0QBOJoyD/Sp3EwnM7tsMSeYKczBBgCKxyBnMthNkEgIQfiPJABNemSIGdJuoPGO0t0QlzwpEWHbkTyFkESQEaFG8Xb5YcrZKVAxIWW/I2eJ95ciquWrpXWi7nPmHXenGvJMyQikj0v99o0uO10z5137QLvLBZ3nfeMuddKAyH7zhRXIbRjVvsuAq5z+6QwcOVpP1G86PhKzwqyF/DlBQGwM0QhXDSCkE6nYbfbV/gEwJrHEGAIMAQYAgwBhgBBwGAwoKioaElgcBlWK3lJgLGTGQIMAYYAQ4AhsBoQYARhNfQye0eGAEOAIcAQYAgsEQFGEJYIGDudIcAQYAgwBBgCqwEBRhBWQy+zd2QIMAQYAgwBhsASEWAEYYmAsdMZAgwBhgBDgCGwGhBgBGE19DJ7R4YAQ4AhwBBgCCwRAUYQlggYO50hwBBgCDAEGAKrAQFGEFZDL7N3ZAgwBBgCDAGGwBIRYARhiYCx0xkCDAGGAEOAIbAaEGAEYTX0MntHhgBDgCHAEGAILBEBRhCWCBg7nSHAEGAIMAQYAqsBAUYQVkMvs3dkCDAEGAIMAYbAEhFgBGGJgLHTGQIMAYYAQ4AhsBoQYARhNfQye0eGAEOAIcAQYAgsEQFGEJYIGDudIcAQYAgwBBgCqwEBRhBWQy+zd2QIMAQYAgwBhsASEWAEYYmAsdMZAgwBhgBDgCGwGhD4/5YvrALUgm3EAAAAAElFTkSuQmCC" parent="g6PYxoMewmJSJhbW3inZ-1" vertex="1">
                    <mxGeometry x="46.1" y="460" width="577.8" height="320" as="geometry"/>
                </mxCell>
                <mxCell id="g6PYxoMewmJSJhbW3inZ-13" value="&lt;h1&gt;&lt;span style=&quot;font-size: 15px&quot;&gt;JavaScript代码执行过程&lt;/span&gt;&lt;/h1&gt;&lt;h1&gt;&lt;font style=&quot;font-size: 13px&quot;&gt;&lt;span style=&quot;font-weight: normal&quot;&gt;1.词法分析是将源代码字符串转化为有意义的&lt;/span&gt;标记块&lt;/font&gt;&lt;br&gt;&lt;/h1&gt;&lt;div&gt;&lt;font style=&quot;font-size: 13px&quot;&gt;2.通过语法分析解析成&lt;b&gt;AST&lt;/b&gt;语法树&lt;/font&gt;&lt;/div&gt;&lt;div&gt;&lt;br&gt;&lt;/div&gt;&lt;div&gt;3.代码生成阶段，AST用作输入，并生所在环境（或平台）理解的&lt;b&gt;可执行字节码&lt;/b&gt;，然后通过JIT(即时)编译器进一步细化转化可执行字节码&lt;/div&gt;" style="text;html=1;strokeColor=none;fillColor=none;spacing=5;spacingTop=-20;whiteSpace=wrap;overflow=hidden;rounded=0;" parent="g6PYxoMewmJSJhbW3inZ-1" vertex="1">
                    <mxGeometry x="46.1" y="280" width="570" height="170" as="geometry"/>
                </mxCell>
            </root>
        </mxGraphModel>
    </diagram>
    <diagram id="X9FjjtJgeJLDIxTO3jOq" name="this关键字">
        <mxGraphModel dx="609" dy="610" grid="1" gridSize="10" guides="1" tooltips="1" connect="1" arrows="1" fold="1" page="1" pageScale="1" pageWidth="827" pageHeight="1169" math="0" shadow="0">
            <root>
                <mxCell id="k4gBgGjptz7Fwq3Stk0_-0"/>
                <mxCell id="k4gBgGjptz7Fwq3Stk0_-1" parent="k4gBgGjptz7Fwq3Stk0_-0"/>
                <mxCell id="4nXs6M6C57KR4ywrBHzv-0" value="&lt;h1&gt;&lt;span style=&quot;font-size: 15px&quot;&gt;this&lt;/span&gt;&amp;nbsp; &amp;nbsp;&lt;/h1&gt;&lt;div&gt;&lt;font style=&quot;font-weight: normal ; font-size: 13px&quot;&gt;* this是JavaScript的一个关键字&amp;nbsp;&lt;/font&gt;&lt;/div&gt;&lt;div&gt;&lt;font style=&quot;font-weight: normal ; font-size: 13px&quot;&gt;* this是在执行上下文的创建阶段创建的&lt;/font&gt;&lt;/div&gt;&lt;div&gt;&lt;font style=&quot;font-weight: normal ; font-size: 13px&quot;&gt;* GEC中等于全局对象window(在浏览器环境中)&lt;/font&gt;&lt;/div&gt;&lt;div&gt;&lt;font style=&quot;font-weight: normal ; font-size: 13px&quot;&gt;* FEC中，默认等于全局对象window，其行为会根据绑定现象而改变，不要将它与bind()方法混淆&lt;/font&gt;&lt;/div&gt;&lt;br&gt;&lt;div&gt;&lt;font style=&quot;font-weight: normal ; font-size: 13px&quot;&gt;&lt;br&gt;&lt;/font&gt;&lt;/div&gt;" style="text;html=1;strokeColor=none;fillColor=none;spacing=5;spacingTop=-20;whiteSpace=wrap;overflow=hidden;rounded=0;" parent="k4gBgGjptz7Fwq3Stk0_-1" vertex="1">
                    <mxGeometry x="30" y="70" width="570" height="200" as="geometry"/>
                </mxCell>
            </root>
        </mxGraphModel>
    </diagram>
</mxfile>